<svg width="150" height="187" viewBox="0 0 150 187" fill="none" xmlns="http://www.w3.org/2000/svg">
<g filter="url(#filter0_d_2_191)">
<rect x="-190" width="340" height="183" rx="10" fill="#FFBD12"/>
<rect x="-189" y="1" width="338" height="181" rx="9" stroke="#1C1C1D" stroke-width="2"/>
</g>
<path d="M-45.5 30V44H-48.16L-55.14 35.5V44H-58.34V30H-55.66L-48.7 38.5V30H-45.5ZM-41.9077 33.24H-38.7877V44H-41.9077V33.24ZM-40.3477 31.74C-40.921 31.74 -41.3877 31.5733 -41.7477 31.24C-42.1077 30.9067 -42.2877 30.4933 -42.2877 30C-42.2877 29.5067 -42.1077 29.0933 -41.7477 28.76C-41.3877 28.4267 -40.921 28.26 -40.3477 28.26C-39.7743 28.26 -39.3077 28.42 -38.9477 28.74C-38.5877 29.06 -38.4077 29.46 -38.4077 29.94C-38.4077 30.46 -38.5877 30.8933 -38.9477 31.24C-39.3077 31.5733 -39.7743 31.74 -40.3477 31.74ZM-31.772 44.16C-32.6654 44.16 -33.5387 44.0533 -34.392 43.84C-35.2454 43.6133 -35.9254 43.3333 -36.432 43L-35.392 40.76C-34.912 41.0667 -34.332 41.32 -33.652 41.52C-32.972 41.7067 -32.3054 41.8 -31.652 41.8C-30.332 41.8 -29.672 41.4733 -29.672 40.82C-29.672 40.5133 -29.852 40.2933 -30.212 40.16C-30.572 40.0267 -31.1254 39.9133 -31.872 39.82C-32.752 39.6867 -33.4787 39.5333 -34.052 39.36C-34.6254 39.1867 -35.1254 38.88 -35.552 38.44C-35.9654 38 -36.172 37.3733 -36.172 36.56C-36.172 35.88 -35.9787 35.28 -35.592 34.76C-35.192 34.2267 -34.6187 33.8133 -33.872 33.52C-33.112 33.2267 -32.2187 33.08 -31.192 33.08C-30.432 33.08 -29.6787 33.1667 -28.932 33.34C-28.172 33.5 -27.5454 33.7267 -27.052 34.02L-28.092 36.24C-29.0387 35.7067 -30.072 35.44 -31.192 35.44C-31.8587 35.44 -32.3587 35.5333 -32.692 35.72C-33.0254 35.9067 -33.192 36.1467 -33.192 36.44C-33.192 36.7733 -33.012 37.0067 -32.652 37.14C-32.292 37.2733 -31.7187 37.4 -30.932 37.52C-30.052 37.6667 -29.332 37.8267 -28.772 38C-28.212 38.16 -27.7254 38.46 -27.312 38.9C-26.8987 39.34 -26.692 39.9533 -26.692 40.74C-26.692 41.4067 -26.892 42 -27.292 42.52C-27.692 43.04 -28.2787 43.4467 -29.052 43.74C-29.812 44.02 -30.7187 44.16 -31.772 44.16ZM-24.267 33.24H-21.147V44H-24.267V33.24ZM-22.707 31.74C-23.2804 31.74 -23.747 31.5733 -24.107 31.24C-24.467 30.9067 -24.647 30.4933 -24.647 30C-24.647 29.5067 -24.467 29.0933 -24.107 28.76C-23.747 28.4267 -23.2804 28.26 -22.707 28.26C-22.1337 28.26 -21.667 28.42 -21.307 28.74C-20.947 29.06 -20.767 29.46 -20.767 29.94C-20.767 30.46 -20.947 30.8933 -21.307 31.24C-21.667 31.5733 -22.1337 31.74 -22.707 31.74ZM-0.747343 33.24V44H-3.70734V42.72C-4.12068 43.1867 -4.61401 43.5467 -5.18734 43.8C-5.76068 44.04 -6.38068 44.16 -7.04734 44.16C-8.46068 44.16 -9.58068 43.7533 -10.4073 42.94C-11.234 42.1267 -11.6473 40.92 -11.6473 39.32V33.24H-8.52734V38.86C-8.52734 40.5933 -7.80068 41.46 -6.34734 41.46C-5.60068 41.46 -5.00068 41.22 -4.54734 40.74C-4.09401 40.2467 -3.86734 39.52 -3.86734 38.56V33.24H-0.747343ZM2.64313 29.16H5.76313V44H2.64313V29.16ZM9.15875 29.16H12.2788V44H9.15875V29.16ZM20.0144 33.08C21.681 33.08 22.961 33.48 23.8544 34.28C24.7477 35.0667 25.1944 36.26 25.1944 37.86V44H22.2744V42.66C21.6877 43.66 20.5944 44.16 18.9944 44.16C18.1677 44.16 17.4477 44.02 16.8344 43.74C16.2344 43.46 15.7744 43.0733 15.4544 42.58C15.1344 42.0867 14.9744 41.5267 14.9744 40.9C14.9744 39.9 15.3477 39.1133 16.0944 38.54C16.8544 37.9667 18.021 37.68 19.5944 37.68H22.0744C22.0744 37 21.8677 36.48 21.4544 36.12C21.041 35.7467 20.421 35.56 19.5944 35.56C19.021 35.56 18.4544 35.6533 17.8944 35.84C17.3477 36.0133 16.881 36.2533 16.4944 36.56L15.3744 34.38C15.961 33.9667 16.661 33.6467 17.4744 33.42C18.301 33.1933 19.1477 33.08 20.0144 33.08ZM19.7744 42.06C20.3077 42.06 20.781 41.94 21.1944 41.7C21.6077 41.4467 21.901 41.08 22.0744 40.6V39.5H19.9344C18.6544 39.5 18.0144 39.92 18.0144 40.76C18.0144 41.16 18.1677 41.48 18.4744 41.72C18.7944 41.9467 19.2277 42.06 19.7744 42.06ZM42.2981 33.08C43.6448 33.08 44.7115 33.48 45.4981 34.28C46.2981 35.0667 46.6981 36.2533 46.6981 37.84V44H43.5781V38.32C43.5781 37.4667 43.3981 36.8333 43.0381 36.42C42.6915 35.9933 42.1915 35.78 41.5381 35.78C40.8048 35.78 40.2248 36.02 39.7981 36.5C39.3715 36.9667 39.1581 37.6667 39.1581 38.6V44H36.0381V38.32C36.0381 36.6267 35.3581 35.78 33.9981 35.78C33.2781 35.78 32.7048 36.02 32.2781 36.5C31.8515 36.9667 31.6381 37.6667 31.6381 38.6V44H28.5181V33.24H31.4981V34.48C31.8981 34.0267 32.3848 33.68 32.9581 33.44C33.5448 33.2 34.1848 33.08 34.8781 33.08C35.6381 33.08 36.3248 33.2333 36.9381 33.54C37.5515 33.8333 38.0448 34.2667 38.4181 34.84C38.8581 34.28 39.4115 33.8467 40.0781 33.54C40.7581 33.2333 41.4981 33.08 42.2981 33.08ZM55.3119 44.16C54.1652 44.16 53.1319 43.9267 52.2119 43.46C51.3052 42.98 50.5919 42.32 50.0719 41.48C49.5652 40.64 49.3119 39.6867 49.3119 38.62C49.3119 37.5533 49.5652 36.6 50.0719 35.76C50.5919 34.92 51.3052 34.2667 52.2119 33.8C53.1319 33.32 54.1652 33.08 55.3119 33.08C56.4452 33.08 57.4319 33.32 58.2719 33.8C59.1252 34.2667 59.7452 34.94 60.1319 35.82L57.7119 37.12C57.1519 36.1333 56.3452 35.64 55.2919 35.64C54.4785 35.64 53.8052 35.9067 53.2719 36.44C52.7385 36.9733 52.4719 37.7 52.4719 38.62C52.4719 39.54 52.7385 40.2667 53.2719 40.8C53.8052 41.3333 54.4785 41.6 55.2919 41.6C56.3585 41.6 57.1652 41.1067 57.7119 40.12L60.1319 41.44C59.7452 42.2933 59.1252 42.96 58.2719 43.44C57.4319 43.92 56.4452 44.16 55.3119 44.16ZM67.4116 44.16C66.2782 44.16 65.2582 43.9267 64.3516 43.46C63.4582 42.98 62.7582 42.32 62.2516 41.48C61.7449 40.64 61.4916 39.6867 61.4916 38.62C61.4916 37.5533 61.7449 36.6 62.2516 35.76C62.7582 34.92 63.4582 34.2667 64.3516 33.8C65.2582 33.32 66.2782 33.08 67.4116 33.08C68.5449 33.08 69.5582 33.32 70.4516 33.8C71.3449 34.2667 72.0449 34.92 72.5516 35.76C73.0582 36.6 73.3116 37.5533 73.3116 38.62C73.3116 39.6867 73.0582 40.64 72.5516 41.48C72.0449 42.32 71.3449 42.98 70.4516 43.46C69.5582 43.9267 68.5449 44.16 67.4116 44.16ZM67.4116 41.6C68.2116 41.6 68.8649 41.3333 69.3716 40.8C69.8916 40.2533 70.1516 39.5267 70.1516 38.62C70.1516 37.7133 69.8916 36.9933 69.3716 36.46C68.8649 35.9133 68.2116 35.64 67.4116 35.64C66.6116 35.64 65.9516 35.9133 65.4316 36.46C64.9116 36.9933 64.6516 37.7133 64.6516 38.62C64.6516 39.5267 64.9116 40.2533 65.4316 40.8C65.9516 41.3333 66.6116 41.6 67.4116 41.6ZM-51.62 67.48C-51.9267 67.7067 -52.3067 67.88 -52.76 68C-53.2 68.1067 -53.6667 68.16 -54.16 68.16C-55.44 68.16 -56.4333 67.8333 -57.14 67.18C-57.8333 66.5267 -58.18 65.5667 -58.18 64.3V59.88H-59.84V57.48H-58.18V54.86H-55.06V57.48H-52.38V59.88H-55.06V64.26C-55.06 64.7133 -54.9467 65.0667 -54.72 65.32C-54.48 65.56 -54.1467 65.68 -53.72 65.68C-53.2267 65.68 -52.8067 65.5467 -52.46 65.28L-51.62 67.48ZM-39.1606 62.66C-39.1606 62.7 -39.1806 62.98 -39.2206 63.5H-47.3606C-47.214 64.1667 -46.8673 64.6933 -46.3206 65.08C-45.774 65.4667 -45.094 65.66 -44.2806 65.66C-43.7206 65.66 -43.2273 65.58 -42.8006 65.42C-42.3606 65.2467 -41.954 64.98 -41.5806 64.62L-39.9206 66.42C-40.934 67.58 -42.414 68.16 -44.3606 68.16C-45.574 68.16 -46.6473 67.9267 -47.5806 67.46C-48.514 66.98 -49.234 66.32 -49.7406 65.48C-50.2473 64.64 -50.5006 63.6867 -50.5006 62.62C-50.5006 61.5667 -50.254 60.62 -49.7606 59.78C-49.254 58.9267 -48.5673 58.2667 -47.7006 57.8C-46.8206 57.32 -45.8406 57.08 -44.7606 57.08C-43.7073 57.08 -42.754 57.3067 -41.9006 57.76C-41.0473 58.2133 -40.3806 58.8667 -39.9006 59.72C-39.4073 60.56 -39.1606 61.54 -39.1606 62.66ZM-44.7406 59.44C-45.4473 59.44 -46.0406 59.64 -46.5206 60.04C-47.0006 60.44 -47.294 60.9867 -47.4006 61.68H-42.1006C-42.2073 61 -42.5006 60.46 -42.9806 60.06C-43.4606 59.6467 -44.0473 59.44 -44.7406 59.44ZM-22.8034 57.08C-21.4568 57.08 -20.3901 57.48 -19.6034 58.28C-18.8034 59.0667 -18.4034 60.2533 -18.4034 61.84V68H-21.5234V62.32C-21.5234 61.4667 -21.7034 60.8333 -22.0634 60.42C-22.4101 59.9933 -22.9101 59.78 -23.5634 59.78C-24.2968 59.78 -24.8768 60.02 -25.3034 60.5C-25.7301 60.9667 -25.9434 61.6667 -25.9434 62.6V68H-29.0634V62.32C-29.0634 60.6267 -29.7434 59.78 -31.1034 59.78C-31.8234 59.78 -32.3968 60.02 -32.8234 60.5C-33.2501 60.9667 -33.4634 61.6667 -33.4634 62.6V68H-36.5834V57.24H-33.6034V58.48C-33.2034 58.0267 -32.7168 57.68 -32.1434 57.44C-31.5568 57.2 -30.9168 57.08 -30.2234 57.08C-29.4634 57.08 -28.7768 57.2333 -28.1634 57.54C-27.5501 57.8333 -27.0568 58.2667 -26.6834 58.84C-26.2434 58.28 -25.6901 57.8467 -25.0234 57.54C-24.3434 57.2333 -23.6034 57.08 -22.8034 57.08ZM-8.74687 57.08C-7.74687 57.08 -6.84021 57.3133 -6.02687 57.78C-5.20021 58.2333 -4.55354 58.88 -4.08687 59.72C-3.62021 60.5467 -3.38687 61.5133 -3.38687 62.62C-3.38687 63.7267 -3.62021 64.7 -4.08687 65.54C-4.55354 66.3667 -5.20021 67.0133 -6.02687 67.48C-6.84021 67.9333 -7.74687 68.16 -8.74687 68.16C-10.1202 68.16 -11.2002 67.7267 -11.9869 66.86V71.88H-15.1069V57.24H-12.1269V58.48C-11.3535 57.5467 -10.2269 57.08 -8.74687 57.08ZM-9.28687 65.6C-8.48687 65.6 -7.83354 65.3333 -7.32687 64.8C-6.80687 64.2533 -6.54688 63.5267 -6.54688 62.62C-6.54688 61.7133 -6.80687 60.9933 -7.32687 60.46C-7.83354 59.9133 -8.48687 59.64 -9.28687 59.64C-10.0869 59.64 -10.7469 59.9133 -11.2669 60.46C-11.7735 60.9933 -12.0269 61.7133 -12.0269 62.62C-12.0269 63.5267 -11.7735 64.2533 -11.2669 64.8C-10.7469 65.3333 -10.0869 65.6 -9.28687 65.6ZM4.32172 68.16C3.18839 68.16 2.16839 67.9267 1.26172 67.46C0.368386 66.98 -0.331615 66.32 -0.838281 65.48C-1.34495 64.64 -1.59828 63.6867 -1.59828 62.62C-1.59828 61.5533 -1.34495 60.6 -0.838281 59.76C-0.331615 58.92 0.368386 58.2667 1.26172 57.8C2.16839 57.32 3.18839 57.08 4.32172 57.08C5.45505 57.08 6.46839 57.32 7.36172 57.8C8.25505 58.2667 8.95505 58.92 9.46172 59.76C9.96839 60.6 10.2217 61.5533 10.2217 62.62C10.2217 63.6867 9.96839 64.64 9.46172 65.48C8.95505 66.32 8.25505 66.98 7.36172 67.46C6.46839 67.9267 5.45505 68.16 4.32172 68.16ZM4.32172 65.6C5.12172 65.6 5.77505 65.3333 6.28172 64.8C6.80172 64.2533 7.06172 63.5267 7.06172 62.62C7.06172 61.7133 6.80172 60.9933 6.28172 60.46C5.77505 59.9133 5.12172 59.64 4.32172 59.64C3.52172 59.64 2.86172 59.9133 2.34172 60.46C1.82172 60.9933 1.56172 61.7133 1.56172 62.62C1.56172 63.5267 1.82172 64.2533 2.34172 64.8C2.86172 65.3333 3.52172 65.6 4.32172 65.6ZM15.7872 58.66C16.1605 58.14 16.6605 57.7467 17.2872 57.48C17.9272 57.2133 18.6605 57.08 19.4872 57.08V59.96C19.1405 59.9333 18.9072 59.92 18.7872 59.92C17.8939 59.92 17.1939 60.1733 16.6872 60.68C16.1805 61.1733 15.9272 61.92 15.9272 62.92V68H12.8072V57.24H15.7872V58.66ZM35.0245 67.48C34.7179 67.7067 34.3379 67.88 33.8845 68C33.4445 68.1067 32.9779 68.16 32.4845 68.16C31.2045 68.16 30.2112 67.8333 29.5045 67.18C28.8112 66.5267 28.4645 65.5667 28.4645 64.3V59.88H26.8045V57.48H28.4645V54.86H31.5845V57.48H34.2645V59.88H31.5845V64.26C31.5845 64.7133 31.6979 65.0667 31.9245 65.32C32.1645 65.56 32.4979 65.68 32.9245 65.68C33.4179 65.68 33.8379 65.5467 34.1845 65.28L35.0245 67.48ZM47.4839 62.66C47.4839 62.7 47.4639 62.98 47.4239 63.5H39.2839C39.4306 64.1667 39.7772 64.6933 40.3239 65.08C40.8706 65.4667 41.5506 65.66 42.3639 65.66C42.9239 65.66 43.4172 65.58 43.8439 65.42C44.2839 65.2467 44.6906 64.98 45.0639 64.62L46.7239 66.42C45.7106 67.58 44.2306 68.16 42.2839 68.16C41.0706 68.16 39.9972 67.9267 39.0639 67.46C38.1306 66.98 37.4106 66.32 36.9039 65.48C36.3972 64.64 36.1439 63.6867 36.1439 62.62C36.1439 61.5667 36.3906 60.62 36.8839 59.78C37.3906 58.9267 38.0772 58.2667 38.9439 57.8C39.8239 57.32 40.8039 57.08 41.8839 57.08C42.9372 57.08 43.8906 57.3067 44.7439 57.76C45.5972 58.2133 46.2639 58.8667 46.7439 59.72C47.2372 60.56 47.4839 61.54 47.4839 62.66ZM41.9039 59.44C41.1972 59.44 40.6039 59.64 40.1239 60.04C39.6439 60.44 39.3506 60.9867 39.2439 61.68H44.5439C44.4372 61 44.1439 60.46 43.6639 60.06C43.1839 59.6467 42.5972 59.44 41.9039 59.44ZM63.8411 57.08C65.1878 57.08 66.2544 57.48 67.0411 58.28C67.8411 59.0667 68.2411 60.2533 68.2411 61.84V68H65.1211V62.32C65.1211 61.4667 64.9411 60.8333 64.5811 60.42C64.2344 59.9933 63.7344 59.78 63.0811 59.78C62.3478 59.78 61.7678 60.02 61.3411 60.5C60.9144 60.9667 60.7011 61.6667 60.7011 62.6V68H57.5811V62.32C57.5811 60.6267 56.9011 59.78 55.5411 59.78C54.8211 59.78 54.2478 60.02 53.8211 60.5C53.3944 60.9667 53.1811 61.6667 53.1811 62.6V68H50.0611V57.24H53.0411V58.48C53.4411 58.0267 53.9278 57.68 54.5011 57.44C55.0878 57.2 55.7278 57.08 56.4211 57.08C57.1811 57.08 57.8678 57.2333 58.4811 57.54C59.0944 57.8333 59.5878 58.2667 59.9611 58.84C60.4011 58.28 60.9544 57.8467 61.6211 57.54C62.3011 57.2333 63.0411 57.08 63.8411 57.08ZM77.8977 57.08C78.8977 57.08 79.8043 57.3133 80.6177 57.78C81.4443 58.2333 82.091 58.88 82.5577 59.72C83.0243 60.5467 83.2577 61.5133 83.2577 62.62C83.2577 63.7267 83.0243 64.7 82.5577 65.54C82.091 66.3667 81.4443 67.0133 80.6177 67.48C79.8043 67.9333 78.8977 68.16 77.8977 68.16C76.5243 68.16 75.4443 67.7267 74.6577 66.86V71.88H71.5377V57.24H74.5177V58.48C75.291 57.5467 76.4177 57.08 77.8977 57.08ZM77.3577 65.6C78.1577 65.6 78.811 65.3333 79.3177 64.8C79.8377 64.2533 80.0977 63.5267 80.0977 62.62C80.0977 61.7133 79.8377 60.9933 79.3177 60.46C78.811 59.9133 78.1577 59.64 77.3577 59.64C76.5577 59.64 75.8977 59.9133 75.3777 60.46C74.871 60.9933 74.6177 61.7133 74.6177 62.62C74.6177 63.5267 74.871 64.2533 75.3777 64.8C75.8977 65.3333 76.5577 65.6 77.3577 65.6ZM90.9663 68.16C89.8329 68.16 88.8129 67.9267 87.9063 67.46C87.0129 66.98 86.3129 66.32 85.8063 65.48C85.2996 64.64 85.0463 63.6867 85.0463 62.62C85.0463 61.5533 85.2996 60.6 85.8063 59.76C86.3129 58.92 87.0129 58.2667 87.9063 57.8C88.8129 57.32 89.8329 57.08 90.9663 57.08C92.0996 57.08 93.1129 57.32 94.0063 57.8C94.8996 58.2667 95.5996 58.92 96.1063 59.76C96.6129 60.6 96.8663 61.5533 96.8663 62.62C96.8663 63.6867 96.6129 64.64 96.1063 65.48C95.5996 66.32 94.8996 66.98 94.0063 67.46C93.1129 67.9267 92.0996 68.16 90.9663 68.16ZM90.9663 65.6C91.7663 65.6 92.4196 65.3333 92.9263 64.8C93.4463 64.2533 93.7063 63.5267 93.7063 62.62C93.7063 61.7133 93.4463 60.9933 92.9263 60.46C92.4196 59.9133 91.7663 59.64 90.9663 59.64C90.1663 59.64 89.5063 59.9133 88.9863 60.46C88.4663 60.9933 88.2063 61.7133 88.2063 62.62C88.2063 63.5267 88.4663 64.2533 88.9863 64.8C89.5063 65.3333 90.1663 65.6 90.9663 65.6ZM102.432 58.66C102.805 58.14 103.305 57.7467 103.932 57.48C104.572 57.2133 105.305 57.08 106.132 57.08V59.96C105.785 59.9333 105.552 59.92 105.432 59.92C104.538 59.92 103.838 60.1733 103.332 60.68C102.825 61.1733 102.572 61.92 102.572 62.92V68H99.4517V57.24H102.432V58.66ZM-52.02 81.08C-50.6867 81.08 -49.6133 81.48 -48.8 82.28C-47.9733 83.08 -47.56 84.2667 -47.56 85.84V92H-50.68V86.32C-50.68 85.4667 -50.8667 84.8333 -51.24 84.42C-51.6133 83.9933 -52.1533 83.78 -52.86 83.78C-53.6467 83.78 -54.2733 84.0267 -54.74 84.52C-55.2067 85 -55.44 85.72 -55.44 86.68V92H-58.56V81.24H-55.58V82.5C-55.1667 82.0467 -54.6533 81.7 -54.04 81.46C-53.4267 81.2067 -52.7533 81.08 -52.02 81.08ZM-33.3919 81.24V92H-36.3519V90.72C-36.7652 91.1867 -37.2585 91.5467 -37.8319 91.8C-38.4052 92.04 -39.0252 92.16 -39.6919 92.16C-41.1052 92.16 -42.2252 91.7533 -43.0519 90.94C-43.8785 90.1267 -44.2919 88.92 -44.2919 87.32V81.24H-41.1719V86.86C-41.1719 88.5933 -40.4452 89.46 -38.9919 89.46C-38.2452 89.46 -37.6452 89.22 -37.1919 88.74C-36.7385 88.2467 -36.5119 87.52 -36.5119 86.56V81.24H-33.3919ZM-30.0014 77.16H-26.8814V92H-30.0014V77.16ZM-23.4858 77.16H-20.3658V92H-23.4858V77.16ZM-12.6302 81.08C-10.9635 81.08 -9.68349 81.48 -8.79016 82.28C-7.89682 83.0667 -7.45016 84.26 -7.45016 85.86V92H-10.3702V90.66C-10.9568 91.66 -12.0502 92.16 -13.6502 92.16C-14.4768 92.16 -15.1968 92.02 -15.8102 91.74C-16.4102 91.46 -16.8702 91.0733 -17.1902 90.58C-17.5102 90.0867 -17.6702 89.5267 -17.6702 88.9C-17.6702 87.9 -17.2968 87.1133 -16.5502 86.54C-15.7902 85.9667 -14.6235 85.68 -13.0502 85.68H-10.5702C-10.5702 85 -10.7768 84.48 -11.1902 84.12C-11.6035 83.7467 -12.2235 83.56 -13.0502 83.56C-13.6235 83.56 -14.1902 83.6533 -14.7502 83.84C-15.2968 84.0133 -15.7635 84.2533 -16.1502 84.56L-17.2702 82.38C-16.6835 81.9667 -15.9835 81.6467 -15.1702 81.42C-14.3435 81.1933 -13.4968 81.08 -12.6302 81.08ZM-12.8702 90.06C-12.3368 90.06 -11.8635 89.94 -11.4502 89.7C-11.0368 89.4467 -10.7435 89.08 -10.5702 88.6V87.5H-12.7102C-13.9902 87.5 -14.6302 87.92 -14.6302 88.76C-14.6302 89.16 -14.4768 89.48 -14.1702 89.72C-13.8502 89.9467 -13.4168 90.06 -12.8702 90.06ZM-2.94641 92.16C-3.49307 92.16 -3.95307 91.9733 -4.32641 91.6C-4.69974 91.2267 -4.88641 90.76 -4.88641 90.2C-4.88641 89.6267 -4.69974 89.1667 -4.32641 88.82C-3.95307 88.46 -3.49307 88.28 -2.94641 88.28C-2.39974 88.28 -1.93974 88.46 -1.56641 88.82C-1.19307 89.1667 -1.00641 89.6267 -1.00641 90.2C-1.00641 90.76 -1.19307 91.2267 -1.56641 91.6C-1.93974 91.9733 -2.39974 92.16 -2.94641 92.16Z" fill="#1C1C1D"/>
<path d="M-158.816 117.8V129H-159.792L-166.992 119.912V129H-168.176V117.8H-167.2L-159.984 126.888V117.8H-158.816ZM-154.9 120.584H-153.764V129H-154.9V120.584ZM-154.324 118.744C-154.559 118.744 -154.756 118.664 -154.916 118.504C-155.076 118.344 -155.156 118.152 -155.156 117.928C-155.156 117.715 -155.076 117.528 -154.916 117.368C-154.756 117.208 -154.559 117.128 -154.324 117.128C-154.09 117.128 -153.892 117.208 -153.732 117.368C-153.572 117.517 -153.492 117.699 -153.492 117.912C-153.492 118.147 -153.572 118.344 -153.732 118.504C-153.892 118.664 -154.09 118.744 -154.324 118.744ZM-147.847 129.08C-148.53 129.08 -149.186 128.984 -149.815 128.792C-150.434 128.589 -150.919 128.339 -151.271 128.04L-150.759 127.144C-150.407 127.421 -149.965 127.651 -149.431 127.832C-148.898 128.003 -148.343 128.088 -147.767 128.088C-146.999 128.088 -146.434 127.971 -146.071 127.736C-145.698 127.491 -145.511 127.149 -145.511 126.712C-145.511 126.403 -145.613 126.163 -145.815 125.992C-146.018 125.811 -146.274 125.677 -146.583 125.592C-146.893 125.496 -147.303 125.405 -147.815 125.32C-148.498 125.192 -149.047 125.064 -149.463 124.936C-149.879 124.797 -150.237 124.568 -150.535 124.248C-150.823 123.928 -150.967 123.485 -150.967 122.92C-150.967 122.216 -150.674 121.64 -150.087 121.192C-149.501 120.744 -148.685 120.52 -147.639 120.52C-147.095 120.52 -146.551 120.595 -146.007 120.744C-145.463 120.883 -145.015 121.069 -144.663 121.304L-145.159 122.216C-145.853 121.736 -146.679 121.496 -147.639 121.496C-148.365 121.496 -148.914 121.624 -149.287 121.88C-149.65 122.136 -149.831 122.472 -149.831 122.888C-149.831 123.208 -149.73 123.464 -149.527 123.656C-149.314 123.848 -149.053 123.992 -148.743 124.088C-148.434 124.173 -148.007 124.264 -147.464 124.36C-146.791 124.488 -146.253 124.616 -145.847 124.744C-145.442 124.872 -145.095 125.091 -144.807 125.4C-144.519 125.709 -144.375 126.136 -144.375 126.68C-144.375 127.416 -144.685 128.003 -145.303 128.44C-145.911 128.867 -146.759 129.08 -147.847 129.08ZM-141.775 120.584H-140.639V129H-141.775V120.584ZM-141.199 118.744C-141.434 118.744 -141.631 118.664 -141.791 118.504C-141.951 118.344 -142.031 118.152 -142.031 117.928C-142.031 117.715 -141.951 117.528 -141.791 117.368C-141.631 117.208 -141.434 117.128 -141.199 117.128C-140.965 117.128 -140.767 117.208 -140.607 117.368C-140.447 117.517 -140.367 117.699 -140.367 117.912C-140.367 118.147 -140.447 118.344 -140.607 118.504C-140.767 118.664 -140.965 118.744 -141.199 118.744ZM-124.707 120.584V129H-125.795V127.464C-126.094 127.976 -126.504 128.376 -127.027 128.664C-127.55 128.941 -128.147 129.08 -128.819 129.08C-129.918 129.08 -130.787 128.776 -131.427 128.168C-132.056 127.549 -132.371 126.648 -132.371 125.464V120.584H-131.235V125.352C-131.235 126.237 -131.016 126.909 -130.579 127.368C-130.142 127.827 -129.518 128.056 -128.707 128.056C-127.822 128.056 -127.123 127.789 -126.611 127.256C-126.099 126.712 -125.843 125.96 -125.843 125V120.584H-124.707ZM-121.025 117.128H-119.889V129H-121.025V117.128ZM-116.228 117.128H-115.092V129H-116.228V117.128ZM-108.488 120.52C-107.389 120.52 -106.546 120.797 -105.96 121.352C-105.373 121.896 -105.08 122.707 -105.08 123.784V129H-106.168V127.688C-106.424 128.125 -106.802 128.467 -107.304 128.712C-107.794 128.957 -108.381 129.08 -109.064 129.08C-110.002 129.08 -110.749 128.856 -111.304 128.408C-111.858 127.96 -112.136 127.368 -112.136 126.632C-112.136 125.917 -111.88 125.341 -111.368 124.904C-110.845 124.467 -110.018 124.248 -108.888 124.248H-106.216V123.736C-106.216 123.011 -106.418 122.461 -106.824 122.088C-107.229 121.704 -107.821 121.512 -108.6 121.512C-109.133 121.512 -109.645 121.603 -110.136 121.784C-110.626 121.955 -111.048 122.195 -111.4 122.504L-111.912 121.656C-111.485 121.293 -110.973 121.016 -110.376 120.824C-109.778 120.621 -109.149 120.52 -108.488 120.52ZM-108.888 128.184C-108.248 128.184 -107.698 128.04 -107.24 127.752C-106.781 127.453 -106.44 127.027 -106.216 126.472V125.096H-108.856C-110.296 125.096 -111.016 125.597 -111.016 126.6C-111.016 127.091 -110.829 127.48 -110.456 127.768C-110.082 128.045 -109.56 128.184 -108.888 128.184ZM-90.9981 120.52C-89.9421 120.52 -89.1155 120.824 -88.5181 121.432C-87.9101 122.04 -87.6061 122.936 -87.6061 124.12V129H-88.7421V124.232C-88.7421 123.357 -88.9555 122.691 -89.3821 122.232C-89.7981 121.773 -90.3901 121.544 -91.1581 121.544C-92.0328 121.544 -92.7208 121.816 -93.2221 122.36C-93.7235 122.893 -93.9741 123.635 -93.9741 124.584V129H-95.1101V124.232C-95.1101 123.357 -95.3235 122.691 -95.7501 122.232C-96.1661 121.773 -96.7635 121.544 -97.5421 121.544C-98.4061 121.544 -99.0941 121.816 -99.6061 122.36C-100.107 122.893 -100.358 123.635 -100.358 124.584V129H-101.494V120.584H-100.406V122.12C-100.107 121.608 -99.6915 121.213 -99.1581 120.936C-98.6248 120.659 -98.0115 120.52 -97.3181 120.52C-96.6141 120.52 -96.0061 120.669 -95.4941 120.968C-94.9715 121.267 -94.5821 121.709 -94.3261 122.296C-94.0168 121.741 -93.5741 121.309 -92.9981 121C-92.4115 120.68 -91.7448 120.52 -90.9981 120.52ZM-80.5061 129.08C-81.3381 129.08 -82.0848 128.899 -82.7461 128.536C-83.3968 128.173 -83.9088 127.667 -84.2821 127.016C-84.6555 126.355 -84.8421 125.613 -84.8421 124.792C-84.8421 123.971 -84.6555 123.235 -84.2821 122.584C-83.9088 121.933 -83.3968 121.427 -82.7461 121.064C-82.0848 120.701 -81.3381 120.52 -80.5061 120.52C-79.7808 120.52 -79.1355 120.664 -78.5701 120.952C-77.9941 121.229 -77.5408 121.64 -77.2101 122.184L-78.0581 122.76C-78.3355 122.344 -78.6875 122.035 -79.1141 121.832C-79.5408 121.619 -80.0048 121.512 -80.5061 121.512C-81.1141 121.512 -81.6635 121.651 -82.1541 121.928C-82.6341 122.195 -83.0128 122.579 -83.2901 123.08C-83.5568 123.581 -83.6901 124.152 -83.6901 124.792C-83.6901 125.443 -83.5568 126.019 -83.2901 126.52C-83.0128 127.011 -82.6341 127.395 -82.1541 127.672C-81.6635 127.939 -81.1141 128.072 -80.5061 128.072C-80.0048 128.072 -79.5408 127.971 -79.1141 127.768C-78.6875 127.565 -78.3355 127.256 -78.0581 126.84L-77.2101 127.416C-77.5408 127.96 -77.9941 128.376 -78.5701 128.664C-79.1461 128.941 -79.7915 129.08 -80.5061 129.08ZM-71.1791 129.08C-71.9898 129.08 -72.7205 128.899 -73.3711 128.536C-74.0218 128.163 -74.5338 127.651 -74.9071 127C-75.2805 126.349 -75.4671 125.613 -75.4671 124.792C-75.4671 123.971 -75.2805 123.235 -74.9071 122.584C-74.5338 121.933 -74.0218 121.427 -73.3711 121.064C-72.7205 120.701 -71.9898 120.52 -71.1791 120.52C-70.3685 120.52 -69.6378 120.701 -68.9871 121.064C-68.3365 121.427 -67.8298 121.933 -67.4671 122.584C-67.0938 123.235 -66.9071 123.971 -66.9071 124.792C-66.9071 125.613 -67.0938 126.349 -67.4671 127C-67.8298 127.651 -68.3365 128.163 -68.9871 128.536C-69.6378 128.899 -70.3685 129.08 -71.1791 129.08ZM-71.1791 128.072C-70.5818 128.072 -70.0485 127.939 -69.5791 127.672C-69.0991 127.395 -68.7258 127.005 -68.4591 126.504C-68.1925 126.003 -68.0591 125.432 -68.0591 124.792C-68.0591 124.152 -68.1925 123.581 -68.4591 123.08C-68.7258 122.579 -69.0991 122.195 -69.5791 121.928C-70.0485 121.651 -70.5818 121.512 -71.1791 121.512C-71.7765 121.512 -72.3151 121.651 -72.7951 121.928C-73.2645 122.195 -73.6378 122.579 -73.9151 123.08C-74.1818 123.581 -74.3151 124.152 -74.3151 124.792C-74.3151 125.432 -74.1818 126.003 -73.9151 126.504C-73.6378 127.005 -73.2645 127.395 -72.7951 127.672C-72.3151 127.939 -71.7765 128.072 -71.1791 128.072ZM-54.9684 128.488C-55.1817 128.68 -55.4484 128.829 -55.7684 128.936C-56.0777 129.032 -56.403 129.08 -56.7444 129.08C-57.5337 129.08 -58.1417 128.867 -58.5684 128.44C-58.995 128.013 -59.2084 127.411 -59.2084 126.632V121.544H-60.7124V120.584H-59.2084V118.744H-58.0724V120.584H-55.5124V121.544H-58.0724V126.568C-58.0724 127.069 -57.9497 127.453 -57.7044 127.72C-57.4484 127.976 -57.0857 128.104 -56.6164 128.104C-56.3817 128.104 -56.1577 128.067 -55.9444 127.992C-55.7204 127.917 -55.5284 127.811 -55.3684 127.672L-54.9684 128.488ZM-45.3692 125.144H-52.4092C-52.3452 126.019 -52.0092 126.728 -51.4012 127.272C-50.7932 127.805 -50.0252 128.072 -49.0972 128.072C-48.5746 128.072 -48.0946 127.981 -47.6572 127.8C-47.2199 127.608 -46.8412 127.331 -46.5212 126.968L-45.8812 127.704C-46.2546 128.152 -46.7239 128.493 -47.2892 128.728C-47.8439 128.963 -48.4572 129.08 -49.1292 129.08C-49.9932 129.08 -50.7612 128.899 -51.4332 128.536C-52.0946 128.163 -52.6119 127.651 -52.9852 127C-53.3586 126.349 -53.5452 125.613 -53.5452 124.792C-53.5452 123.971 -53.3692 123.235 -53.0172 122.584C-52.6546 121.933 -52.1639 121.427 -51.5452 121.064C-50.9159 120.701 -50.2119 120.52 -49.4332 120.52C-48.6546 120.52 -47.9559 120.701 -47.3372 121.064C-46.7186 121.427 -46.2332 121.933 -45.8812 122.584C-45.5292 123.224 -45.3532 123.96 -45.3532 124.792L-45.3692 125.144ZM-49.4332 121.496C-50.2439 121.496 -50.9266 121.757 -51.4812 122.28C-52.0252 122.792 -52.3346 123.464 -52.4092 124.296H-46.4412C-46.5159 123.464 -46.8306 122.792 -47.3852 122.28C-47.9292 121.757 -48.6119 121.496 -49.4332 121.496ZM-32.045 120.52C-30.989 120.52 -30.1623 120.824 -29.565 121.432C-28.957 122.04 -28.653 122.936 -28.653 124.12V129H-29.789V124.232C-29.789 123.357 -30.0023 122.691 -30.429 122.232C-30.845 121.773 -31.437 121.544 -32.205 121.544C-33.0797 121.544 -33.7677 121.816 -34.269 122.36C-34.7703 122.893 -35.021 123.635 -35.021 124.584V129H-36.157V124.232C-36.157 123.357 -36.3703 122.691 -36.797 122.232C-37.213 121.773 -37.8103 121.544 -38.589 121.544C-39.453 121.544 -40.141 121.816 -40.653 122.36C-41.1543 122.893 -41.405 123.635 -41.405 124.584V129H-42.541V120.584H-41.453V122.12C-41.1543 121.608 -40.7383 121.213 -40.205 120.936C-39.6717 120.659 -39.0583 120.52 -38.365 120.52C-37.661 120.52 -37.053 120.669 -36.541 120.968C-36.0183 121.267 -35.629 121.709 -35.373 122.296C-35.0637 121.741 -34.621 121.309 -34.045 121C-33.4583 120.68 -32.7917 120.52 -32.045 120.52ZM-20.7362 120.52C-19.9469 120.52 -19.2322 120.701 -18.5922 121.064C-17.9522 121.416 -17.4509 121.917 -17.0882 122.568C-16.7256 123.219 -16.5442 123.96 -16.5442 124.792C-16.5442 125.635 -16.7256 126.381 -17.0882 127.032C-17.4509 127.683 -17.9522 128.189 -18.5922 128.552C-19.2216 128.904 -19.9362 129.08 -20.7362 129.08C-21.4189 129.08 -22.0376 128.941 -22.5922 128.664C-23.1362 128.376 -23.5842 127.96 -23.9362 127.416V132.104H-25.0722V120.584H-23.9842V122.248C-23.6429 121.693 -23.1949 121.267 -22.6402 120.968C-22.0749 120.669 -21.4402 120.52 -20.7362 120.52ZM-20.8162 128.072C-20.2296 128.072 -19.6962 127.939 -19.2162 127.672C-18.7362 127.395 -18.3629 127.005 -18.0962 126.504C-17.8189 126.003 -17.6802 125.432 -17.6802 124.792C-17.6802 124.152 -17.8189 123.587 -18.0962 123.096C-18.3629 122.595 -18.7362 122.205 -19.2162 121.928C-19.6962 121.651 -20.2296 121.512 -20.8162 121.512C-21.4136 121.512 -21.9522 121.651 -22.4323 121.928C-22.9016 122.205 -23.2749 122.595 -23.5522 123.096C-23.8189 123.587 -23.9522 124.152 -23.9522 124.792C-23.9522 125.432 -23.8189 126.003 -23.5522 126.504C-23.2749 127.005 -22.9016 127.395 -22.4323 127.672C-21.9522 127.939 -21.4136 128.072 -20.8162 128.072ZM-10.2885 129.08C-11.0992 129.08 -11.8298 128.899 -12.4805 128.536C-13.1312 128.163 -13.6432 127.651 -14.0165 127C-14.3898 126.349 -14.5765 125.613 -14.5765 124.792C-14.5765 123.971 -14.3898 123.235 -14.0165 122.584C-13.6432 121.933 -13.1312 121.427 -12.4805 121.064C-11.8298 120.701 -11.0992 120.52 -10.2885 120.52C-9.47783 120.52 -8.74717 120.701 -8.0965 121.064C-7.44583 121.427 -6.93917 121.933 -6.5765 122.584C-6.20317 123.235 -6.0165 123.971 -6.0165 124.792C-6.0165 125.613 -6.20317 126.349 -6.5765 127C-6.93917 127.651 -7.44583 128.163 -8.0965 128.536C-8.74717 128.899 -9.47783 129.08 -10.2885 129.08ZM-10.2885 128.072C-9.69117 128.072 -9.15783 127.939 -8.6885 127.672C-8.2085 127.395 -7.83517 127.005 -7.5685 126.504C-7.30183 126.003 -7.1685 125.432 -7.1685 124.792C-7.1685 124.152 -7.30183 123.581 -7.5685 123.08C-7.83517 122.579 -8.2085 122.195 -8.6885 121.928C-9.15783 121.651 -9.69117 121.512 -10.2885 121.512C-10.8858 121.512 -11.4245 121.651 -11.9045 121.928C-12.3738 122.195 -12.7472 122.579 -13.0245 123.08C-13.2912 123.581 -13.4245 124.152 -13.4245 124.792C-13.4245 125.432 -13.2912 126.003 -13.0245 126.504C-12.7472 127.005 -12.3738 127.395 -11.9045 127.672C-11.4245 127.939 -10.8858 128.072 -10.2885 128.072ZM-2.10925 122.232C-1.84258 121.667 -1.44792 121.24 -0.92525 120.952C-0.391917 120.664 0.264084 120.52 1.04275 120.52V121.624L0.77075 121.608C-0.114583 121.608 -0.807917 121.88 -1.30925 122.424C-1.81058 122.968 -2.06125 123.731 -2.06125 124.712V129H-3.19725V120.584H-2.10925V122.232ZM12.8441 128.488C12.6308 128.68 12.3641 128.829 12.0441 128.936C11.7348 129.032 11.4095 129.08 11.0681 129.08C10.2788 129.08 9.67079 128.867 9.24413 128.44C8.81746 128.013 8.60413 127.411 8.60413 126.632V121.544H7.10013V120.584H8.60413V118.744H9.74013V120.584H12.3001V121.544H9.74013V126.568C9.74013 127.069 9.86279 127.453 10.1081 127.72C10.3641 127.976 10.7268 128.104 11.1961 128.104C11.4308 128.104 11.6548 128.067 11.8681 127.992C12.0921 127.917 12.2841 127.811 12.4441 127.672L12.8441 128.488ZM22.4433 125.144H15.4033C15.4673 126.019 15.8033 126.728 16.4113 127.272C17.0193 127.805 17.7873 128.072 18.7153 128.072C19.2379 128.072 19.7179 127.981 20.1553 127.8C20.5926 127.608 20.9713 127.331 21.2913 126.968L21.9313 127.704C21.5579 128.152 21.0886 128.493 20.5233 128.728C19.9686 128.963 19.3553 129.08 18.6833 129.08C17.8193 129.08 17.0513 128.899 16.3793 128.536C15.7179 128.163 15.2006 127.651 14.8273 127C14.4539 126.349 14.2673 125.613 14.2673 124.792C14.2673 123.971 14.4433 123.235 14.7953 122.584C15.1579 121.933 15.6486 121.427 16.2673 121.064C16.8966 120.701 17.6006 120.52 18.3793 120.52C19.1579 120.52 19.8566 120.701 20.4753 121.064C21.0939 121.427 21.5793 121.933 21.9313 122.584C22.2833 123.224 22.4593 123.96 22.4593 124.792L22.4433 125.144ZM18.3793 121.496C17.5686 121.496 16.8859 121.757 16.3313 122.28C15.7873 122.792 15.4779 123.464 15.4033 124.296H21.3713C21.2966 123.464 20.9819 122.792 20.4273 122.28C19.8833 121.757 19.2006 121.496 18.3793 121.496ZM35.7675 120.52C36.8235 120.52 37.6502 120.824 38.2475 121.432C38.8555 122.04 39.1595 122.936 39.1595 124.12V129H38.0235V124.232C38.0235 123.357 37.8102 122.691 37.3835 122.232C36.9675 121.773 36.3755 121.544 35.6075 121.544C34.7328 121.544 34.0448 121.816 33.5435 122.36C33.0422 122.893 32.7915 123.635 32.7915 124.584V129H31.6555V124.232C31.6555 123.357 31.4422 122.691 31.0155 122.232C30.5995 121.773 30.0022 121.544 29.2235 121.544C28.3595 121.544 27.6715 121.816 27.1595 122.36C26.6582 122.893 26.4075 123.635 26.4075 124.584V129H25.2715V120.584H26.3595V122.12C26.6582 121.608 27.0742 121.213 27.6075 120.936C28.1408 120.659 28.7542 120.52 29.4475 120.52C30.1515 120.52 30.7595 120.669 31.2715 120.968C31.7942 121.267 32.1835 121.709 32.4395 122.296C32.7488 121.741 33.1915 121.309 33.7675 121C34.3542 120.68 35.0208 120.52 35.7675 120.52ZM47.0763 120.52C47.8656 120.52 48.5803 120.701 49.2203 121.064C49.8603 121.416 50.3616 121.917 50.7243 122.568C51.0869 123.219 51.2683 123.96 51.2683 124.792C51.2683 125.635 51.0869 126.381 50.7243 127.032C50.3616 127.683 49.8603 128.189 49.2203 128.552C48.5909 128.904 47.8763 129.08 47.0763 129.08C46.3936 129.08 45.7749 128.941 45.2203 128.664C44.6763 128.376 44.2283 127.96 43.8763 127.416V132.104H42.7403V120.584H43.8283V122.248C44.1696 121.693 44.6176 121.267 45.1723 120.968C45.7376 120.669 46.3723 120.52 47.0763 120.52ZM46.9963 128.072C47.5829 128.072 48.1163 127.939 48.5963 127.672C49.0763 127.395 49.4496 127.005 49.7163 126.504C49.9936 126.003 50.1323 125.432 50.1323 124.792C50.1323 124.152 49.9936 123.587 49.7163 123.096C49.4496 122.595 49.0763 122.205 48.5963 121.928C48.1163 121.651 47.5829 121.512 46.9963 121.512C46.3989 121.512 45.8603 121.651 45.3802 121.928C44.9109 122.205 44.5376 122.595 44.2603 123.096C43.9936 123.587 43.8603 124.152 43.8603 124.792C43.8603 125.432 43.9936 126.003 44.2603 126.504C44.5376 127.005 44.9109 127.395 45.3802 127.672C45.8603 127.939 46.3989 128.072 46.9963 128.072ZM57.524 129.08C56.7133 129.08 55.9827 128.899 55.332 128.536C54.6813 128.163 54.1693 127.651 53.796 127C53.4227 126.349 53.236 125.613 53.236 124.792C53.236 123.971 53.4227 123.235 53.796 122.584C54.1693 121.933 54.6813 121.427 55.332 121.064C55.9827 120.701 56.7133 120.52 57.524 120.52C58.3347 120.52 59.0653 120.701 59.716 121.064C60.3667 121.427 60.8733 121.933 61.236 122.584C61.6093 123.235 61.796 123.971 61.796 124.792C61.796 125.613 61.6093 126.349 61.236 127C60.8733 127.651 60.3667 128.163 59.716 128.536C59.0653 128.899 58.3347 129.08 57.524 129.08ZM57.524 128.072C58.1213 128.072 58.6547 127.939 59.124 127.672C59.604 127.395 59.9773 127.005 60.244 126.504C60.5107 126.003 60.644 125.432 60.644 124.792C60.644 124.152 60.5107 123.581 60.244 123.08C59.9773 122.579 59.604 122.195 59.124 121.928C58.6547 121.651 58.1213 121.512 57.524 121.512C56.9267 121.512 56.388 121.651 55.908 121.928C55.4387 122.195 55.0653 122.579 54.788 123.08C54.5213 123.581 54.388 124.152 54.388 124.792C54.388 125.432 54.5213 126.003 54.788 126.504C55.0653 127.005 55.4387 127.395 55.908 127.672C56.388 127.939 56.9267 128.072 57.524 128.072ZM65.7033 122.232C65.9699 121.667 66.3646 121.24 66.8873 120.952C67.4206 120.664 68.0766 120.52 68.8553 120.52V121.624L68.5833 121.608C67.6979 121.608 67.0046 121.88 66.5033 122.424C66.0019 122.968 65.7513 123.731 65.7513 124.712V129H64.6153V120.584H65.7033V122.232ZM80.5126 120.52C81.5686 120.52 82.406 120.829 83.0246 121.448C83.654 122.056 83.9686 122.947 83.9686 124.12V129H82.8326V124.232C82.8326 123.357 82.614 122.691 82.1766 122.232C81.7393 121.773 81.1153 121.544 80.3046 121.544C79.398 121.544 78.678 121.816 78.1446 122.36C77.622 122.893 77.3606 123.635 77.3606 124.584V129H76.2246V120.584H77.3126V122.136C77.622 121.624 78.0486 121.229 78.5926 120.952C79.1473 120.664 79.7873 120.52 80.5126 120.52ZM95.1368 120.584V129H94.0487V127.464C93.7501 127.976 93.3394 128.376 92.8168 128.664C92.2941 128.941 91.6968 129.08 91.0248 129.08C89.9261 129.08 89.0568 128.776 88.4168 128.168C87.7874 127.549 87.4728 126.648 87.4728 125.464V120.584H88.6088V125.352C88.6088 126.237 88.8274 126.909 89.2648 127.368C89.7021 127.827 90.3261 128.056 91.1368 128.056C92.0221 128.056 92.7208 127.789 93.2328 127.256C93.7448 126.712 94.0008 125.96 94.0008 125V120.584H95.1368ZM98.8184 117.128H99.9544V129H98.8184V117.128ZM103.615 117.128H104.751V129H103.615V117.128ZM111.356 120.52C112.455 120.52 113.297 120.797 113.884 121.352C114.471 121.896 114.764 122.707 114.764 123.784V129H113.676V127.688C113.42 128.125 113.041 128.467 112.54 128.712C112.049 128.957 111.463 129.08 110.78 129.08C109.841 129.08 109.095 128.856 108.54 128.408C107.985 127.96 107.708 127.368 107.708 126.632C107.708 125.917 107.964 125.341 108.476 124.904C108.999 124.467 109.825 124.248 110.956 124.248H113.628V123.736C113.628 123.011 113.425 122.461 113.02 122.088C112.615 121.704 112.023 121.512 111.244 121.512C110.711 121.512 110.199 121.603 109.708 121.784C109.217 121.955 108.796 122.195 108.444 122.504L107.932 121.656C108.359 121.293 108.871 121.016 109.468 120.824C110.065 120.621 110.695 120.52 111.356 120.52ZM110.956 128.184C111.596 128.184 112.145 128.04 112.604 127.752C113.063 127.453 113.404 127.027 113.628 126.472V125.096H110.988C109.548 125.096 108.828 125.597 108.828 126.6C108.828 127.091 109.015 127.48 109.388 127.768C109.761 128.045 110.284 128.184 110.956 128.184ZM-168.416 137.128H-167.28V149H-168.416V137.128ZM-160.675 140.52C-159.576 140.52 -158.734 140.797 -158.147 141.352C-157.56 141.896 -157.267 142.707 -157.267 143.784V149H-158.355V147.688C-158.611 148.125 -158.99 148.467 -159.491 148.712C-159.982 148.957 -160.568 149.08 -161.251 149.08C-162.19 149.08 -162.936 148.856 -163.491 148.408C-164.046 147.96 -164.323 147.368 -164.323 146.632C-164.323 145.917 -164.067 145.341 -163.555 144.904C-163.032 144.467 -162.206 144.248 -161.075 144.248H-158.403V143.736C-158.403 143.011 -158.606 142.461 -159.011 142.088C-159.416 141.704 -160.008 141.512 -160.787 141.512C-161.32 141.512 -161.832 141.603 -162.323 141.784C-162.814 141.955 -163.235 142.195 -163.587 142.504L-164.099 141.656C-163.672 141.293 -163.16 141.016 -162.563 140.824C-161.966 140.621 -161.336 140.52 -160.675 140.52ZM-161.075 148.184C-160.435 148.184 -159.886 148.04 -159.427 147.752C-158.968 147.453 -158.627 147.027 -158.403 146.472V145.096H-161.043C-162.483 145.096 -163.203 145.597 -163.203 146.6C-163.203 147.091 -163.016 147.48 -162.643 147.768C-162.27 148.045 -161.747 148.184 -161.075 148.184ZM-149.346 140.52C-148.556 140.52 -147.842 140.701 -147.202 141.064C-146.562 141.416 -146.06 141.917 -145.698 142.568C-145.335 143.219 -145.154 143.96 -145.154 144.792C-145.154 145.624 -145.335 146.365 -145.698 147.016C-146.06 147.667 -146.562 148.173 -147.202 148.536C-147.842 148.899 -148.556 149.08 -149.346 149.08C-150.05 149.08 -150.684 148.931 -151.25 148.632C-151.804 148.333 -152.252 147.901 -152.594 147.336V149H-153.682V137.128H-152.546V142.184C-152.194 141.64 -151.746 141.229 -151.202 140.952C-150.647 140.664 -150.028 140.52 -149.346 140.52ZM-149.426 148.072C-148.839 148.072 -148.306 147.939 -147.826 147.672C-147.346 147.395 -146.972 147.005 -146.706 146.504C-146.428 146.003 -146.29 145.432 -146.29 144.792C-146.29 144.152 -146.428 143.581 -146.706 143.08C-146.972 142.579 -147.346 142.195 -147.826 141.928C-148.306 141.651 -148.839 141.512 -149.426 141.512C-150.023 141.512 -150.562 141.651 -151.042 141.928C-151.511 142.195 -151.884 142.579 -152.162 143.08C-152.428 143.581 -152.562 144.152 -152.562 144.792C-152.562 145.432 -152.428 146.003 -152.162 146.504C-151.884 147.005 -151.511 147.395 -151.042 147.672C-150.562 147.939 -150.023 148.072 -149.426 148.072ZM-138.898 149.08C-139.709 149.08 -140.439 148.899 -141.09 148.536C-141.741 148.163 -142.253 147.651 -142.626 147C-142.999 146.349 -143.186 145.613 -143.186 144.792C-143.186 143.971 -142.999 143.235 -142.626 142.584C-142.253 141.933 -141.741 141.427 -141.09 141.064C-140.439 140.701 -139.709 140.52 -138.898 140.52C-138.087 140.52 -137.357 140.701 -136.706 141.064C-136.055 141.427 -135.549 141.933 -135.186 142.584C-134.813 143.235 -134.626 143.971 -134.626 144.792C-134.626 145.613 -134.813 146.349 -135.186 147C-135.549 147.651 -136.055 148.163 -136.706 148.536C-137.357 148.899 -138.087 149.08 -138.898 149.08ZM-138.898 148.072C-138.301 148.072 -137.767 147.939 -137.298 147.672C-136.818 147.395 -136.445 147.005 -136.178 146.504C-135.911 146.003 -135.778 145.432 -135.778 144.792C-135.778 144.152 -135.911 143.581 -136.178 143.08C-136.445 142.579 -136.818 142.195 -137.298 141.928C-137.767 141.651 -138.301 141.512 -138.898 141.512C-139.495 141.512 -140.034 141.651 -140.514 141.928C-140.983 142.195 -141.357 142.579 -141.634 143.08C-141.901 143.581 -142.034 144.152 -142.034 144.792C-142.034 145.432 -141.901 146.003 -141.634 146.504C-141.357 147.005 -140.983 147.395 -140.514 147.672C-140.034 147.939 -139.495 148.072 -138.898 148.072ZM-130.719 142.232C-130.452 141.667 -130.057 141.24 -129.535 140.952C-129.001 140.664 -128.345 140.52 -127.567 140.52V141.624L-127.839 141.608C-128.724 141.608 -129.417 141.88 -129.919 142.424C-130.42 142.968 -130.671 143.731 -130.671 144.712V149H-131.807V140.584H-130.719V142.232ZM-117.76 145.144H-124.8C-124.736 146.019 -124.4 146.728 -123.792 147.272C-123.184 147.805 -122.416 148.072 -121.488 148.072C-120.965 148.072 -120.485 147.981 -120.048 147.8C-119.611 147.608 -119.232 147.331 -118.912 146.968L-118.272 147.704C-118.645 148.152 -119.115 148.493 -119.68 148.728C-120.235 148.963 -120.848 149.08 -121.52 149.08C-122.384 149.08 -123.152 148.899 -123.824 148.536C-124.485 148.163 -125.003 147.651 -125.376 147C-125.749 146.349 -125.936 145.613 -125.936 144.792C-125.936 143.971 -125.76 143.235 -125.408 142.584C-125.045 141.933 -124.555 141.427 -123.936 141.064C-123.307 140.701 -122.603 140.52 -121.824 140.52C-121.045 140.52 -120.347 140.701 -119.728 141.064C-119.109 141.427 -118.624 141.933 -118.272 142.584C-117.92 143.224 -117.744 143.96 -117.744 144.792L-117.76 145.144ZM-121.824 141.496C-122.635 141.496 -123.317 141.757 -123.872 142.28C-124.416 142.792 -124.725 143.464 -124.8 144.296H-118.832C-118.907 143.464 -119.221 142.792 -119.776 142.28C-120.32 141.757 -121.003 141.496 -121.824 141.496ZM-107.3 140.52C-106.201 140.52 -105.359 140.797 -104.772 141.352C-104.185 141.896 -103.892 142.707 -103.892 143.784V149H-104.98V147.688C-105.236 148.125 -105.615 148.467 -106.116 148.712C-106.607 148.957 -107.193 149.08 -107.876 149.08C-108.815 149.08 -109.561 148.856 -110.116 148.408C-110.671 147.96 -110.948 147.368 -110.948 146.632C-110.948 145.917 -110.692 145.341 -110.18 144.904C-109.657 144.467 -108.831 144.248 -107.7 144.248H-105.028V143.736C-105.028 143.011 -105.231 142.461 -105.636 142.088C-106.041 141.704 -106.633 141.512 -107.412 141.512C-107.945 141.512 -108.457 141.603 -108.948 141.784C-109.439 141.955 -109.86 142.195 -110.212 142.504L-110.724 141.656C-110.297 141.293 -109.785 141.016 -109.188 140.824C-108.591 140.621 -107.961 140.52 -107.3 140.52ZM-107.7 148.184C-107.06 148.184 -106.511 148.04 -106.052 147.752C-105.593 147.453 -105.252 147.027 -105.028 146.472V145.096H-107.668C-109.108 145.096 -109.828 145.597 -109.828 146.6C-109.828 147.091 -109.641 147.48 -109.268 147.768C-108.895 148.045 -108.372 148.184 -107.7 148.184ZM-92.5954 137.128V149H-93.6834V147.336C-94.0247 147.901 -94.478 148.333 -95.0434 148.632C-95.598 148.931 -96.2274 149.08 -96.9314 149.08C-97.7207 149.08 -98.4354 148.899 -99.0754 148.536C-99.7154 148.173 -100.217 147.667 -100.579 147.016C-100.942 146.365 -101.123 145.624 -101.123 144.792C-101.123 143.96 -100.942 143.219 -100.579 142.568C-100.217 141.917 -99.7154 141.416 -99.0754 141.064C-98.4354 140.701 -97.7207 140.52 -96.9314 140.52C-96.2487 140.52 -95.6354 140.664 -95.0914 140.952C-94.5367 141.229 -94.0834 141.64 -93.7314 142.184V137.128H-92.5954ZM-96.8354 148.072C-96.2487 148.072 -95.7207 147.939 -95.2514 147.672C-94.7714 147.395 -94.398 147.005 -94.1314 146.504C-93.854 146.003 -93.7154 145.432 -93.7154 144.792C-93.7154 144.152 -93.854 143.581 -94.1314 143.08C-94.398 142.579 -94.7714 142.195 -95.2514 141.928C-95.7207 141.651 -96.2487 141.512 -96.8354 141.512C-97.4327 141.512 -97.9714 141.651 -98.4514 141.928C-98.9207 142.195 -99.294 142.579 -99.5714 143.08C-99.838 143.581 -99.9714 144.152 -99.9714 144.792C-99.9714 145.432 -99.838 146.003 -99.5714 146.504C-99.294 147.005 -98.9207 147.395 -98.4514 147.672C-97.9714 147.939 -97.4327 148.072 -96.8354 148.072ZM-84.2441 137.128H-83.1081V149H-84.2441V137.128ZM-76.5032 140.52C-75.4046 140.52 -74.5619 140.797 -73.9752 141.352C-73.3886 141.896 -73.0952 142.707 -73.0952 143.784V149H-74.1832V147.688C-74.4392 148.125 -74.8179 148.467 -75.3192 148.712C-75.8099 148.957 -76.3966 149.08 -77.0792 149.08C-78.0179 149.08 -78.7646 148.856 -79.3192 148.408C-79.8739 147.96 -80.1512 147.368 -80.1512 146.632C-80.1512 145.917 -79.8952 145.341 -79.3832 144.904C-78.8606 144.467 -78.0339 144.248 -76.9032 144.248H-74.2312V143.736C-74.2312 143.011 -74.4339 142.461 -74.8392 142.088C-75.2446 141.704 -75.8366 141.512 -76.6152 141.512C-77.1486 141.512 -77.6606 141.603 -78.1512 141.784C-78.6419 141.955 -79.0632 142.195 -79.4152 142.504L-79.9272 141.656C-79.5006 141.293 -78.9886 141.016 -78.3912 140.824C-77.7939 140.621 -77.1646 140.52 -76.5032 140.52ZM-76.9032 148.184C-76.2632 148.184 -75.7139 148.04 -75.2552 147.752C-74.7966 147.453 -74.4552 147.027 -74.2312 146.472V145.096H-76.8712C-78.3112 145.096 -79.0312 145.597 -79.0312 146.6C-79.0312 147.091 -78.8446 147.48 -78.4712 147.768C-78.0979 148.045 -77.5752 148.184 -76.9032 148.184ZM-65.1737 140.52C-64.3844 140.52 -63.6697 140.701 -63.0297 141.064C-62.3897 141.416 -61.8884 141.917 -61.5257 142.568C-61.1631 143.219 -60.9817 143.96 -60.9817 144.792C-60.9817 145.624 -61.1631 146.365 -61.5257 147.016C-61.8884 147.667 -62.3897 148.173 -63.0297 148.536C-63.6697 148.899 -64.3844 149.08 -65.1737 149.08C-65.8777 149.08 -66.5124 148.931 -67.0777 148.632C-67.6324 148.333 -68.0804 147.901 -68.4217 147.336V149H-69.5097V137.128H-68.3737V142.184C-68.0217 141.64 -67.5737 141.229 -67.0297 140.952C-66.4751 140.664 -65.8564 140.52 -65.1737 140.52ZM-65.2537 148.072C-64.6671 148.072 -64.1337 147.939 -63.6537 147.672C-63.1737 147.395 -62.8004 147.005 -62.5337 146.504C-62.2564 146.003 -62.1177 145.432 -62.1177 144.792C-62.1177 144.152 -62.2564 143.581 -62.5337 143.08C-62.8004 142.579 -63.1737 142.195 -63.6537 141.928C-64.1337 141.651 -64.6671 141.512 -65.2537 141.512C-65.8511 141.512 -66.3897 141.651 -66.8698 141.928C-67.3391 142.195 -67.7124 142.579 -67.9897 143.08C-68.2564 143.581 -68.3897 144.152 -68.3897 144.792C-68.3897 145.432 -68.2564 146.003 -67.9897 146.504C-67.7124 147.005 -67.3391 147.395 -66.8698 147.672C-66.3897 147.939 -65.8511 148.072 -65.2537 148.072ZM-54.726 149.08C-55.5367 149.08 -56.2673 148.899 -56.918 148.536C-57.5687 148.163 -58.0807 147.651 -58.454 147C-58.8273 146.349 -59.014 145.613 -59.014 144.792C-59.014 143.971 -58.8273 143.235 -58.454 142.584C-58.0807 141.933 -57.5687 141.427 -56.918 141.064C-56.2673 140.701 -55.5367 140.52 -54.726 140.52C-53.9153 140.52 -53.1847 140.701 -52.534 141.064C-51.8833 141.427 -51.3767 141.933 -51.014 142.584C-50.6407 143.235 -50.454 143.971 -50.454 144.792C-50.454 145.613 -50.6407 146.349 -51.014 147C-51.3767 147.651 -51.8833 148.163 -52.534 148.536C-53.1847 148.899 -53.9153 149.08 -54.726 149.08ZM-54.726 148.072C-54.1287 148.072 -53.5953 147.939 -53.126 147.672C-52.646 147.395 -52.2727 147.005 -52.006 146.504C-51.7393 146.003 -51.606 145.432 -51.606 144.792C-51.606 144.152 -51.7393 143.581 -52.006 143.08C-52.2727 142.579 -52.646 142.195 -53.126 141.928C-53.5953 141.651 -54.1287 141.512 -54.726 141.512C-55.3233 141.512 -55.862 141.651 -56.342 141.928C-56.8113 142.195 -57.1847 142.579 -57.462 143.08C-57.7287 143.581 -57.862 144.152 -57.862 144.792C-57.862 145.432 -57.7287 146.003 -57.462 146.504C-57.1847 147.005 -56.8113 147.395 -56.342 147.672C-55.862 147.939 -55.3233 148.072 -54.726 148.072ZM-46.5467 142.232C-46.2801 141.667 -45.8854 141.24 -45.3627 140.952C-44.8294 140.664 -44.1734 140.52 -43.3947 140.52V141.624L-43.6667 141.608C-44.5521 141.608 -45.2454 141.88 -45.7467 142.424C-46.2481 142.968 -46.4987 143.731 -46.4987 144.712V149H-47.6347V140.584H-46.5467V142.232ZM-33.588 145.144H-40.628C-40.564 146.019 -40.228 146.728 -39.62 147.272C-39.012 147.805 -38.244 148.072 -37.316 148.072C-36.7933 148.072 -36.3133 147.981 -35.876 147.8C-35.4387 147.608 -35.06 147.331 -34.74 146.968L-34.1 147.704C-34.4733 148.152 -34.9427 148.493 -35.508 148.728C-36.0627 148.963 -36.676 149.08 -37.348 149.08C-38.212 149.08 -38.98 148.899 -39.652 148.536C-40.3133 148.163 -40.8307 147.651 -41.204 147C-41.5773 146.349 -41.764 145.613 -41.764 144.792C-41.764 143.971 -41.588 143.235 -41.236 142.584C-40.8733 141.933 -40.3827 141.427 -39.764 141.064C-39.1347 140.701 -38.4307 140.52 -37.652 140.52C-36.8733 140.52 -36.1747 140.701 -35.556 141.064C-34.9373 141.427 -34.452 141.933 -34.1 142.584C-33.748 143.224 -33.572 143.96 -33.572 144.792L-33.588 145.144ZM-37.652 141.496C-38.4627 141.496 -39.1453 141.757 -39.7 142.28C-40.244 142.792 -40.5533 143.464 -40.628 144.296H-34.66C-34.7347 143.464 -35.0493 142.792 -35.604 142.28C-36.148 141.757 -36.8307 141.496 -37.652 141.496ZM-23.8162 149.08C-24.4989 149.08 -25.1549 148.984 -25.7842 148.792C-26.4029 148.589 -26.8882 148.339 -27.2402 148.04L-26.7282 147.144C-26.3762 147.421 -25.9336 147.651 -25.4002 147.832C-24.8669 148.003 -24.3122 148.088 -23.7362 148.088C-22.9682 148.088 -22.4029 147.971 -22.0402 147.736C-21.6669 147.491 -21.4802 147.149 -21.4802 146.712C-21.4802 146.403 -21.5816 146.163 -21.7842 145.992C-21.9869 145.811 -22.2429 145.677 -22.5522 145.592C-22.8616 145.496 -23.2722 145.405 -23.7842 145.32C-24.4669 145.192 -25.0162 145.064 -25.4322 144.936C-25.8482 144.797 -26.2056 144.568 -26.5042 144.248C-26.7922 143.928 -26.9362 143.485 -26.9362 142.92C-26.9362 142.216 -26.6429 141.64 -26.0562 141.192C-25.4696 140.744 -24.6536 140.52 -23.6082 140.52C-23.0642 140.52 -22.5202 140.595 -21.9762 140.744C-21.4322 140.883 -20.9842 141.069 -20.6322 141.304L-21.1282 142.216C-21.8216 141.736 -22.6482 141.496 -23.6082 141.496C-24.3336 141.496 -24.8829 141.624 -25.2562 141.88C-25.6189 142.136 -25.8002 142.472 -25.8002 142.888C-25.8002 143.208 -25.6989 143.464 -25.4962 143.656C-25.2829 143.848 -25.0216 143.992 -24.7122 144.088C-24.4029 144.173 -23.9762 144.264 -23.4323 144.36C-22.7602 144.488 -22.2216 144.616 -21.8162 144.744C-21.4109 144.872 -21.0642 145.091 -20.7762 145.4C-20.4882 145.709 -20.3442 146.136 -20.3442 146.68C-20.3442 147.416 -20.6536 148.003 -21.2722 148.44C-21.8802 148.867 -22.7282 149.08 -23.8162 149.08ZM-17.7441 140.584H-16.6081V149H-17.7441V140.584ZM-17.1681 138.744C-17.4028 138.744 -17.6001 138.664 -17.7601 138.504C-17.9201 138.344 -18.0001 138.152 -18.0001 137.928C-18.0001 137.715 -17.9201 137.528 -17.7601 137.368C-17.6001 137.208 -17.4028 137.128 -17.1681 137.128C-16.9335 137.128 -16.7361 137.208 -16.5761 137.368C-16.4161 137.517 -16.3361 137.699 -16.3361 137.912C-16.3361 138.147 -16.4161 138.344 -16.5761 138.504C-16.7361 138.664 -16.9335 138.744 -17.1681 138.744ZM-8.51525 148.488C-8.72858 148.68 -8.99525 148.829 -9.31525 148.936C-9.62458 149.032 -9.94992 149.08 -10.2912 149.08C-11.0806 149.08 -11.6886 148.867 -12.1152 148.44C-12.5419 148.013 -12.7552 147.411 -12.7552 146.632V141.544H-14.2592V140.584H-12.7552V138.744H-11.6192V140.584H-9.05925V141.544H-11.6192V146.568C-11.6192 147.069 -11.4966 147.453 -11.2512 147.72C-10.9952 147.976 -10.6326 148.104 -10.1632 148.104C-9.92858 148.104 -9.70458 148.067 -9.49125 147.992C-9.26725 147.917 -9.07525 147.811 -8.91525 147.672L-8.51525 148.488ZM6.06825 145.144H-0.97175C-0.90775 146.019 -0.57175 146.728 0.0362501 147.272C0.64425 147.805 1.41225 148.072 2.34025 148.072C2.86292 148.072 3.34292 147.981 3.78025 147.8C4.21758 147.608 4.59625 147.331 4.91625 146.968L5.55625 147.704C5.18292 148.152 4.71358 148.493 4.14825 148.728C3.59358 148.963 2.98025 149.08 2.30825 149.08C1.44425 149.08 0.67625 148.899 0.00425005 148.536C-0.657083 148.163 -1.17442 147.651 -1.54775 147C-1.92108 146.349 -2.10775 145.613 -2.10775 144.792C-2.10775 143.971 -1.93175 143.235 -1.57975 142.584C-1.21708 141.933 -0.726417 141.427 -0.10775 141.064C0.521583 140.701 1.22558 140.52 2.00425 140.52C2.78292 140.52 3.48158 140.701 4.10025 141.064C4.71892 141.427 5.20425 141.933 5.55625 142.584C5.90825 143.224 6.08425 143.96 6.08425 144.792L6.06825 145.144ZM2.00425 141.496C1.19358 141.496 0.510917 141.757 -0.0437498 142.28C-0.58775 142.792 -0.897083 143.464 -0.97175 144.296H4.99625C4.92158 143.464 4.60692 142.792 4.05225 142.28C3.50825 141.757 2.82558 141.496 2.00425 141.496ZM16.4805 140.584V149H15.3925V147.464C15.0938 147.976 14.6832 148.376 14.1605 148.664C13.6378 148.941 13.0405 149.08 12.3685 149.08C11.2698 149.08 10.4005 148.776 9.7605 148.168C9.13117 147.549 8.8165 146.648 8.8165 145.464V140.584H9.9525V145.352C9.9525 146.237 10.1712 146.909 10.6085 147.368C11.0458 147.827 11.6698 148.056 12.4805 148.056C13.3658 148.056 14.0645 147.789 14.5765 147.256C15.0885 146.712 15.3445 145.96 15.3445 145V140.584H16.4805ZM32.5296 137.128V149H31.4416V147.336C31.1003 147.901 30.647 148.333 30.0816 148.632C29.527 148.931 28.8976 149.08 28.1936 149.08C27.4043 149.08 26.6896 148.899 26.0496 148.536C25.4096 148.173 24.9083 147.667 24.5456 147.016C24.183 146.365 24.0016 145.624 24.0016 144.792C24.0016 143.96 24.183 143.219 24.5456 142.568C24.9083 141.917 25.4096 141.416 26.0496 141.064C26.6896 140.701 27.4043 140.52 28.1936 140.52C28.8763 140.52 29.4896 140.664 30.0336 140.952C30.5883 141.229 31.0416 141.64 31.3936 142.184V137.128H32.5296ZM28.2896 148.072C28.8763 148.072 29.4043 147.939 29.8736 147.672C30.3536 147.395 30.727 147.005 30.9936 146.504C31.271 146.003 31.4096 145.432 31.4096 144.792C31.4096 144.152 31.271 143.581 30.9936 143.08C30.727 142.579 30.3536 142.195 29.8736 141.928C29.4043 141.651 28.8763 141.512 28.2896 141.512C27.6923 141.512 27.1536 141.651 26.6736 141.928C26.2043 142.195 25.831 142.579 25.5536 143.08C25.287 143.581 25.1536 144.152 25.1536 144.792C25.1536 145.432 25.287 146.003 25.5536 146.504C25.831 147.005 26.2043 147.395 26.6736 147.672C27.1536 147.939 27.6923 148.072 28.2896 148.072ZM43.7774 140.584V149H42.6894V147.464C42.3907 147.976 41.98 148.376 41.4574 148.664C40.9347 148.941 40.3374 149.08 39.6654 149.08C38.5667 149.08 37.6974 148.776 37.0574 148.168C36.428 147.549 36.1134 146.648 36.1134 145.464V140.584H37.2494V145.352C37.2494 146.237 37.468 146.909 37.9054 147.368C38.3427 147.827 38.9667 148.056 39.7774 148.056C40.6627 148.056 41.3614 147.789 41.8734 147.256C42.3854 146.712 42.6414 145.96 42.6414 145V140.584H43.7774ZM47.459 140.584H48.595V149H47.459V140.584ZM48.035 138.744C47.8003 138.744 47.603 138.664 47.443 138.504C47.283 138.344 47.203 138.152 47.203 137.928C47.203 137.715 47.283 137.528 47.443 137.368C47.603 137.208 47.8003 137.128 48.035 137.128C48.2697 137.128 48.467 137.208 48.627 137.368C48.787 137.517 48.867 137.699 48.867 137.912C48.867 138.147 48.787 138.344 48.627 138.504C48.467 138.664 48.2697 138.744 48.035 138.744ZM54.5119 149.08C53.8292 149.08 53.1732 148.984 52.5439 148.792C51.9252 148.589 51.4399 148.339 51.0879 148.04L51.5999 147.144C51.9519 147.421 52.3945 147.651 52.9279 147.832C53.4612 148.003 54.0159 148.088 54.5919 148.088C55.3599 148.088 55.9252 147.971 56.2879 147.736C56.6612 147.491 56.8479 147.149 56.8479 146.712C56.8479 146.403 56.7465 146.163 56.5439 145.992C56.3412 145.811 56.0852 145.677 55.7759 145.592C55.4665 145.496 55.0559 145.405 54.5439 145.32C53.8612 145.192 53.3119 145.064 52.8959 144.936C52.4799 144.797 52.1225 144.568 51.8239 144.248C51.5359 143.928 51.3919 143.485 51.3919 142.92C51.3919 142.216 51.6852 141.64 52.2719 141.192C52.8585 140.744 53.6745 140.52 54.7199 140.52C55.2639 140.52 55.8079 140.595 56.3519 140.744C56.8959 140.883 57.3439 141.069 57.6959 141.304L57.1999 142.216C56.5065 141.736 55.6799 141.496 54.7199 141.496C53.9945 141.496 53.4452 141.624 53.0719 141.88C52.7092 142.136 52.5279 142.472 52.5279 142.888C52.5279 143.208 52.6292 143.464 52.8319 143.656C53.0452 143.848 53.3065 143.992 53.6159 144.088C53.9252 144.173 54.3519 144.264 54.8959 144.36C55.5679 144.488 56.1065 144.616 56.5119 144.744C56.9172 144.872 57.2639 145.091 57.5519 145.4C57.8399 145.709 57.9839 146.136 57.9839 146.68C57.9839 147.416 57.6745 148.003 57.0559 148.44C56.4479 148.867 55.5999 149.08 54.5119 149.08ZM60.696 149.08C60.4613 149.08 60.2587 148.995 60.088 148.824C59.928 148.653 59.848 148.445 59.848 148.2C59.848 147.955 59.928 147.752 60.088 147.592C60.2587 147.421 60.4613 147.336 60.696 147.336C60.9307 147.336 61.1333 147.421 61.304 147.592C61.4747 147.752 61.56 147.955 61.56 148.2C61.56 148.445 61.4747 148.653 61.304 148.824C61.1333 148.995 60.9307 149.08 60.696 149.08Z" fill="#1C1C1D"/>
<defs>
<filter id="filter0_d_2_191" x="-190" y="0" width="340" height="187" filterUnits="userSpaceOnUse" color-interpolation-filters="sRGB">
<feFlood flood-opacity="0" result="BackgroundImageFix"/>
<feColorMatrix in="SourceAlpha" type="matrix" values="0 0 0 0 0 0 0 0 0 0 0 0 0 0 0 0 0 0 127 0" result="hardAlpha"/>
<feOffset dy="4"/>
<feColorMatrix type="matrix" values="0 0 0 0 0.125 0 0 0 0 0.125 0 0 0 0 0.125 0 0 0 1 0"/>
<feBlend mode="normal" in2="BackgroundImageFix" result="effect1_dropShadow_2_191"/>
<feBlend mode="normal" in="SourceGraphic" in2="effect1_dropShadow_2_191" result="shape"/>
</filter>
</defs>
</svg>
