<svg width="150" height="187" viewBox="0 0 150 187" fill="none" xmlns="http://www.w3.org/2000/svg">
<g filter="url(#filter0_d_2_252)">
<rect width="340" height="183" rx="10" fill="#FA6648"/>
<rect x="1" y="1" width="338" height="181" rx="9" stroke="#1C1C1D" stroke-width="2"/>
</g>
<path d="M144.5 30V44H141.84L134.86 35.5V44H131.66V30H134.34L141.3 38.5V30H144.5ZM148.092 33.24H151.212V44H148.092V33.24ZM149.652 31.74C149.079 31.74 148.612 31.5733 148.252 31.24C147.892 30.9067 147.712 30.4933 147.712 30C147.712 29.5067 147.892 29.0933 148.252 28.76C148.612 28.4267 149.079 28.26 149.652 28.26C150.226 28.26 150.692 28.42 151.052 28.74C151.412 29.06 151.592 29.46 151.592 29.94C151.592 30.46 151.412 30.8933 151.052 31.24C150.692 31.5733 150.226 31.74 149.652 31.74ZM158.228 44.16C157.335 44.16 156.461 44.0533 155.608 43.84C154.755 43.6133 154.075 43.3333 153.568 43L154.608 40.76C155.088 41.0667 155.668 41.32 156.348 41.52C157.028 41.7067 157.695 41.8 158.348 41.8C159.668 41.8 160.328 41.4733 160.328 40.82C160.328 40.5133 160.148 40.2933 159.788 40.16C159.428 40.0267 158.875 39.9133 158.128 39.82C157.248 39.6867 156.521 39.5333 155.948 39.36C155.375 39.1867 154.875 38.88 154.448 38.44C154.035 38 153.828 37.3733 153.828 36.56C153.828 35.88 154.021 35.28 154.408 34.76C154.808 34.2267 155.381 33.8133 156.128 33.52C156.888 33.2267 157.781 33.08 158.808 33.08C159.568 33.08 160.321 33.1667 161.068 33.34C161.828 33.5 162.455 33.7267 162.948 34.02L161.908 36.24C160.961 35.7067 159.928 35.44 158.808 35.44C158.141 35.44 157.641 35.5333 157.308 35.72C156.975 35.9067 156.808 36.1467 156.808 36.44C156.808 36.7733 156.988 37.0067 157.348 37.14C157.708 37.2733 158.281 37.4 159.068 37.52C159.948 37.6667 160.668 37.8267 161.228 38C161.788 38.16 162.275 38.46 162.688 38.9C163.101 39.34 163.308 39.9533 163.308 40.74C163.308 41.4067 163.108 42 162.708 42.52C162.308 43.04 161.721 43.4467 160.948 43.74C160.188 44.02 159.281 44.16 158.228 44.16ZM165.733 33.24H168.853V44H165.733V33.24ZM167.293 31.74C166.72 31.74 166.253 31.5733 165.893 31.24C165.533 30.9067 165.353 30.4933 165.353 30C165.353 29.5067 165.533 29.0933 165.893 28.76C166.253 28.4267 166.72 28.26 167.293 28.26C167.866 28.26 168.333 28.42 168.693 28.74C169.053 29.06 169.233 29.46 169.233 29.94C169.233 30.46 169.053 30.8933 168.693 31.24C168.333 31.5733 167.866 31.74 167.293 31.74ZM189.253 33.24V44H186.293V42.72C185.879 43.1867 185.386 43.5467 184.813 43.8C184.239 44.04 183.619 44.16 182.953 44.16C181.539 44.16 180.419 43.7533 179.593 42.94C178.766 42.1267 178.353 40.92 178.353 39.32V33.24H181.473V38.86C181.473 40.5933 182.199 41.46 183.653 41.46C184.399 41.46 184.999 41.22 185.453 40.74C185.906 40.2467 186.133 39.52 186.133 38.56V33.24H189.253ZM192.643 29.16H195.763V44H192.643V29.16ZM199.159 29.16H202.279V44H199.159V29.16ZM210.014 33.08C211.681 33.08 212.961 33.48 213.854 34.28C214.748 35.0667 215.194 36.26 215.194 37.86V44H212.274V42.66C211.688 43.66 210.594 44.16 208.994 44.16C208.168 44.16 207.448 44.02 206.834 43.74C206.234 43.46 205.774 43.0733 205.454 42.58C205.134 42.0867 204.974 41.5267 204.974 40.9C204.974 39.9 205.348 39.1133 206.094 38.54C206.854 37.9667 208.021 37.68 209.594 37.68H212.074C212.074 37 211.868 36.48 211.454 36.12C211.041 35.7467 210.421 35.56 209.594 35.56C209.021 35.56 208.454 35.6533 207.894 35.84C207.348 36.0133 206.881 36.2533 206.494 36.56L205.374 34.38C205.961 33.9667 206.661 33.6467 207.474 33.42C208.301 33.1933 209.148 33.08 210.014 33.08ZM209.774 42.06C210.308 42.06 210.781 41.94 211.194 41.7C211.608 41.4467 211.901 41.08 212.074 40.6V39.5H209.934C208.654 39.5 208.014 39.92 208.014 40.76C208.014 41.16 208.168 41.48 208.474 41.72C208.794 41.9467 209.228 42.06 209.774 42.06ZM232.298 33.08C233.645 33.08 234.711 33.48 235.498 34.28C236.298 35.0667 236.698 36.2533 236.698 37.84V44H233.578V38.32C233.578 37.4667 233.398 36.8333 233.038 36.42C232.691 35.9933 232.191 35.78 231.538 35.78C230.805 35.78 230.225 36.02 229.798 36.5C229.371 36.9667 229.158 37.6667 229.158 38.6V44H226.038V38.32C226.038 36.6267 225.358 35.78 223.998 35.78C223.278 35.78 222.705 36.02 222.278 36.5C221.851 36.9667 221.638 37.6667 221.638 38.6V44H218.518V33.24H221.498V34.48C221.898 34.0267 222.385 33.68 222.958 33.44C223.545 33.2 224.185 33.08 224.878 33.08C225.638 33.08 226.325 33.2333 226.938 33.54C227.551 33.8333 228.045 34.2667 228.418 34.84C228.858 34.28 229.411 33.8467 230.078 33.54C230.758 33.2333 231.498 33.08 232.298 33.08ZM245.312 44.16C244.165 44.16 243.132 43.9267 242.212 43.46C241.305 42.98 240.592 42.32 240.072 41.48C239.565 40.64 239.312 39.6867 239.312 38.62C239.312 37.5533 239.565 36.6 240.072 35.76C240.592 34.92 241.305 34.2667 242.212 33.8C243.132 33.32 244.165 33.08 245.312 33.08C246.445 33.08 247.432 33.32 248.272 33.8C249.125 34.2667 249.745 34.94 250.132 35.82L247.712 37.12C247.152 36.1333 246.345 35.64 245.292 35.64C244.479 35.64 243.805 35.9067 243.272 36.44C242.739 36.9733 242.472 37.7 242.472 38.62C242.472 39.54 242.739 40.2667 243.272 40.8C243.805 41.3333 244.479 41.6 245.292 41.6C246.359 41.6 247.165 41.1067 247.712 40.12L250.132 41.44C249.745 42.2933 249.125 42.96 248.272 43.44C247.432 43.92 246.445 44.16 245.312 44.16ZM257.412 44.16C256.278 44.16 255.258 43.9267 254.352 43.46C253.458 42.98 252.758 42.32 252.252 41.48C251.745 40.64 251.492 39.6867 251.492 38.62C251.492 37.5533 251.745 36.6 252.252 35.76C252.758 34.92 253.458 34.2667 254.352 33.8C255.258 33.32 256.278 33.08 257.412 33.08C258.545 33.08 259.558 33.32 260.452 33.8C261.345 34.2667 262.045 34.92 262.552 35.76C263.058 36.6 263.312 37.5533 263.312 38.62C263.312 39.6867 263.058 40.64 262.552 41.48C262.045 42.32 261.345 42.98 260.452 43.46C259.558 43.9267 258.545 44.16 257.412 44.16ZM257.412 41.6C258.212 41.6 258.865 41.3333 259.372 40.8C259.892 40.2533 260.152 39.5267 260.152 38.62C260.152 37.7133 259.892 36.9933 259.372 36.46C258.865 35.9133 258.212 35.64 257.412 35.64C256.612 35.64 255.952 35.9133 255.432 36.46C254.912 36.9933 254.652 37.7133 254.652 38.62C254.652 39.5267 254.912 40.2533 255.432 40.8C255.952 41.3333 256.612 41.6 257.412 41.6ZM138.38 67.48C138.073 67.7067 137.693 67.88 137.24 68C136.8 68.1067 136.333 68.16 135.84 68.16C134.56 68.16 133.567 67.8333 132.86 67.18C132.167 66.5267 131.82 65.5667 131.82 64.3V59.88H130.16V57.48H131.82V54.86H134.94V57.48H137.62V59.88H134.94V64.26C134.94 64.7133 135.053 65.0667 135.28 65.32C135.52 65.56 135.853 65.68 136.28 65.68C136.773 65.68 137.193 65.5467 137.54 65.28L138.38 67.48ZM150.839 62.66C150.839 62.7 150.819 62.98 150.779 63.5H142.639C142.786 64.1667 143.133 64.6933 143.679 65.08C144.226 65.4667 144.906 65.66 145.719 65.66C146.279 65.66 146.773 65.58 147.199 65.42C147.639 65.2467 148.046 64.98 148.419 64.62L150.079 66.42C149.066 67.58 147.586 68.16 145.639 68.16C144.426 68.16 143.353 67.9267 142.419 67.46C141.486 66.98 140.766 66.32 140.259 65.48C139.753 64.64 139.499 63.6867 139.499 62.62C139.499 61.5667 139.746 60.62 140.239 59.78C140.746 58.9267 141.433 58.2667 142.299 57.8C143.179 57.32 144.159 57.08 145.239 57.08C146.293 57.08 147.246 57.3067 148.099 57.76C148.953 58.2133 149.619 58.8667 150.099 59.72C150.593 60.56 150.839 61.54 150.839 62.66ZM145.259 59.44C144.553 59.44 143.959 59.64 143.479 60.04C142.999 60.44 142.706 60.9867 142.599 61.68H147.899C147.793 61 147.499 60.46 147.019 60.06C146.539 59.6467 145.953 59.44 145.259 59.44ZM167.197 57.08C168.543 57.08 169.61 57.48 170.397 58.28C171.197 59.0667 171.597 60.2533 171.597 61.84V68H168.477V62.32C168.477 61.4667 168.297 60.8333 167.937 60.42C167.59 59.9933 167.09 59.78 166.437 59.78C165.703 59.78 165.123 60.02 164.697 60.5C164.27 60.9667 164.057 61.6667 164.057 62.6V68H160.937V62.32C160.937 60.6267 160.257 59.78 158.897 59.78C158.177 59.78 157.603 60.02 157.177 60.5C156.75 60.9667 156.537 61.6667 156.537 62.6V68H153.417V57.24H156.397V58.48C156.797 58.0267 157.283 57.68 157.857 57.44C158.443 57.2 159.083 57.08 159.777 57.08C160.537 57.08 161.223 57.2333 161.837 57.54C162.45 57.8333 162.943 58.2667 163.317 58.84C163.757 58.28 164.31 57.8467 164.977 57.54C165.657 57.2333 166.397 57.08 167.197 57.08ZM181.253 57.08C182.253 57.08 183.16 57.3133 183.973 57.78C184.8 58.2333 185.446 58.88 185.913 59.72C186.38 60.5467 186.613 61.5133 186.613 62.62C186.613 63.7267 186.38 64.7 185.913 65.54C185.446 66.3667 184.8 67.0133 183.973 67.48C183.16 67.9333 182.253 68.16 181.253 68.16C179.88 68.16 178.8 67.7267 178.013 66.86V71.88H174.893V57.24H177.873V58.48C178.646 57.5467 179.773 57.08 181.253 57.08ZM180.713 65.6C181.513 65.6 182.166 65.3333 182.673 64.8C183.193 64.2533 183.453 63.5267 183.453 62.62C183.453 61.7133 183.193 60.9933 182.673 60.46C182.166 59.9133 181.513 59.64 180.713 59.64C179.913 59.64 179.253 59.9133 178.733 60.46C178.226 60.9933 177.973 61.7133 177.973 62.62C177.973 63.5267 178.226 64.2533 178.733 64.8C179.253 65.3333 179.913 65.6 180.713 65.6ZM194.322 68.16C193.188 68.16 192.168 67.9267 191.262 67.46C190.368 66.98 189.668 66.32 189.162 65.48C188.655 64.64 188.402 63.6867 188.402 62.62C188.402 61.5533 188.655 60.6 189.162 59.76C189.668 58.92 190.368 58.2667 191.262 57.8C192.168 57.32 193.188 57.08 194.322 57.08C195.455 57.08 196.468 57.32 197.362 57.8C198.255 58.2667 198.955 58.92 199.462 59.76C199.968 60.6 200.222 61.5533 200.222 62.62C200.222 63.6867 199.968 64.64 199.462 65.48C198.955 66.32 198.255 66.98 197.362 67.46C196.468 67.9267 195.455 68.16 194.322 68.16ZM194.322 65.6C195.122 65.6 195.775 65.3333 196.282 64.8C196.802 64.2533 197.062 63.5267 197.062 62.62C197.062 61.7133 196.802 60.9933 196.282 60.46C195.775 59.9133 195.122 59.64 194.322 59.64C193.522 59.64 192.862 59.9133 192.342 60.46C191.822 60.9933 191.562 61.7133 191.562 62.62C191.562 63.5267 191.822 64.2533 192.342 64.8C192.862 65.3333 193.522 65.6 194.322 65.6ZM205.787 58.66C206.161 58.14 206.661 57.7467 207.287 57.48C207.927 57.2133 208.661 57.08 209.487 57.08V59.96C209.141 59.9333 208.907 59.92 208.787 59.92C207.894 59.92 207.194 60.1733 206.687 60.68C206.181 61.1733 205.927 61.92 205.927 62.92V68H202.807V57.24H205.787V58.66ZM225.025 67.48C224.718 67.7067 224.338 67.88 223.885 68C223.445 68.1067 222.978 68.16 222.485 68.16C221.205 68.16 220.211 67.8333 219.505 67.18C218.811 66.5267 218.465 65.5667 218.465 64.3V59.88H216.805V57.48H218.465V54.86H221.585V57.48H224.265V59.88H221.585V64.26C221.585 64.7133 221.698 65.0667 221.925 65.32C222.165 65.56 222.498 65.68 222.925 65.68C223.418 65.68 223.838 65.5467 224.185 65.28L225.025 67.48ZM237.484 62.66C237.484 62.7 237.464 62.98 237.424 63.5H229.284C229.431 64.1667 229.777 64.6933 230.324 65.08C230.871 65.4667 231.551 65.66 232.364 65.66C232.924 65.66 233.417 65.58 233.844 65.42C234.284 65.2467 234.691 64.98 235.064 64.62L236.724 66.42C235.711 67.58 234.231 68.16 232.284 68.16C231.071 68.16 229.997 67.9267 229.064 67.46C228.131 66.98 227.411 66.32 226.904 65.48C226.397 64.64 226.144 63.6867 226.144 62.62C226.144 61.5667 226.391 60.62 226.884 59.78C227.391 58.9267 228.077 58.2667 228.944 57.8C229.824 57.32 230.804 57.08 231.884 57.08C232.937 57.08 233.891 57.3067 234.744 57.76C235.597 58.2133 236.264 58.8667 236.744 59.72C237.237 60.56 237.484 61.54 237.484 62.66ZM231.904 59.44C231.197 59.44 230.604 59.64 230.124 60.04C229.644 60.44 229.351 60.9867 229.244 61.68H234.544C234.437 61 234.144 60.46 233.664 60.06C233.184 59.6467 232.597 59.44 231.904 59.44ZM253.841 57.08C255.188 57.08 256.254 57.48 257.041 58.28C257.841 59.0667 258.241 60.2533 258.241 61.84V68H255.121V62.32C255.121 61.4667 254.941 60.8333 254.581 60.42C254.234 59.9933 253.734 59.78 253.081 59.78C252.348 59.78 251.768 60.02 251.341 60.5C250.914 60.9667 250.701 61.6667 250.701 62.6V68H247.581V62.32C247.581 60.6267 246.901 59.78 245.541 59.78C244.821 59.78 244.248 60.02 243.821 60.5C243.394 60.9667 243.181 61.6667 243.181 62.6V68H240.061V57.24H243.041V58.48C243.441 58.0267 243.928 57.68 244.501 57.44C245.088 57.2 245.728 57.08 246.421 57.08C247.181 57.08 247.868 57.2333 248.481 57.54C249.094 57.8333 249.588 58.2667 249.961 58.84C250.401 58.28 250.954 57.8467 251.621 57.54C252.301 57.2333 253.041 57.08 253.841 57.08ZM267.898 57.08C268.898 57.08 269.804 57.3133 270.618 57.78C271.444 58.2333 272.091 58.88 272.558 59.72C273.024 60.5467 273.258 61.5133 273.258 62.62C273.258 63.7267 273.024 64.7 272.558 65.54C272.091 66.3667 271.444 67.0133 270.618 67.48C269.804 67.9333 268.898 68.16 267.898 68.16C266.524 68.16 265.444 67.7267 264.658 66.86V71.88H261.538V57.24H264.518V58.48C265.291 57.5467 266.418 57.08 267.898 57.08ZM267.358 65.6C268.158 65.6 268.811 65.3333 269.318 64.8C269.838 64.2533 270.098 63.5267 270.098 62.62C270.098 61.7133 269.838 60.9933 269.318 60.46C268.811 59.9133 268.158 59.64 267.358 59.64C266.558 59.64 265.898 59.9133 265.378 60.46C264.871 60.9933 264.618 61.7133 264.618 62.62C264.618 63.5267 264.871 64.2533 265.378 64.8C265.898 65.3333 266.558 65.6 267.358 65.6ZM280.966 68.16C279.833 68.16 278.813 67.9267 277.906 67.46C277.013 66.98 276.313 66.32 275.806 65.48C275.3 64.64 275.046 63.6867 275.046 62.62C275.046 61.5533 275.3 60.6 275.806 59.76C276.313 58.92 277.013 58.2667 277.906 57.8C278.813 57.32 279.833 57.08 280.966 57.08C282.1 57.08 283.113 57.32 284.006 57.8C284.9 58.2667 285.6 58.92 286.106 59.76C286.613 60.6 286.866 61.5533 286.866 62.62C286.866 63.6867 286.613 64.64 286.106 65.48C285.6 66.32 284.9 66.98 284.006 67.46C283.113 67.9267 282.1 68.16 280.966 68.16ZM280.966 65.6C281.766 65.6 282.42 65.3333 282.926 64.8C283.446 64.2533 283.706 63.5267 283.706 62.62C283.706 61.7133 283.446 60.9933 282.926 60.46C282.42 59.9133 281.766 59.64 280.966 59.64C280.166 59.64 279.506 59.9133 278.986 60.46C278.466 60.9933 278.206 61.7133 278.206 62.62C278.206 63.5267 278.466 64.2533 278.986 64.8C279.506 65.3333 280.166 65.6 280.966 65.6ZM292.432 58.66C292.805 58.14 293.305 57.7467 293.932 57.48C294.572 57.2133 295.305 57.08 296.132 57.08V59.96C295.785 59.9333 295.552 59.92 295.432 59.92C294.538 59.92 293.838 60.1733 293.332 60.68C292.825 61.1733 292.572 61.92 292.572 62.92V68H289.452V57.24H292.432V58.66ZM137.98 81.08C139.313 81.08 140.387 81.48 141.2 82.28C142.027 83.08 142.44 84.2667 142.44 85.84V92H139.32V86.32C139.32 85.4667 139.133 84.8333 138.76 84.42C138.387 83.9933 137.847 83.78 137.14 83.78C136.353 83.78 135.727 84.0267 135.26 84.52C134.793 85 134.56 85.72 134.56 86.68V92H131.44V81.24H134.42V82.5C134.833 82.0467 135.347 81.7 135.96 81.46C136.573 81.2067 137.247 81.08 137.98 81.08ZM156.608 81.24V92H153.648V90.72C153.235 91.1867 152.741 91.5467 152.168 91.8C151.595 92.04 150.975 92.16 150.308 92.16C148.895 92.16 147.775 91.7533 146.948 90.94C146.121 90.1267 145.708 88.92 145.708 87.32V81.24H148.828V86.86C148.828 88.5933 149.555 89.46 151.008 89.46C151.755 89.46 152.355 89.22 152.808 88.74C153.261 88.2467 153.488 87.52 153.488 86.56V81.24H156.608ZM159.999 77.16H163.119V92H159.999V77.16ZM166.514 77.16H169.634V92H166.514V77.16ZM177.37 81.08C179.037 81.08 180.317 81.48 181.21 82.28C182.103 83.0667 182.55 84.26 182.55 85.86V92H179.63V90.66C179.043 91.66 177.95 92.16 176.35 92.16C175.523 92.16 174.803 92.02 174.19 91.74C173.59 91.46 173.13 91.0733 172.81 90.58C172.49 90.0867 172.33 89.5267 172.33 88.9C172.33 87.9 172.703 87.1133 173.45 86.54C174.21 85.9667 175.377 85.68 176.95 85.68H179.43C179.43 85 179.223 84.48 178.81 84.12C178.397 83.7467 177.777 83.56 176.95 83.56C176.377 83.56 175.81 83.6533 175.25 83.84C174.703 84.0133 174.237 84.2533 173.85 84.56L172.73 82.38C173.317 81.9667 174.017 81.6467 174.83 81.42C175.657 81.1933 176.503 81.08 177.37 81.08ZM177.13 90.06C177.663 90.06 178.137 89.94 178.55 89.7C178.963 89.4467 179.257 89.08 179.43 88.6V87.5H177.29C176.01 87.5 175.37 87.92 175.37 88.76C175.37 89.16 175.523 89.48 175.83 89.72C176.15 89.9467 176.583 90.06 177.13 90.06ZM187.054 92.16C186.507 92.16 186.047 91.9733 185.674 91.6C185.3 91.2267 185.114 90.76 185.114 90.2C185.114 89.6267 185.3 89.1667 185.674 88.82C186.047 88.46 186.507 88.28 187.054 88.28C187.6 88.28 188.06 88.46 188.434 88.82C188.807 89.1667 188.994 89.6267 188.994 90.2C188.994 90.76 188.807 91.2267 188.434 91.6C188.06 91.9733 187.6 92.16 187.054 92.16Z" fill="white"/>
<path d="M31.184 117.8V129H30.208L23.008 119.912V129H21.824V117.8H22.8L30.016 126.888V117.8H31.184ZM35.0996 120.584H36.2356V129H35.0996V120.584ZM35.6756 118.744C35.441 118.744 35.2436 118.664 35.0836 118.504C34.9236 118.344 34.8436 118.152 34.8436 117.928C34.8436 117.715 34.9236 117.528 35.0836 117.368C35.2436 117.208 35.441 117.128 35.6756 117.128C35.9103 117.128 36.1076 117.208 36.2676 117.368C36.4276 117.517 36.5076 117.699 36.5076 117.912C36.5076 118.147 36.4276 118.344 36.2676 118.504C36.1076 118.664 35.9103 118.744 35.6756 118.744ZM42.1525 129.08C41.4698 129.08 40.8138 128.984 40.1845 128.792C39.5658 128.589 39.0805 128.339 38.7285 128.04L39.2405 127.144C39.5925 127.421 40.0352 127.651 40.5685 127.832C41.1018 128.003 41.6565 128.088 42.2325 128.088C43.0005 128.088 43.5658 127.971 43.9285 127.736C44.3018 127.491 44.4885 127.149 44.4885 126.712C44.4885 126.403 44.3872 126.163 44.1845 125.992C43.9818 125.811 43.7258 125.677 43.4165 125.592C43.1072 125.496 42.6965 125.405 42.1845 125.32C41.5018 125.192 40.9525 125.064 40.5365 124.936C40.1205 124.797 39.7632 124.568 39.4645 124.248C39.1765 123.928 39.0325 123.485 39.0325 122.92C39.0325 122.216 39.3258 121.64 39.9125 121.192C40.4992 120.744 41.3152 120.52 42.3605 120.52C42.9045 120.52 43.4485 120.595 43.9925 120.744C44.5365 120.883 44.9845 121.069 45.3365 121.304L44.8405 122.216C44.1472 121.736 43.3205 121.496 42.3605 121.496C41.6352 121.496 41.0858 121.624 40.7125 121.88C40.3498 122.136 40.1685 122.472 40.1685 122.888C40.1685 123.208 40.2698 123.464 40.4725 123.656C40.6858 123.848 40.9472 123.992 41.2565 124.088C41.5658 124.173 41.9925 124.264 42.5365 124.36C43.2085 124.488 43.7472 124.616 44.1525 124.744C44.5578 124.872 44.9045 125.091 45.1925 125.4C45.4805 125.709 45.6245 126.136 45.6245 126.68C45.6245 127.416 45.3152 128.003 44.6965 128.44C44.0885 128.867 43.2405 129.08 42.1525 129.08ZM48.2246 120.584H49.3606V129H48.2246V120.584ZM48.8006 118.744C48.566 118.744 48.3686 118.664 48.2086 118.504C48.0486 118.344 47.9686 118.152 47.9686 117.928C47.9686 117.715 48.0486 117.528 48.2086 117.368C48.3686 117.208 48.566 117.128 48.8006 117.128C49.0353 117.128 49.2326 117.208 49.3926 117.368C49.5526 117.517 49.6326 117.699 49.6326 117.912C49.6326 118.147 49.5526 118.344 49.3926 118.504C49.2326 118.664 49.0353 118.744 48.8006 118.744ZM65.293 120.584V129H64.205V127.464C63.9063 127.976 63.4957 128.376 62.973 128.664C62.4503 128.941 61.853 129.08 61.181 129.08C60.0823 129.08 59.213 128.776 58.573 128.168C57.9437 127.549 57.629 126.648 57.629 125.464V120.584H58.765V125.352C58.765 126.237 58.9837 126.909 59.421 127.368C59.8583 127.827 60.4823 128.056 61.293 128.056C62.1783 128.056 62.877 127.789 63.389 127.256C63.901 126.712 64.157 125.96 64.157 125V120.584H65.293ZM68.9746 117.128H70.1106V129H68.9746V117.128ZM73.7715 117.128H74.9075V129H73.7715V117.128ZM81.5124 120.52C82.611 120.52 83.4537 120.797 84.0404 121.352C84.627 121.896 84.9204 122.707 84.9204 123.784V129H83.8324V127.688C83.5764 128.125 83.1977 128.467 82.6964 128.712C82.2057 128.957 81.619 129.08 80.9364 129.08C79.9977 129.08 79.251 128.856 78.6964 128.408C78.1417 127.96 77.8644 127.368 77.8644 126.632C77.8644 125.917 78.1204 125.341 78.6324 124.904C79.155 124.467 79.9817 124.248 81.1124 124.248H83.7844V123.736C83.7844 123.011 83.5817 122.461 83.1764 122.088C82.771 121.704 82.179 121.512 81.4004 121.512C80.867 121.512 80.355 121.603 79.8644 121.784C79.3737 121.955 78.9524 122.195 78.6004 122.504L78.0884 121.656C78.515 121.293 79.027 121.016 79.6244 120.824C80.2217 120.621 80.851 120.52 81.5124 120.52ZM81.1124 128.184C81.7524 128.184 82.3017 128.04 82.7604 127.752C83.219 127.453 83.5604 127.027 83.7844 126.472V125.096H81.1444C79.7044 125.096 78.9844 125.597 78.9844 126.6C78.9844 127.091 79.171 127.48 79.5444 127.768C79.9177 128.045 80.4404 128.184 81.1124 128.184ZM99.0019 120.52C100.058 120.52 100.885 120.824 101.482 121.432C102.09 122.04 102.394 122.936 102.394 124.12V129H101.258V124.232C101.258 123.357 101.045 122.691 100.618 122.232C100.202 121.773 99.6099 121.544 98.8419 121.544C97.9672 121.544 97.2792 121.816 96.7779 122.36C96.2765 122.893 96.0259 123.635 96.0259 124.584V129H94.8899V124.232C94.8899 123.357 94.6765 122.691 94.2499 122.232C93.8339 121.773 93.2365 121.544 92.4579 121.544C91.5939 121.544 90.9059 121.816 90.3939 122.36C89.8925 122.893 89.6419 123.635 89.6419 124.584V129H88.5059V120.584H89.5939V122.12C89.8925 121.608 90.3085 121.213 90.8419 120.936C91.3752 120.659 91.9885 120.52 92.6819 120.52C93.3859 120.52 93.9939 120.669 94.5059 120.968C95.0285 121.267 95.4179 121.709 95.6739 122.296C95.9832 121.741 96.4259 121.309 97.0019 121C97.5885 120.68 98.2552 120.52 99.0019 120.52ZM109.494 129.08C108.662 129.08 107.915 128.899 107.254 128.536C106.603 128.173 106.091 127.667 105.718 127.016C105.345 126.355 105.158 125.613 105.158 124.792C105.158 123.971 105.345 123.235 105.718 122.584C106.091 121.933 106.603 121.427 107.254 121.064C107.915 120.701 108.662 120.52 109.494 120.52C110.219 120.52 110.865 120.664 111.43 120.952C112.006 121.229 112.459 121.64 112.79 122.184L111.942 122.76C111.665 122.344 111.313 122.035 110.886 121.832C110.459 121.619 109.995 121.512 109.494 121.512C108.886 121.512 108.337 121.651 107.846 121.928C107.366 122.195 106.987 122.579 106.71 123.08C106.443 123.581 106.31 124.152 106.31 124.792C106.31 125.443 106.443 126.019 106.71 126.52C106.987 127.011 107.366 127.395 107.846 127.672C108.337 127.939 108.886 128.072 109.494 128.072C109.995 128.072 110.459 127.971 110.886 127.768C111.313 127.565 111.665 127.256 111.942 126.84L112.79 127.416C112.459 127.96 112.006 128.376 111.43 128.664C110.854 128.941 110.209 129.08 109.494 129.08ZM118.821 129.08C118.01 129.08 117.28 128.899 116.629 128.536C115.978 128.163 115.466 127.651 115.093 127C114.72 126.349 114.533 125.613 114.533 124.792C114.533 123.971 114.72 123.235 115.093 122.584C115.466 121.933 115.978 121.427 116.629 121.064C117.28 120.701 118.01 120.52 118.821 120.52C119.632 120.52 120.362 120.701 121.013 121.064C121.664 121.427 122.17 121.933 122.533 122.584C122.906 123.235 123.093 123.971 123.093 124.792C123.093 125.613 122.906 126.349 122.533 127C122.17 127.651 121.664 128.163 121.013 128.536C120.362 128.899 119.632 129.08 118.821 129.08ZM118.821 128.072C119.418 128.072 119.952 127.939 120.421 127.672C120.901 127.395 121.274 127.005 121.541 126.504C121.808 126.003 121.941 125.432 121.941 124.792C121.941 124.152 121.808 123.581 121.541 123.08C121.274 122.579 120.901 122.195 120.421 121.928C119.952 121.651 119.418 121.512 118.821 121.512C118.224 121.512 117.685 121.651 117.205 121.928C116.736 122.195 116.362 122.579 116.085 123.08C115.818 123.581 115.685 124.152 115.685 124.792C115.685 125.432 115.818 126.003 116.085 126.504C116.362 127.005 116.736 127.395 117.205 127.672C117.685 127.939 118.224 128.072 118.821 128.072ZM135.032 128.488C134.818 128.68 134.552 128.829 134.232 128.936C133.922 129.032 133.597 129.08 133.256 129.08C132.466 129.08 131.858 128.867 131.432 128.44C131.005 128.013 130.792 127.411 130.792 126.632V121.544H129.288V120.584H130.792V118.744H131.928V120.584H134.488V121.544H131.928V126.568C131.928 127.069 132.05 127.453 132.296 127.72C132.552 127.976 132.914 128.104 133.384 128.104C133.618 128.104 133.842 128.067 134.056 127.992C134.28 127.917 134.472 127.811 134.632 127.672L135.032 128.488ZM144.631 125.144H137.591C137.655 126.019 137.991 126.728 138.599 127.272C139.207 127.805 139.975 128.072 140.903 128.072C141.425 128.072 141.905 127.981 142.343 127.8C142.78 127.608 143.159 127.331 143.479 126.968L144.119 127.704C143.745 128.152 143.276 128.493 142.711 128.728C142.156 128.963 141.543 129.08 140.871 129.08C140.007 129.08 139.239 128.899 138.567 128.536C137.905 128.163 137.388 127.651 137.015 127C136.641 126.349 136.455 125.613 136.455 124.792C136.455 123.971 136.631 123.235 136.983 122.584C137.345 121.933 137.836 121.427 138.455 121.064C139.084 120.701 139.788 120.52 140.567 120.52C141.345 120.52 142.044 120.701 142.663 121.064C143.281 121.427 143.767 121.933 144.119 122.584C144.471 123.224 144.647 123.96 144.647 124.792L144.631 125.144ZM140.567 121.496C139.756 121.496 139.073 121.757 138.519 122.28C137.975 122.792 137.665 123.464 137.591 124.296H143.559C143.484 123.464 143.169 122.792 142.615 122.28C142.071 121.757 141.388 121.496 140.567 121.496ZM157.955 120.52C159.011 120.52 159.838 120.824 160.435 121.432C161.043 122.04 161.347 122.936 161.347 124.12V129H160.211V124.232C160.211 123.357 159.998 122.691 159.571 122.232C159.155 121.773 158.563 121.544 157.795 121.544C156.92 121.544 156.232 121.816 155.731 122.36C155.23 122.893 154.979 123.635 154.979 124.584V129H153.843V124.232C153.843 123.357 153.63 122.691 153.203 122.232C152.787 121.773 152.19 121.544 151.411 121.544C150.547 121.544 149.859 121.816 149.347 122.36C148.846 122.893 148.595 123.635 148.595 124.584V129H147.459V120.584H148.547V122.12C148.846 121.608 149.262 121.213 149.795 120.936C150.328 120.659 150.942 120.52 151.635 120.52C152.339 120.52 152.947 120.669 153.459 120.968C153.982 121.267 154.371 121.709 154.627 122.296C154.936 121.741 155.379 121.309 155.955 121C156.542 120.68 157.208 120.52 157.955 120.52ZM169.264 120.52C170.053 120.52 170.768 120.701 171.408 121.064C172.048 121.416 172.549 121.917 172.912 122.568C173.274 123.219 173.456 123.96 173.456 124.792C173.456 125.635 173.274 126.381 172.912 127.032C172.549 127.683 172.048 128.189 171.408 128.552C170.778 128.904 170.064 129.08 169.264 129.08C168.581 129.08 167.962 128.941 167.408 128.664C166.864 128.376 166.416 127.96 166.064 127.416V132.104H164.928V120.584H166.016V122.248C166.357 121.693 166.805 121.267 167.36 120.968C167.925 120.669 168.56 120.52 169.264 120.52ZM169.184 128.072C169.77 128.072 170.304 127.939 170.784 127.672C171.264 127.395 171.637 127.005 171.904 126.504C172.181 126.003 172.32 125.432 172.32 124.792C172.32 124.152 172.181 123.587 171.904 123.096C171.637 122.595 171.264 122.205 170.784 121.928C170.304 121.651 169.77 121.512 169.184 121.512C168.586 121.512 168.048 121.651 167.568 121.928C167.098 122.205 166.725 122.595 166.448 123.096C166.181 123.587 166.048 124.152 166.048 124.792C166.048 125.432 166.181 126.003 166.448 126.504C166.725 127.005 167.098 127.395 167.568 127.672C168.048 127.939 168.586 128.072 169.184 128.072ZM179.712 129.08C178.901 129.08 178.17 128.899 177.52 128.536C176.869 128.163 176.357 127.651 175.984 127C175.61 126.349 175.424 125.613 175.424 124.792C175.424 123.971 175.61 123.235 175.984 122.584C176.357 121.933 176.869 121.427 177.52 121.064C178.17 120.701 178.901 120.52 179.712 120.52C180.522 120.52 181.253 120.701 181.904 121.064C182.554 121.427 183.061 121.933 183.424 122.584C183.797 123.235 183.984 123.971 183.984 124.792C183.984 125.613 183.797 126.349 183.424 127C183.061 127.651 182.554 128.163 181.904 128.536C181.253 128.899 180.522 129.08 179.712 129.08ZM179.712 128.072C180.309 128.072 180.842 127.939 181.312 127.672C181.792 127.395 182.165 127.005 182.432 126.504C182.698 126.003 182.832 125.432 182.832 124.792C182.832 124.152 182.698 123.581 182.432 123.08C182.165 122.579 181.792 122.195 181.312 121.928C180.842 121.651 180.309 121.512 179.712 121.512C179.114 121.512 178.576 121.651 178.096 121.928C177.626 122.195 177.253 122.579 176.976 123.08C176.709 123.581 176.576 124.152 176.576 124.792C176.576 125.432 176.709 126.003 176.976 126.504C177.253 127.005 177.626 127.395 178.096 127.672C178.576 127.939 179.114 128.072 179.712 128.072ZM187.891 122.232C188.157 121.667 188.552 121.24 189.075 120.952C189.608 120.664 190.264 120.52 191.043 120.52V121.624L190.771 121.608C189.885 121.608 189.192 121.88 188.691 122.424C188.189 122.968 187.939 123.731 187.939 124.712V129H186.803V120.584H187.891V122.232ZM202.844 128.488C202.631 128.68 202.364 128.829 202.044 128.936C201.735 129.032 201.409 129.08 201.068 129.08C200.279 129.08 199.671 128.867 199.244 128.44C198.817 128.013 198.604 127.411 198.604 126.632V121.544H197.1V120.584H198.604V118.744H199.74V120.584H202.3V121.544H199.74V126.568C199.74 127.069 199.863 127.453 200.108 127.72C200.364 127.976 200.727 128.104 201.196 128.104C201.431 128.104 201.655 128.067 201.868 127.992C202.092 127.917 202.284 127.811 202.444 127.672L202.844 128.488ZM212.443 125.144H205.403C205.467 126.019 205.803 126.728 206.411 127.272C207.019 127.805 207.787 128.072 208.715 128.072C209.238 128.072 209.718 127.981 210.155 127.8C210.593 127.608 210.971 127.331 211.291 126.968L211.931 127.704C211.558 128.152 211.089 128.493 210.523 128.728C209.969 128.963 209.355 129.08 208.683 129.08C207.819 129.08 207.051 128.899 206.379 128.536C205.718 128.163 205.201 127.651 204.827 127C204.454 126.349 204.267 125.613 204.267 124.792C204.267 123.971 204.443 123.235 204.795 122.584C205.158 121.933 205.649 121.427 206.267 121.064C206.897 120.701 207.601 120.52 208.379 120.52C209.158 120.52 209.857 120.701 210.475 121.064C211.094 121.427 211.579 121.933 211.931 122.584C212.283 123.224 212.459 123.96 212.459 124.792L212.443 125.144ZM208.379 121.496C207.569 121.496 206.886 121.757 206.331 122.28C205.787 122.792 205.478 123.464 205.403 124.296H211.371C211.297 123.464 210.982 122.792 210.427 122.28C209.883 121.757 209.201 121.496 208.379 121.496ZM225.768 120.52C226.824 120.52 227.65 120.824 228.248 121.432C228.856 122.04 229.16 122.936 229.16 124.12V129H228.024V124.232C228.024 123.357 227.81 122.691 227.384 122.232C226.968 121.773 226.376 121.544 225.608 121.544C224.733 121.544 224.045 121.816 223.544 122.36C223.042 122.893 222.792 123.635 222.792 124.584V129H221.656V124.232C221.656 123.357 221.442 122.691 221.016 122.232C220.6 121.773 220.002 121.544 219.224 121.544C218.36 121.544 217.672 121.816 217.16 122.36C216.658 122.893 216.408 123.635 216.408 124.584V129H215.272V120.584H216.36V122.12C216.658 121.608 217.074 121.213 217.608 120.936C218.141 120.659 218.754 120.52 219.448 120.52C220.152 120.52 220.76 120.669 221.272 120.968C221.794 121.267 222.184 121.709 222.44 122.296C222.749 121.741 223.192 121.309 223.768 121C224.354 120.68 225.021 120.52 225.768 120.52ZM237.076 120.52C237.866 120.52 238.58 120.701 239.22 121.064C239.86 121.416 240.362 121.917 240.724 122.568C241.087 123.219 241.268 123.96 241.268 124.792C241.268 125.635 241.087 126.381 240.724 127.032C240.362 127.683 239.86 128.189 239.22 128.552C238.591 128.904 237.876 129.08 237.076 129.08C236.394 129.08 235.775 128.941 235.22 128.664C234.676 128.376 234.228 127.96 233.876 127.416V132.104H232.74V120.584H233.828V122.248C234.17 121.693 234.618 121.267 235.172 120.968C235.738 120.669 236.372 120.52 237.076 120.52ZM236.996 128.072C237.583 128.072 238.116 127.939 238.596 127.672C239.076 127.395 239.45 127.005 239.716 126.504C239.994 126.003 240.132 125.432 240.132 124.792C240.132 124.152 239.994 123.587 239.716 123.096C239.45 122.595 239.076 122.205 238.596 121.928C238.116 121.651 237.583 121.512 236.996 121.512C236.399 121.512 235.86 121.651 235.38 121.928C234.911 122.205 234.538 122.595 234.26 123.096C233.994 123.587 233.86 124.152 233.86 124.792C233.86 125.432 233.994 126.003 234.26 126.504C234.538 127.005 234.911 127.395 235.38 127.672C235.86 127.939 236.399 128.072 236.996 128.072ZM247.524 129.08C246.713 129.08 245.983 128.899 245.332 128.536C244.681 128.163 244.169 127.651 243.796 127C243.423 126.349 243.236 125.613 243.236 124.792C243.236 123.971 243.423 123.235 243.796 122.584C244.169 121.933 244.681 121.427 245.332 121.064C245.983 120.701 246.713 120.52 247.524 120.52C248.335 120.52 249.065 120.701 249.716 121.064C250.367 121.427 250.873 121.933 251.236 122.584C251.609 123.235 251.796 123.971 251.796 124.792C251.796 125.613 251.609 126.349 251.236 127C250.873 127.651 250.367 128.163 249.716 128.536C249.065 128.899 248.335 129.08 247.524 129.08ZM247.524 128.072C248.121 128.072 248.655 127.939 249.124 127.672C249.604 127.395 249.977 127.005 250.244 126.504C250.511 126.003 250.644 125.432 250.644 124.792C250.644 124.152 250.511 123.581 250.244 123.08C249.977 122.579 249.604 122.195 249.124 121.928C248.655 121.651 248.121 121.512 247.524 121.512C246.927 121.512 246.388 121.651 245.908 121.928C245.439 122.195 245.065 122.579 244.788 123.08C244.521 123.581 244.388 124.152 244.388 124.792C244.388 125.432 244.521 126.003 244.788 126.504C245.065 127.005 245.439 127.395 245.908 127.672C246.388 127.939 246.927 128.072 247.524 128.072ZM255.703 122.232C255.97 121.667 256.365 121.24 256.887 120.952C257.421 120.664 258.077 120.52 258.855 120.52V121.624L258.583 121.608C257.698 121.608 257.005 121.88 256.503 122.424C256.002 122.968 255.751 123.731 255.751 124.712V129H254.615V120.584H255.703V122.232ZM270.513 120.52C271.569 120.52 272.406 120.829 273.025 121.448C273.654 122.056 273.969 122.947 273.969 124.12V129H272.833V124.232C272.833 123.357 272.614 122.691 272.177 122.232C271.739 121.773 271.115 121.544 270.305 121.544C269.398 121.544 268.678 121.816 268.145 122.36C267.622 122.893 267.361 123.635 267.361 124.584V129H266.225V120.584H267.313V122.136C267.622 121.624 268.049 121.229 268.593 120.952C269.147 120.664 269.787 120.52 270.513 120.52ZM285.137 120.584V129H284.049V127.464C283.75 127.976 283.339 128.376 282.817 128.664C282.294 128.941 281.697 129.08 281.025 129.08C279.926 129.08 279.057 128.776 278.417 128.168C277.787 127.549 277.473 126.648 277.473 125.464V120.584H278.609V125.352C278.609 126.237 278.827 126.909 279.265 127.368C279.702 127.827 280.326 128.056 281.137 128.056C282.022 128.056 282.721 127.789 283.233 127.256C283.745 126.712 284.001 125.96 284.001 125V120.584H285.137ZM288.818 117.128H289.954V129H288.818V117.128ZM293.615 117.128H294.751V129H293.615V117.128ZM301.356 120.52C302.455 120.52 303.297 120.797 303.884 121.352C304.471 121.896 304.764 122.707 304.764 123.784V129H303.676V127.688C303.42 128.125 303.041 128.467 302.54 128.712C302.049 128.957 301.463 129.08 300.78 129.08C299.841 129.08 299.095 128.856 298.54 128.408C297.985 127.96 297.708 127.368 297.708 126.632C297.708 125.917 297.964 125.341 298.476 124.904C298.999 124.467 299.825 124.248 300.956 124.248H303.628V123.736C303.628 123.011 303.425 122.461 303.02 122.088C302.615 121.704 302.023 121.512 301.244 121.512C300.711 121.512 300.199 121.603 299.708 121.784C299.217 121.955 298.796 122.195 298.444 122.504L297.932 121.656C298.359 121.293 298.871 121.016 299.468 120.824C300.065 120.621 300.695 120.52 301.356 120.52ZM300.956 128.184C301.596 128.184 302.145 128.04 302.604 127.752C303.063 127.453 303.404 127.027 303.628 126.472V125.096H300.988C299.548 125.096 298.828 125.597 298.828 126.6C298.828 127.091 299.015 127.48 299.388 127.768C299.761 128.045 300.284 128.184 300.956 128.184ZM21.584 137.128H22.72V149H21.584V137.128ZM29.3249 140.52C30.4235 140.52 31.2662 140.797 31.8529 141.352C32.4395 141.896 32.7329 142.707 32.7329 143.784V149H31.6449V147.688C31.3889 148.125 31.0102 148.467 30.5089 148.712C30.0182 148.957 29.4315 149.08 28.7489 149.08C27.8102 149.08 27.0635 148.856 26.5089 148.408C25.9542 147.96 25.6769 147.368 25.6769 146.632C25.6769 145.917 25.9329 145.341 26.4449 144.904C26.9675 144.467 27.7942 144.248 28.9249 144.248H31.5969V143.736C31.5969 143.011 31.3942 142.461 30.9889 142.088C30.5835 141.704 29.9915 141.512 29.2129 141.512C28.6795 141.512 28.1675 141.603 27.6769 141.784C27.1862 141.955 26.7649 142.195 26.4129 142.504L25.9009 141.656C26.3275 141.293 26.8395 141.016 27.4369 140.824C28.0342 140.621 28.6635 140.52 29.3249 140.52ZM28.9249 148.184C29.5649 148.184 30.1142 148.04 30.5729 147.752C31.0315 147.453 31.3729 147.027 31.5969 146.472V145.096H28.9569C27.5169 145.096 26.7969 145.597 26.7969 146.6C26.7969 147.091 26.9835 147.48 27.3569 147.768C27.7302 148.045 28.2529 148.184 28.9249 148.184ZM40.6544 140.52C41.4437 140.52 42.1584 140.701 42.7984 141.064C43.4384 141.416 43.9397 141.917 44.3024 142.568C44.665 143.219 44.8464 143.96 44.8464 144.792C44.8464 145.624 44.665 146.365 44.3024 147.016C43.9397 147.667 43.4384 148.173 42.7984 148.536C42.1584 148.899 41.4437 149.08 40.6544 149.08C39.9504 149.08 39.3157 148.931 38.7504 148.632C38.1957 148.333 37.7477 147.901 37.4064 147.336V149H36.3184V137.128H37.4544V142.184C37.8064 141.64 38.2544 141.229 38.7984 140.952C39.353 140.664 39.9717 140.52 40.6544 140.52ZM40.5744 148.072C41.161 148.072 41.6944 147.939 42.1744 147.672C42.6544 147.395 43.0277 147.005 43.2944 146.504C43.5717 146.003 43.7104 145.432 43.7104 144.792C43.7104 144.152 43.5717 143.581 43.2944 143.08C43.0277 142.579 42.6544 142.195 42.1744 141.928C41.6944 141.651 41.161 141.512 40.5744 141.512C39.977 141.512 39.4384 141.651 38.9584 141.928C38.489 142.195 38.1157 142.579 37.8384 143.08C37.5717 143.581 37.4384 144.152 37.4384 144.792C37.4384 145.432 37.5717 146.003 37.8384 146.504C38.1157 147.005 38.489 147.395 38.9584 147.672C39.4384 147.939 39.977 148.072 40.5744 148.072ZM51.1021 149.08C50.2915 149.08 49.5608 148.899 48.9101 148.536C48.2595 148.163 47.7475 147.651 47.3741 147C47.0008 146.349 46.8141 145.613 46.8141 144.792C46.8141 143.971 47.0008 143.235 47.3741 142.584C47.7475 141.933 48.2595 141.427 48.9101 141.064C49.5608 140.701 50.2915 140.52 51.1021 140.52C51.9128 140.52 52.6435 140.701 53.2941 141.064C53.9448 141.427 54.4515 141.933 54.8141 142.584C55.1875 143.235 55.3741 143.971 55.3741 144.792C55.3741 145.613 55.1875 146.349 54.8141 147C54.4515 147.651 53.9448 148.163 53.2941 148.536C52.6435 148.899 51.9128 149.08 51.1021 149.08ZM51.1021 148.072C51.6995 148.072 52.2328 147.939 52.7021 147.672C53.1821 147.395 53.5555 147.005 53.8221 146.504C54.0888 146.003 54.2221 145.432 54.2221 144.792C54.2221 144.152 54.0888 143.581 53.8221 143.08C53.5555 142.579 53.1821 142.195 52.7021 141.928C52.2328 141.651 51.6995 141.512 51.1021 141.512C50.5048 141.512 49.9661 141.651 49.4861 141.928C49.0168 142.195 48.6435 142.579 48.3661 143.08C48.0995 143.581 47.9661 144.152 47.9661 144.792C47.9661 145.432 48.0995 146.003 48.3661 146.504C48.6435 147.005 49.0168 147.395 49.4861 147.672C49.9661 147.939 50.5048 148.072 51.1021 148.072ZM59.2814 142.232C59.548 141.667 59.9427 141.24 60.4654 140.952C60.9987 140.664 61.6547 140.52 62.4334 140.52V141.624L62.1614 141.608C61.276 141.608 60.5827 141.88 60.0814 142.424C59.58 142.968 59.3294 143.731 59.3294 144.712V149H58.1934V140.584H59.2814V142.232ZM72.2401 145.144H65.2001C65.2641 146.019 65.6001 146.728 66.2081 147.272C66.8161 147.805 67.5841 148.072 68.5121 148.072C69.0348 148.072 69.5148 147.981 69.9521 147.8C70.3895 147.608 70.7681 147.331 71.0881 146.968L71.7281 147.704C71.3548 148.152 70.8855 148.493 70.3201 148.728C69.7655 148.963 69.1521 149.08 68.4801 149.08C67.6161 149.08 66.8481 148.899 66.1761 148.536C65.5148 148.163 64.9975 147.651 64.6241 147C64.2508 146.349 64.0641 145.613 64.0641 144.792C64.0641 143.971 64.2401 143.235 64.5921 142.584C64.9548 141.933 65.4455 141.427 66.0641 141.064C66.6935 140.701 67.3975 140.52 68.1761 140.52C68.9548 140.52 69.6535 140.701 70.2721 141.064C70.8908 141.427 71.3761 141.933 71.7281 142.584C72.0801 143.224 72.2561 143.96 72.2561 144.792L72.2401 145.144ZM68.1761 141.496C67.3655 141.496 66.6828 141.757 66.1281 142.28C65.5841 142.792 65.2748 143.464 65.2001 144.296H71.1681C71.0935 143.464 70.7788 142.792 70.2241 142.28C69.6801 141.757 68.9975 141.496 68.1761 141.496ZM82.6999 140.52C83.7985 140.52 84.6412 140.797 85.2279 141.352C85.8145 141.896 86.1079 142.707 86.1079 143.784V149H85.0199V147.688C84.7639 148.125 84.3852 148.467 83.8839 148.712C83.3932 148.957 82.8065 149.08 82.1239 149.08C81.1852 149.08 80.4385 148.856 79.8839 148.408C79.3292 147.96 79.0519 147.368 79.0519 146.632C79.0519 145.917 79.3079 145.341 79.8199 144.904C80.3425 144.467 81.1692 144.248 82.2999 144.248H84.9719V143.736C84.9719 143.011 84.7692 142.461 84.3639 142.088C83.9585 141.704 83.3665 141.512 82.5879 141.512C82.0545 141.512 81.5425 141.603 81.0519 141.784C80.5612 141.955 80.1399 142.195 79.7879 142.504L79.2759 141.656C79.7025 141.293 80.2145 141.016 80.8119 140.824C81.4092 140.621 82.0385 140.52 82.6999 140.52ZM82.2999 148.184C82.9399 148.184 83.4892 148.04 83.9479 147.752C84.4065 147.453 84.7479 147.027 84.9719 146.472V145.096H82.3319C80.8919 145.096 80.1719 145.597 80.1719 146.6C80.1719 147.091 80.3585 147.48 80.7319 147.768C81.1052 148.045 81.6279 148.184 82.2999 148.184ZM97.4046 137.128V149H96.3166V147.336C95.9753 147.901 95.522 148.333 94.9566 148.632C94.402 148.931 93.7726 149.08 93.0686 149.08C92.2793 149.08 91.5646 148.899 90.9246 148.536C90.2846 148.173 89.7833 147.667 89.4206 147.016C89.058 146.365 88.8766 145.624 88.8766 144.792C88.8766 143.96 89.058 143.219 89.4206 142.568C89.7833 141.917 90.2846 141.416 90.9246 141.064C91.5646 140.701 92.2793 140.52 93.0686 140.52C93.7513 140.52 94.3646 140.664 94.9086 140.952C95.4633 141.229 95.9166 141.64 96.2686 142.184V137.128H97.4046ZM93.1646 148.072C93.7513 148.072 94.2793 147.939 94.7486 147.672C95.2286 147.395 95.602 147.005 95.8686 146.504C96.146 146.003 96.2846 145.432 96.2846 144.792C96.2846 144.152 96.146 143.581 95.8686 143.08C95.602 142.579 95.2286 142.195 94.7486 141.928C94.2793 141.651 93.7513 141.512 93.1646 141.512C92.5673 141.512 92.0286 141.651 91.5486 141.928C91.0793 142.195 90.706 142.579 90.4286 143.08C90.162 143.581 90.0286 144.152 90.0286 144.792C90.0286 145.432 90.162 146.003 90.4286 146.504C90.706 147.005 91.0793 147.395 91.5486 147.672C92.0286 147.939 92.5673 148.072 93.1646 148.072ZM105.756 137.128H106.892V149H105.756V137.128ZM113.497 140.52C114.595 140.52 115.438 140.797 116.025 141.352C116.611 141.896 116.905 142.707 116.905 143.784V149H115.817V147.688C115.561 148.125 115.182 148.467 114.681 148.712C114.19 148.957 113.603 149.08 112.921 149.08C111.982 149.08 111.235 148.856 110.681 148.408C110.126 147.96 109.849 147.368 109.849 146.632C109.849 145.917 110.105 145.341 110.617 144.904C111.139 144.467 111.966 144.248 113.097 144.248H115.769V143.736C115.769 143.011 115.566 142.461 115.161 142.088C114.755 141.704 114.163 141.512 113.385 141.512C112.851 141.512 112.339 141.603 111.849 141.784C111.358 141.955 110.937 142.195 110.585 142.504L110.073 141.656C110.499 141.293 111.011 141.016 111.609 140.824C112.206 140.621 112.835 140.52 113.497 140.52ZM113.097 148.184C113.737 148.184 114.286 148.04 114.745 147.752C115.203 147.453 115.545 147.027 115.769 146.472V145.096H113.129C111.689 145.096 110.969 145.597 110.969 146.6C110.969 147.091 111.155 147.48 111.529 147.768C111.902 148.045 112.425 148.184 113.097 148.184ZM124.826 140.52C125.616 140.52 126.33 140.701 126.97 141.064C127.61 141.416 128.112 141.917 128.474 142.568C128.837 143.219 129.018 143.96 129.018 144.792C129.018 145.624 128.837 146.365 128.474 147.016C128.112 147.667 127.61 148.173 126.97 148.536C126.33 148.899 125.616 149.08 124.826 149.08C124.122 149.08 123.488 148.931 122.922 148.632C122.368 148.333 121.92 147.901 121.578 147.336V149H120.49V137.128H121.626V142.184C121.978 141.64 122.426 141.229 122.97 140.952C123.525 140.664 124.144 140.52 124.826 140.52ZM124.746 148.072C125.333 148.072 125.866 147.939 126.346 147.672C126.826 147.395 127.2 147.005 127.466 146.504C127.744 146.003 127.882 145.432 127.882 144.792C127.882 144.152 127.744 143.581 127.466 143.08C127.2 142.579 126.826 142.195 126.346 141.928C125.866 141.651 125.333 141.512 124.746 141.512C124.149 141.512 123.61 141.651 123.13 141.928C122.661 142.195 122.288 142.579 122.01 143.08C121.744 143.581 121.61 144.152 121.61 144.792C121.61 145.432 121.744 146.003 122.01 146.504C122.288 147.005 122.661 147.395 123.13 147.672C123.61 147.939 124.149 148.072 124.746 148.072ZM135.274 149.08C134.463 149.08 133.733 148.899 133.082 148.536C132.431 148.163 131.919 147.651 131.546 147C131.173 146.349 130.986 145.613 130.986 144.792C130.986 143.971 131.173 143.235 131.546 142.584C131.919 141.933 132.431 141.427 133.082 141.064C133.733 140.701 134.463 140.52 135.274 140.52C136.085 140.52 136.815 140.701 137.466 141.064C138.117 141.427 138.623 141.933 138.986 142.584C139.359 143.235 139.546 143.971 139.546 144.792C139.546 145.613 139.359 146.349 138.986 147C138.623 147.651 138.117 148.163 137.466 148.536C136.815 148.899 136.085 149.08 135.274 149.08ZM135.274 148.072C135.871 148.072 136.405 147.939 136.874 147.672C137.354 147.395 137.727 147.005 137.994 146.504C138.261 146.003 138.394 145.432 138.394 144.792C138.394 144.152 138.261 143.581 137.994 143.08C137.727 142.579 137.354 142.195 136.874 141.928C136.405 141.651 135.871 141.512 135.274 141.512C134.677 141.512 134.138 141.651 133.658 141.928C133.189 142.195 132.815 142.579 132.538 143.08C132.271 143.581 132.138 144.152 132.138 144.792C132.138 145.432 132.271 146.003 132.538 146.504C132.815 147.005 133.189 147.395 133.658 147.672C134.138 147.939 134.677 148.072 135.274 148.072ZM143.453 142.232C143.72 141.667 144.115 141.24 144.637 140.952C145.171 140.664 145.827 140.52 146.605 140.52V141.624L146.333 141.608C145.448 141.608 144.755 141.88 144.253 142.424C143.752 142.968 143.501 143.731 143.501 144.712V149H142.365V140.584H143.453V142.232ZM156.412 145.144H149.372C149.436 146.019 149.772 146.728 150.38 147.272C150.988 147.805 151.756 148.072 152.684 148.072C153.207 148.072 153.687 147.981 154.124 147.8C154.561 147.608 154.94 147.331 155.26 146.968L155.9 147.704C155.527 148.152 155.057 148.493 154.492 148.728C153.937 148.963 153.324 149.08 152.652 149.08C151.788 149.08 151.02 148.899 150.348 148.536C149.687 148.163 149.169 147.651 148.796 147C148.423 146.349 148.236 145.613 148.236 144.792C148.236 143.971 148.412 143.235 148.764 142.584C149.127 141.933 149.617 141.427 150.236 141.064C150.865 140.701 151.569 140.52 152.348 140.52C153.127 140.52 153.825 140.701 154.444 141.064C155.063 141.427 155.548 141.933 155.9 142.584C156.252 143.224 156.428 143.96 156.428 144.792L156.412 145.144ZM152.348 141.496C151.537 141.496 150.855 141.757 150.3 142.28C149.756 142.792 149.447 143.464 149.372 144.296H155.34C155.265 143.464 154.951 142.792 154.396 142.28C153.852 141.757 153.169 141.496 152.348 141.496ZM166.184 149.08C165.501 149.08 164.845 148.984 164.216 148.792C163.597 148.589 163.112 148.339 162.76 148.04L163.272 147.144C163.624 147.421 164.066 147.651 164.6 147.832C165.133 148.003 165.688 148.088 166.264 148.088C167.032 148.088 167.597 147.971 167.96 147.736C168.333 147.491 168.52 147.149 168.52 146.712C168.52 146.403 168.418 146.163 168.216 145.992C168.013 145.811 167.757 145.677 167.448 145.592C167.138 145.496 166.728 145.405 166.216 145.32C165.533 145.192 164.984 145.064 164.568 144.936C164.152 144.797 163.794 144.568 163.496 144.248C163.208 143.928 163.064 143.485 163.064 142.92C163.064 142.216 163.357 141.64 163.944 141.192C164.53 140.744 165.346 140.52 166.392 140.52C166.936 140.52 167.48 140.595 168.024 140.744C168.568 140.883 169.016 141.069 169.368 141.304L168.872 142.216C168.178 141.736 167.352 141.496 166.392 141.496C165.666 141.496 165.117 141.624 164.744 141.88C164.381 142.136 164.2 142.472 164.2 142.888C164.2 143.208 164.301 143.464 164.504 143.656C164.717 143.848 164.978 143.992 165.288 144.088C165.597 144.173 166.024 144.264 166.568 144.36C167.24 144.488 167.778 144.616 168.184 144.744C168.589 144.872 168.936 145.091 169.224 145.4C169.512 145.709 169.656 146.136 169.656 146.68C169.656 147.416 169.346 148.003 168.728 148.44C168.12 148.867 167.272 149.08 166.184 149.08ZM172.256 140.584H173.392V149H172.256V140.584ZM172.832 138.744C172.597 138.744 172.4 138.664 172.24 138.504C172.08 138.344 172 138.152 172 137.928C172 137.715 172.08 137.528 172.24 137.368C172.4 137.208 172.597 137.128 172.832 137.128C173.067 137.128 173.264 137.208 173.424 137.368C173.584 137.517 173.664 137.699 173.664 137.912C173.664 138.147 173.584 138.344 173.424 138.504C173.264 138.664 173.067 138.744 172.832 138.744ZM181.485 148.488C181.271 148.68 181.005 148.829 180.685 148.936C180.375 149.032 180.05 149.08 179.709 149.08C178.919 149.08 178.311 148.867 177.885 148.44C177.458 148.013 177.245 147.411 177.245 146.632V141.544H175.741V140.584H177.245V138.744H178.381V140.584H180.941V141.544H178.381V146.568C178.381 147.069 178.503 147.453 178.749 147.72C179.005 147.976 179.367 148.104 179.837 148.104C180.071 148.104 180.295 148.067 180.509 147.992C180.733 147.917 180.925 147.811 181.085 147.672L181.485 148.488ZM196.068 145.144H189.028C189.092 146.019 189.428 146.728 190.036 147.272C190.644 147.805 191.412 148.072 192.34 148.072C192.863 148.072 193.343 147.981 193.78 147.8C194.218 147.608 194.596 147.331 194.916 146.968L195.556 147.704C195.183 148.152 194.714 148.493 194.148 148.728C193.594 148.963 192.98 149.08 192.308 149.08C191.444 149.08 190.676 148.899 190.004 148.536C189.343 148.163 188.826 147.651 188.452 147C188.079 146.349 187.892 145.613 187.892 144.792C187.892 143.971 188.068 143.235 188.42 142.584C188.783 141.933 189.274 141.427 189.892 141.064C190.522 140.701 191.226 140.52 192.004 140.52C192.783 140.52 193.482 140.701 194.1 141.064C194.719 141.427 195.204 141.933 195.556 142.584C195.908 143.224 196.084 143.96 196.084 144.792L196.068 145.144ZM192.004 141.496C191.194 141.496 190.511 141.757 189.956 142.28C189.412 142.792 189.103 143.464 189.028 144.296H194.996C194.922 143.464 194.607 142.792 194.052 142.28C193.508 141.757 192.826 141.496 192.004 141.496ZM206.481 140.584V149H205.392V147.464C205.094 147.976 204.683 148.376 204.161 148.664C203.638 148.941 203.041 149.08 202.369 149.08C201.27 149.08 200.401 148.776 199.761 148.168C199.131 147.549 198.817 146.648 198.817 145.464V140.584H199.953V145.352C199.953 146.237 200.171 146.909 200.609 147.368C201.046 147.827 201.67 148.056 202.481 148.056C203.366 148.056 204.065 147.789 204.577 147.256C205.089 146.712 205.345 145.96 205.345 145V140.584H206.481ZM222.53 137.128V149H221.442V147.336C221.1 147.901 220.647 148.333 220.082 148.632C219.527 148.931 218.898 149.08 218.194 149.08C217.404 149.08 216.69 148.899 216.05 148.536C215.41 148.173 214.908 147.667 214.546 147.016C214.183 146.365 214.002 145.624 214.002 144.792C214.002 143.96 214.183 143.219 214.546 142.568C214.908 141.917 215.41 141.416 216.05 141.064C216.69 140.701 217.404 140.52 218.194 140.52C218.876 140.52 219.49 140.664 220.034 140.952C220.588 141.229 221.042 141.64 221.394 142.184V137.128H222.53ZM218.29 148.072C218.876 148.072 219.404 147.939 219.874 147.672C220.354 147.395 220.727 147.005 220.994 146.504C221.271 146.003 221.41 145.432 221.41 144.792C221.41 144.152 221.271 143.581 220.994 143.08C220.727 142.579 220.354 142.195 219.874 141.928C219.404 141.651 218.876 141.512 218.29 141.512C217.692 141.512 217.154 141.651 216.674 141.928C216.204 142.195 215.831 142.579 215.554 143.08C215.287 143.581 215.154 144.152 215.154 144.792C215.154 145.432 215.287 146.003 215.554 146.504C215.831 147.005 216.204 147.395 216.674 147.672C217.154 147.939 217.692 148.072 218.29 148.072ZM233.777 140.584V149H232.689V147.464C232.391 147.976 231.98 148.376 231.457 148.664C230.935 148.941 230.337 149.08 229.665 149.08C228.567 149.08 227.697 148.776 227.057 148.168C226.428 147.549 226.113 146.648 226.113 145.464V140.584H227.249V145.352C227.249 146.237 227.468 146.909 227.905 147.368C228.343 147.827 228.967 148.056 229.777 148.056C230.663 148.056 231.361 147.789 231.873 147.256C232.385 146.712 232.641 145.96 232.641 145V140.584H233.777ZM237.459 140.584H238.595V149H237.459V140.584ZM238.035 138.744C237.8 138.744 237.603 138.664 237.443 138.504C237.283 138.344 237.203 138.152 237.203 137.928C237.203 137.715 237.283 137.528 237.443 137.368C237.603 137.208 237.8 137.128 238.035 137.128C238.27 137.128 238.467 137.208 238.627 137.368C238.787 137.517 238.867 137.699 238.867 137.912C238.867 138.147 238.787 138.344 238.627 138.504C238.467 138.664 238.27 138.744 238.035 138.744ZM244.512 149.08C243.829 149.08 243.173 148.984 242.544 148.792C241.925 148.589 241.44 148.339 241.088 148.04L241.6 147.144C241.952 147.421 242.395 147.651 242.928 147.832C243.461 148.003 244.016 148.088 244.592 148.088C245.36 148.088 245.925 147.971 246.288 147.736C246.661 147.491 246.848 147.149 246.848 146.712C246.848 146.403 246.747 146.163 246.544 145.992C246.341 145.811 246.085 145.677 245.776 145.592C245.467 145.496 245.056 145.405 244.544 145.32C243.861 145.192 243.312 145.064 242.896 144.936C242.48 144.797 242.123 144.568 241.824 144.248C241.536 143.928 241.392 143.485 241.392 142.92C241.392 142.216 241.685 141.64 242.272 141.192C242.859 140.744 243.675 140.52 244.72 140.52C245.264 140.52 245.808 140.595 246.352 140.744C246.896 140.883 247.344 141.069 247.696 141.304L247.2 142.216C246.507 141.736 245.68 141.496 244.72 141.496C243.995 141.496 243.445 141.624 243.072 141.88C242.709 142.136 242.528 142.472 242.528 142.888C242.528 143.208 242.629 143.464 242.832 143.656C243.045 143.848 243.307 143.992 243.616 144.088C243.925 144.173 244.352 144.264 244.896 144.36C245.568 144.488 246.107 144.616 246.512 144.744C246.917 144.872 247.264 145.091 247.552 145.4C247.84 145.709 247.984 146.136 247.984 146.68C247.984 147.416 247.675 148.003 247.056 148.44C246.448 148.867 245.6 149.08 244.512 149.08ZM250.696 149.08C250.461 149.08 250.259 148.995 250.088 148.824C249.928 148.653 249.848 148.445 249.848 148.2C249.848 147.955 249.928 147.752 250.088 147.592C250.259 147.421 250.461 147.336 250.696 147.336C250.931 147.336 251.133 147.421 251.304 147.592C251.475 147.752 251.56 147.955 251.56 148.2C251.56 148.445 251.475 148.653 251.304 148.824C251.133 148.995 250.931 149.08 250.696 149.08Z" fill="white"/>
<path d="M63.7772 27.4995L63.8 27.5005L63.8228 27.4995L97.1666 25.9769C102.578 25.7298 107.1 30.0502 107.1 35.467V87.6816C107.1 93.045 102.663 97.345 97.3023 97.1769L43.8157 95.5002L43.7869 95.4993L43.7581 95.5018L31.4093 96.5395C25.661 97.0225 20.8124 92.313 21.128 86.5531L22.4993 61.5274L22.5008 61.5L22.4993 61.4726L21.1042 36.0137C20.7966 30.3991 25.4061 25.7474 31.0234 26.0039L63.7772 27.4995Z" fill="white" stroke="#1C1C1D"/>
<path d="M47.8069 61.4964C48.4343 60.4097 50.0029 60.4097 50.6303 61.4964L56.7477 72.092C57.3751 73.1787 56.5908 74.5372 55.336 74.5372H43.1013C41.8464 74.5372 41.0622 73.1787 41.6896 72.092L47.8069 61.4964Z" fill="#1C1C1D"/>
<path d="M58.6765 57.0578C59.5223 55.6012 61.6367 55.6012 62.4824 57.0578L70.7285 71.2598C71.5742 72.7164 70.517 74.5372 68.8255 74.5372H52.3334C50.6419 74.5372 49.5847 72.7164 50.4305 71.2598L58.6765 57.0578Z" fill="#1C1C1D"/>
<path d="M70.3024 52.0854C71.3887 50.2144 74.1046 50.2144 75.191 52.0854L85.7829 70.3276C86.8692 72.1986 85.5113 74.5373 83.3386 74.5373H62.1548C59.9821 74.5373 58.6241 72.1986 59.7105 70.3276L70.3024 52.0854Z" fill="#1C1C1D"/>
<circle cx="52.44" cy="51.4096" r="3.22134" fill="#1C1C1D"/>
<defs>
<filter id="filter0_d_2_252" x="0" y="0" width="340" height="187" filterUnits="userSpaceOnUse" color-interpolation-filters="sRGB">
<feFlood flood-opacity="0" result="BackgroundImageFix"/>
<feColorMatrix in="SourceAlpha" type="matrix" values="0 0 0 0 0 0 0 0 0 0 0 0 0 0 0 0 0 0 127 0" result="hardAlpha"/>
<feOffset dy="4"/>
<feColorMatrix type="matrix" values="0 0 0 0 0.125 0 0 0 0 0.125 0 0 0 0 0.125 0 0 0 1 0"/>
<feBlend mode="normal" in2="BackgroundImageFix" result="effect1_dropShadow_2_252"/>
<feBlend mode="normal" in="SourceGraphic" in2="effect1_dropShadow_2_252" result="shape"/>
</filter>
</defs>
</svg>
