<svg width="544" height="583" viewBox="0 0 544 583" fill="none" xmlns="http://www.w3.org/2000/svg">
<path fill-rule="evenodd" clip-rule="evenodd" d="M448.176 370.576C455.194 354.492 468.16 357.813 468.16 357.813C472.283 357.883 473.257 360.853 472.256 364.59L443.262 472.796C442.262 476.53 438.659 478.669 436.585 475.656C436.585 475.656 427.956 471.189 428.487 459.51" fill="#7711DD"/>
<path d="M448.176 370.576C455.194 354.492 468.16 357.813 468.16 357.813C472.283 357.883 473.257 360.853 472.256 364.59L443.262 472.796C442.262 476.53 438.659 478.669 436.585 475.656C436.585 475.656 427.956 471.189 428.487 459.51" stroke="#1C1C1D"/>
<path fill-rule="evenodd" clip-rule="evenodd" d="M488.851 222.641C496.638 215.804 503.763 218.657 505.768 219.695C506.132 219.884 506.32 219.898 506.32 219.898C510.517 221.26 512.995 225.817 511.851 230.087L495.391 291.517C494.248 295.782 489.837 298.449 485.521 297.475C484.88 297.498 475.779 296.467 471.789 286.316" fill="#7711DD"/>
<path d="M488.851 222.641C496.638 215.804 503.763 218.657 505.768 219.695C506.132 219.884 506.32 219.898 506.32 219.898C510.517 221.26 512.995 225.817 511.851 230.087L495.391 291.517C494.248 295.782 489.837 298.449 485.521 297.475C484.88 297.498 475.779 296.467 471.789 286.316" stroke="#1C1C1D"/>
<path d="M106.11 83.0169C116.891 38.2211 162.817 11.4283 207.118 24.0888L358.116 67.2411L445.373 88.5029C490.592 99.5214 517.246 146.291 503.679 190.812L460.073 333.906L421.848 497.188C411.42 541.729 366.202 568.805 322.016 556.965L79.591 492.007C35.8547 480.288 10.2186 434.992 22.6868 391.463L80.1912 190.706L106.11 83.0169Z" fill="#7711DD" stroke="#1C1C1D" stroke-width="2"/>
<path d="M361.781 92.2314L361.815 92.2389L441.522 109.989C474.592 117.353 494.336 151.372 484.326 183.739L437.375 335.549L437.363 335.585L437.355 335.622L401.767 492.206C394.475 524.291 361.981 543.891 330.198 535.375L83.6313 469.308C52.165 460.876 33.8122 428.19 42.9947 396.935L108.354 174.465L108.364 174.431L108.371 174.397L127.415 87.5438C134.631 54.6316 168.278 34.7741 200.579 44.3651L361.748 92.2214L361.781 92.2314Z" fill="#962EFF" stroke="#1C1C1D" stroke-width="2"/>
<path d="M133.54 177.807L133.548 177.779L133.554 177.75L152.257 94.8139C157.378 72.1026 181.109 58.8334 203.241 66.1101C249.998 81.4839 326.198 105.466 383.424 118.215C396.843 121.204 413.202 124.464 428.298 127.351C451.711 131.829 466.104 155.801 458.864 178.5C441.024 234.427 410.768 332.354 393.74 404.701C388.141 428.486 381.698 459.17 376.697 483.69C372.176 505.855 349.935 519.731 328.094 513.879L95.9458 451.675C74.8626 446.026 62.5199 424.174 68.5657 403.202L133.54 177.807Z" fill="#962EFF" stroke="#1C1C1D" stroke-width="2"/>
<path d="M186.454 82.8432L181.925 99.7469L178.013 98.6987L181.701 84.9343L178.32 84.0284L179.161 80.8892L186.454 82.8432ZM198.948 100.892L198.094 104.08L185.32 100.657L185.999 98.1212L194.169 93.7104C195.038 93.2358 195.656 92.7975 196.023 92.3953C196.394 91.9771 196.642 91.5345 196.767 91.0676C196.948 90.3915 196.853 89.8138 196.481 89.3345C196.129 88.8435 195.511 88.4793 194.625 88.2421C193.885 88.0436 193.178 88.0095 192.504 88.1397C191.835 88.2537 191.224 88.5386 190.671 88.9942L188.313 86.3954C189.236 85.5903 190.351 85.0693 191.656 84.8325C192.967 84.5796 194.37 84.6538 195.867 85.055C197.123 85.3914 198.162 85.894 198.983 86.5628C199.825 87.2198 200.402 87.9956 200.715 88.8903C201.048 89.7732 201.078 90.7217 200.806 91.736C200.561 92.6536 200.137 93.4631 199.535 94.1645C198.933 94.8659 197.938 95.583 196.551 96.3156L191.68 98.9444L198.948 100.892ZM204.805 96.7931C204.145 96.6163 203.65 96.2421 203.32 95.6705C202.99 95.099 202.915 94.4751 203.097 93.799C203.282 93.1067 203.656 92.6117 204.219 92.3139C204.786 92.0001 205.4 91.9315 206.06 92.1084C206.72 92.2853 207.217 92.6514 207.552 93.2069C207.89 93.7462 207.967 94.362 207.781 95.0543C207.6 95.7304 207.224 96.2335 206.652 96.5635C206.081 96.8934 205.465 96.97 204.805 96.7931ZM202.482 105.462C201.822 105.285 201.327 104.911 200.997 104.34C200.667 103.768 200.593 103.144 200.774 102.468C200.959 101.776 201.333 101.281 201.896 100.983C202.464 100.669 203.077 100.601 203.737 100.778C204.397 100.954 204.895 101.321 205.229 101.876C205.567 102.415 205.644 103.031 205.458 103.723C205.277 104.4 204.901 104.903 204.329 105.233C203.758 105.563 203.142 105.639 202.482 105.462ZM214.403 108.76C213.002 108.385 211.847 107.704 210.938 106.719C210.029 105.733 209.435 104.504 209.156 103.032C208.898 101.548 209.013 99.8964 209.501 98.0772C209.988 96.2581 210.712 94.7784 211.673 93.6384C212.655 92.4865 213.786 91.7111 215.066 91.3122C216.346 90.9133 217.687 90.9014 219.087 91.2767C220.488 91.652 221.643 92.3325 222.552 93.318C223.461 94.3036 224.045 95.5384 224.303 97.0224C224.581 98.4946 224.477 100.14 223.989 101.96C223.502 103.779 222.767 105.264 221.786 106.416C220.825 107.556 219.704 108.326 218.424 108.725C217.144 109.123 215.803 109.135 214.403 108.76ZM215.289 105.452C216.319 105.728 217.243 105.501 218.06 104.771C218.893 104.045 219.557 102.756 220.053 100.905C220.549 99.0535 220.618 97.6053 220.26 96.5602C219.917 95.5195 219.231 94.8611 218.201 94.585C217.187 94.3133 216.263 94.5403 215.43 95.2661C214.613 95.9963 213.957 97.287 213.461 99.1384C212.965 100.99 212.888 102.436 213.23 103.476C213.589 104.522 214.275 105.18 215.289 105.452ZM232.852 102.083C235.235 102.721 236.862 103.666 237.735 104.918C238.623 106.174 238.854 107.599 238.427 109.193C238.151 110.223 237.641 111.096 236.897 111.811C236.158 112.51 235.188 112.975 233.987 113.205C232.807 113.424 231.444 113.326 229.899 112.912C228.707 112.593 227.573 112.125 226.496 111.509C225.439 110.88 224.586 110.169 223.937 109.373L226.284 106.793C226.799 107.449 227.438 108.025 228.202 108.523C228.97 109.005 229.797 109.365 230.682 109.602C231.664 109.865 232.489 109.879 233.156 109.644C233.823 109.408 234.249 108.945 234.434 108.252C234.629 107.528 234.477 106.901 233.981 106.371C233.501 105.845 232.536 105.388 231.087 105L226.765 103.842L230.183 94.5605L240.495 97.3234L239.653 100.463L232.602 98.5732L231.476 101.714L232.852 102.083Z" fill="white"/>
<path d="M415.604 158.557L412.851 157.819L411.9 161.369L408.085 160.346L409.036 156.797L399.932 154.357L400.637 151.725L411.479 143.139L415.584 144.238L405.471 152.425L410.011 153.641L410.858 150.478L414.553 151.468L413.705 154.631L416.458 155.369L415.604 158.557ZM430.893 166.665C429.508 166.294 428.336 165.678 427.376 164.817C426.437 163.944 425.789 162.916 425.433 161.734C425.093 160.556 425.096 159.323 425.441 158.035C425.786 156.747 426.4 155.678 427.284 154.827C428.183 153.981 429.256 153.423 430.502 153.153C431.768 152.871 433.093 152.916 434.478 153.287C435.846 153.653 436.96 154.262 437.819 155.114C438.698 155.953 439.229 156.967 439.411 158.154L436.068 158.941C435.711 157.569 434.897 156.712 433.625 156.371C432.643 156.108 431.744 156.212 430.927 156.684C430.111 157.155 429.554 157.946 429.256 159.057C428.959 160.168 429.045 161.131 429.517 161.948C429.988 162.764 430.715 163.304 431.697 163.567C432.985 163.912 434.118 163.578 435.098 162.563L437.593 164.94C436.85 165.845 435.885 166.45 434.7 166.753C433.53 167.061 432.261 167.031 430.893 166.665Z" fill="white"/>
<g filter="url(#filter0_d_2_287)">
<rect x="191.806" y="403.66" width="41" height="95.9286" rx="5" transform="rotate(105 191.806 403.66)" fill="white"/>
<rect x="190.582" y="404.367" width="39" height="93.9286" rx="4" transform="rotate(105 190.582 404.367)" stroke="black" stroke-width="2"/>
</g>
<g filter="url(#filter1_d_2_287)">
<rect x="361.878" y="449.231" width="41" height="95.9286" rx="5" transform="rotate(105 361.878 449.231)" fill="white"/>
<rect x="360.654" y="449.938" width="39" height="93.9286" rx="4" transform="rotate(105 360.654 449.938)" stroke="black" stroke-width="2"/>
</g>
<g filter="url(#filter2_d_2_287)">
<rect x="261.008" y="422.203" width="41" height="63.1429" rx="5" transform="rotate(105 261.008 422.203)" fill="white"/>
<rect x="259.783" y="422.91" width="39" height="61.1429" rx="4" transform="rotate(105 259.783 422.91)" stroke="black" stroke-width="2"/>
</g>
<mask id="path-16-inside-1_2_287" fill="white">
<path d="M361.149 337.398C365.212 340.469 366.041 346.279 362.675 350.103C349.48 365.095 332.825 376.714 314.1 383.914C292.498 392.221 269.002 394.317 246.271 389.963C223.54 385.61 202.481 374.982 185.476 359.282C168.472 343.582 156.201 323.436 150.051 301.124C143.902 278.811 144.12 255.223 150.68 233.028C157.24 210.834 169.881 190.918 187.172 175.534C204.464 160.15 225.716 149.913 248.523 145.98C268.294 142.571 288.55 144.017 307.562 150.132C312.411 151.692 314.676 157.106 312.76 161.825C310.845 166.545 305.474 168.776 300.606 167.28C284.803 162.422 268.034 161.333 251.657 164.157C232.242 167.504 214.152 176.219 199.433 189.314C184.713 202.41 173.953 219.363 168.368 238.257C162.784 257.15 162.598 277.229 167.833 296.223C173.068 315.216 183.514 332.365 197.989 345.73C212.464 359.095 230.39 368.142 249.74 371.848C269.09 375.553 289.091 373.77 307.48 366.699C322.991 360.734 336.833 351.208 347.917 338.94C351.331 335.161 357.086 334.326 361.149 337.398Z"/>
</mask>
<path d="M361.149 337.398C365.212 340.469 366.041 346.279 362.675 350.103C349.48 365.095 332.825 376.714 314.1 383.914C292.498 392.221 269.002 394.317 246.271 389.963C223.54 385.61 202.481 374.982 185.476 359.282C168.472 343.582 156.201 323.436 150.051 301.124C143.902 278.811 144.12 255.223 150.68 233.028C157.24 210.834 169.881 190.918 187.172 175.534C204.464 160.15 225.716 149.913 248.523 145.98C268.294 142.571 288.55 144.017 307.562 150.132C312.411 151.692 314.676 157.106 312.76 161.825C310.845 166.545 305.474 168.776 300.606 167.28C284.803 162.422 268.034 161.333 251.657 164.157C232.242 167.504 214.152 176.219 199.433 189.314C184.713 202.41 173.953 219.363 168.368 238.257C162.784 257.15 162.598 277.229 167.833 296.223C173.068 315.216 183.514 332.365 197.989 345.73C212.464 359.095 230.39 368.142 249.74 371.848C269.09 375.553 289.091 373.77 307.48 366.699C322.991 360.734 336.833 351.208 347.917 338.94C351.331 335.161 357.086 334.326 361.149 337.398Z" fill="#1BDBC4" stroke="#1C1C1D" stroke-width="4" mask="url(#path-16-inside-1_2_287)"/>
<mask id="path-17-inside-2_2_287" fill="white">
<path d="M337.952 319.859C342.063 322.967 342.908 328.856 339.412 332.642C329.552 343.321 317.344 351.627 303.701 356.873C287.146 363.239 269.14 364.845 251.72 361.509C234.3 358.172 218.161 350.028 205.13 337.996C192.099 325.964 182.694 310.525 177.982 293.426C173.269 276.327 173.436 258.25 178.464 241.241C183.491 224.231 193.178 208.969 206.43 197.179C219.681 185.39 235.968 177.545 253.446 174.531C267.85 172.047 282.59 172.926 296.528 177.045C301.47 178.506 303.761 183.996 301.823 188.771C299.885 193.547 294.451 195.786 289.475 194.445C278.799 191.566 267.587 191.031 256.618 192.922C242.572 195.344 229.484 201.649 218.835 211.123C208.186 220.597 200.401 232.862 196.361 246.531C192.321 260.199 192.187 274.726 195.974 288.467C199.761 302.208 207.318 314.615 217.79 324.284C228.262 333.953 241.232 340.498 255.231 343.179C269.229 345.86 283.699 344.569 297.003 339.454C307.392 335.458 316.747 329.255 324.441 321.313C328.027 317.612 333.841 316.751 337.952 319.859Z"/>
</mask>
<path d="M337.952 319.859C342.063 322.967 342.908 328.856 339.412 332.642C329.552 343.321 317.344 351.627 303.701 356.873C287.146 363.239 269.14 364.845 251.72 361.509C234.3 358.172 218.161 350.028 205.13 337.996C192.099 325.964 182.694 310.525 177.982 293.426C173.269 276.327 173.436 258.25 178.464 241.241C183.491 224.231 193.178 208.969 206.43 197.179C219.681 185.39 235.968 177.545 253.446 174.531C267.85 172.047 282.59 172.926 296.528 177.045C301.47 178.506 303.761 183.996 301.823 188.771C299.885 193.547 294.451 195.786 289.475 194.445C278.799 191.566 267.587 191.031 256.618 192.922C242.572 195.344 229.484 201.649 218.835 211.123C208.186 220.597 200.401 232.862 196.361 246.531C192.321 260.199 192.187 274.726 195.974 288.467C199.761 302.208 207.318 314.615 217.79 324.284C228.262 333.953 241.232 340.498 255.231 343.179C269.229 345.86 283.699 344.569 297.003 339.454C307.392 335.458 316.747 329.255 324.441 321.313C328.027 317.612 333.841 316.751 337.952 319.859Z" fill="#F95A2C" stroke="#1C1C1D" stroke-width="4" mask="url(#path-17-inside-2_2_287)"/>
<mask id="path-18-inside-3_2_287" fill="white">
<path d="M313.065 301.043C317.647 304.507 318.603 311.104 314.452 315.074C308.265 320.992 300.942 325.652 292.887 328.75C281.581 333.097 269.284 334.194 257.388 331.915C245.491 329.637 234.469 324.075 225.57 315.858C216.67 307.641 210.248 297.097 207.03 285.42C203.811 273.742 203.925 261.397 207.359 249.781C210.792 238.165 217.408 227.742 226.458 219.691C235.507 211.639 246.63 206.282 258.566 204.223C267.071 202.757 275.747 203.007 284.093 204.92C289.691 206.203 292.25 212.358 290.09 217.68C287.93 223.002 281.851 225.429 276.172 224.573C271.526 223.872 266.775 223.915 262.101 224.721C253.99 226.119 246.432 229.76 240.283 235.231C234.134 240.702 229.638 247.784 227.305 255.677C224.972 263.57 224.895 271.959 227.082 279.893C229.269 287.828 233.633 294.992 239.68 300.576C245.727 306.159 253.216 309.939 261.3 311.487C269.384 313.035 277.739 312.29 285.421 309.336C289.849 307.633 293.95 305.236 297.581 302.254C302.02 298.609 308.484 297.579 313.065 301.043Z"/>
</mask>
<path d="M313.065 301.043C317.647 304.507 318.603 311.104 314.452 315.074C308.265 320.992 300.942 325.652 292.887 328.75C281.581 333.097 269.284 334.194 257.388 331.915C245.491 329.637 234.469 324.075 225.57 315.858C216.67 307.641 210.248 297.097 207.03 285.42C203.811 273.742 203.925 261.397 207.359 249.781C210.792 238.165 217.408 227.742 226.458 219.691C235.507 211.639 246.63 206.282 258.566 204.223C267.071 202.757 275.747 203.007 284.093 204.92C289.691 206.203 292.25 212.358 290.09 217.68C287.93 223.002 281.851 225.429 276.172 224.573C271.526 223.872 266.775 223.915 262.101 224.721C253.99 226.119 246.432 229.76 240.283 235.231C234.134 240.702 229.638 247.784 227.305 255.677C224.972 263.57 224.895 271.959 227.082 279.893C229.269 287.828 233.633 294.992 239.68 300.576C245.727 306.159 253.216 309.939 261.3 311.487C269.384 313.035 277.739 312.29 285.421 309.336C289.849 307.633 293.95 305.236 297.581 302.254C302.02 298.609 308.484 297.579 313.065 301.043Z" fill="#FFBD12" stroke="#1C1C1D" stroke-width="4" mask="url(#path-18-inside-3_2_287)"/>
<defs>
<filter id="filter0_d_2_287" x="89.6574" y="379.954" width="101.027" height="64.1861" filterUnits="userSpaceOnUse" color-interpolation-filters="sRGB">
<feFlood flood-opacity="0" result="BackgroundImageFix"/>
<feColorMatrix in="SourceAlpha" type="matrix" values="0 0 0 0 0 0 0 0 0 0 0 0 0 0 0 0 0 0 127 0" result="hardAlpha"/>
<feOffset dy="2"/>
<feColorMatrix type="matrix" values="0 0 0 0 0.12549 0 0 0 0 0.12549 0 0 0 0 0.12549 0 0 0 1 0"/>
<feBlend mode="normal" in2="BackgroundImageFix" result="effect1_dropShadow_2_287"/>
<feBlend mode="normal" in="SourceGraphic" in2="effect1_dropShadow_2_287" result="shape"/>
</filter>
<filter id="filter1_d_2_287" x="259.729" y="425.525" width="101.026" height="64.1861" filterUnits="userSpaceOnUse" color-interpolation-filters="sRGB">
<feFlood flood-opacity="0" result="BackgroundImageFix"/>
<feColorMatrix in="SourceAlpha" type="matrix" values="0 0 0 0 0 0 0 0 0 0 0 0 0 0 0 0 0 0 127 0" result="hardAlpha"/>
<feOffset dy="2"/>
<feColorMatrix type="matrix" values="0 0 0 0 0.12549 0 0 0 0 0.12549 0 0 0 0 0.12549 0 0 0 1 0"/>
<feBlend mode="normal" in2="BackgroundImageFix" result="effect1_dropShadow_2_287"/>
<feBlend mode="normal" in="SourceGraphic" in2="effect1_dropShadow_2_287" result="shape"/>
</filter>
<filter id="filter2_d_2_287" x="190.528" y="406.983" width="69.3579" height="55.7006" filterUnits="userSpaceOnUse" color-interpolation-filters="sRGB">
<feFlood flood-opacity="0" result="BackgroundImageFix"/>
<feColorMatrix in="SourceAlpha" type="matrix" values="0 0 0 0 0 0 0 0 0 0 0 0 0 0 0 0 0 0 127 0" result="hardAlpha"/>
<feOffset dy="2"/>
<feColorMatrix type="matrix" values="0 0 0 0 0.12549 0 0 0 0 0.12549 0 0 0 0 0.12549 0 0 0 1 0"/>
<feBlend mode="normal" in2="BackgroundImageFix" result="effect1_dropShadow_2_287"/>
<feBlend mode="normal" in="SourceGraphic" in2="effect1_dropShadow_2_287" result="shape"/>
</filter>
</defs>
</svg>
