<svg width="810" height="819" viewBox="0 0 810 819" fill="none" xmlns="http://www.w3.org/2000/svg">
<mask id="path-1-inside-1_2_79" fill="white">
<path fill-rule="evenodd" clip-rule="evenodd" d="M185.97 709.55C195.016 694.256 211.677 684 230.733 684C252.855 684 271.749 697.822 279.249 717.301C296.667 725.694 308.688 743.516 308.688 764.146C308.688 783.406 298.211 800.219 282.645 809.196C281.354 836.75 258.606 858.693 230.733 858.693C227.921 858.693 225.16 858.47 222.469 858.04C212.966 868.445 199.288 874.973 184.085 874.973C173.935 874.973 164.465 872.063 156.463 867.032C147.128 880.887 131.294 890 113.332 890C91.9717 890 73.6216 877.114 65.6311 858.692C29.3448 858.462 0 828.976 0 792.635C0 756.153 29.5751 726.578 66.0579 726.578C66.7016 726.578 67.3431 726.587 67.9824 726.605C74.1146 704.734 94.1981 688.696 118.028 688.696C135.242 688.696 150.501 697.066 159.959 709.957C164.352 708.751 168.978 708.106 173.754 708.106C177.962 708.106 182.052 708.606 185.97 709.55Z"/>
</mask>
<path fill-rule="evenodd" clip-rule="evenodd" d="M185.97 709.55C195.016 694.256 211.677 684 230.733 684C252.855 684 271.749 697.822 279.249 717.301C296.667 725.694 308.688 743.516 308.688 764.146C308.688 783.406 298.211 800.219 282.645 809.196C281.354 836.75 258.606 858.693 230.733 858.693C227.921 858.693 225.16 858.47 222.469 858.04C212.966 868.445 199.288 874.973 184.085 874.973C173.935 874.973 164.465 872.063 156.463 867.032C147.128 880.887 131.294 890 113.332 890C91.9717 890 73.6216 877.114 65.6311 858.692C29.3448 858.462 0 828.976 0 792.635C0 756.153 29.5751 726.578 66.0579 726.578C66.7016 726.578 67.3431 726.587 67.9824 726.605C74.1146 704.734 94.1981 688.696 118.028 688.696C135.242 688.696 150.501 697.066 159.959 709.957C164.352 708.751 168.978 708.106 173.754 708.106C177.962 708.106 182.052 708.606 185.97 709.55Z" fill="white"/>
<path d="M185.97 709.55L185.268 712.467L187.423 712.986L188.552 711.078L185.97 709.55ZM279.249 717.301L276.449 718.379L276.876 719.488L277.947 720.004L279.249 717.301ZM282.645 809.196L281.146 806.598L279.725 807.417L279.648 809.056L282.645 809.196ZM222.469 858.04L222.943 855.078L221.345 854.822L220.254 856.017L222.469 858.04ZM156.463 867.032L158.06 864.493L155.599 862.945L153.975 865.356L156.463 867.032ZM65.6311 858.692L68.3834 857.498L67.6053 855.704L65.6501 855.692L65.6311 858.692ZM67.9824 726.605L67.8966 729.604L70.2385 729.671L70.871 727.415L67.9824 726.605ZM159.959 709.957L157.54 711.732L158.761 713.397L160.753 712.85L159.959 709.957ZM188.552 711.078C197.081 696.659 212.781 687 230.733 687V681C210.573 681 192.952 691.854 183.388 708.023L188.552 711.078ZM230.733 687C251.573 687 269.38 700.019 276.449 718.379L282.048 716.223C274.117 695.625 254.137 681 230.733 681V687ZM311.688 764.146C311.688 742.321 298.968 723.473 280.551 714.598L277.947 720.004C294.367 727.916 305.688 744.712 305.688 764.146H311.688ZM284.144 811.795C300.6 802.304 311.688 784.522 311.688 764.146H305.688C305.688 782.29 295.821 798.134 281.146 806.598L284.144 811.795ZM230.733 861.693C260.216 861.693 284.276 838.484 285.642 809.337L279.648 809.056C278.432 835.017 256.996 855.693 230.733 855.693V861.693ZM221.996 861.002C224.843 861.457 227.762 861.693 230.733 861.693V855.693C228.08 855.693 225.478 855.483 222.943 855.078L221.996 861.002ZM184.085 877.973C200.166 877.973 214.637 871.065 224.684 860.063L220.254 856.017C211.295 865.826 198.41 871.973 184.085 871.973V877.973ZM154.866 869.572C163.333 874.895 173.354 877.973 184.085 877.973V871.973C174.517 871.973 165.597 869.232 158.06 864.493L154.866 869.572ZM113.332 893C132.334 893 149.083 883.356 158.951 868.709L153.975 865.356C145.174 878.419 130.254 887 113.332 887V893ZM62.8789 859.886C71.3279 879.365 90.7341 893 113.332 893V887C93.2094 887 75.9153 874.863 68.3834 857.498L62.8789 859.886ZM-3 792.635C-3 830.626 27.6774 861.452 65.6121 861.692L65.6501 855.692C31.0121 855.473 3 827.325 3 792.635H-3ZM66.0579 723.578C27.9183 723.578 -3 754.496 -3 792.635H3C3 757.81 31.232 729.578 66.0579 729.578V723.578ZM68.0681 723.606C67.4003 723.587 66.7302 723.578 66.0579 723.578V729.578C66.673 729.578 67.2859 729.586 67.8966 729.604L68.0681 723.606ZM118.028 685.696C92.8182 685.696 71.5795 702.663 65.0938 725.795L70.871 727.415C76.6496 706.805 95.578 691.696 118.028 691.696V685.696ZM162.378 708.183C152.379 694.554 136.238 685.696 118.028 685.696V691.696C134.246 691.696 148.623 699.577 157.54 711.732L162.378 708.183ZM173.754 705.106C168.707 705.106 163.814 705.787 159.164 707.064L160.753 712.85C164.89 711.714 169.249 711.106 173.754 711.106V705.106ZM186.673 706.634C182.527 705.635 178.2 705.106 173.754 705.106V711.106C177.723 711.106 181.578 711.578 185.268 712.467L186.673 706.634Z" fill="black" mask="url(#path-1-inside-1_2_79)"/>
<mask id="path-3-inside-2_2_79" fill="white">
<path fill-rule="evenodd" clip-rule="evenodd" d="M311.887 30.822C298.177 12.1331 276.056 0 251.101 0C216.556 0 187.442 23.2501 178.552 54.9557C177.625 54.9291 176.695 54.9158 175.762 54.9158C122.874 54.9158 80 97.79 80 150.678C80 203.36 122.54 246.105 175.143 246.438C186.727 273.144 213.329 291.825 244.293 291.825C270.333 291.825 293.288 278.614 306.82 258.529C318.42 265.822 332.149 270.04 346.863 270.04C388.472 270.04 422.202 236.31 422.202 194.701C422.202 172.877 412.922 153.22 398.093 139.461C403.916 128.769 407.225 116.51 407.225 103.478C407.225 61.8692 373.495 28.1388 331.886 28.1388C324.962 28.1388 318.256 29.0729 311.887 30.822Z"/>
</mask>
<path fill-rule="evenodd" clip-rule="evenodd" d="M311.887 30.822C298.177 12.1331 276.056 0 251.101 0C216.556 0 187.442 23.2501 178.552 54.9557C177.625 54.9291 176.695 54.9158 175.762 54.9158C122.874 54.9158 80 97.79 80 150.678C80 203.36 122.54 246.105 175.143 246.438C186.727 273.144 213.329 291.825 244.293 291.825C270.333 291.825 293.288 278.614 306.82 258.529C318.42 265.822 332.149 270.04 346.863 270.04C388.472 270.04 422.202 236.31 422.202 194.701C422.202 172.877 412.922 153.22 398.093 139.461C403.916 128.769 407.225 116.51 407.225 103.478C407.225 61.8692 373.495 28.1388 331.886 28.1388C324.962 28.1388 318.256 29.0729 311.887 30.822Z" fill="white"/>
<path d="M311.887 30.822L309.468 32.5965L310.69 34.2619L312.682 33.7149L311.887 30.822ZM178.552 54.9557L178.466 57.9544L180.808 58.0214L181.441 55.7656L178.552 54.9557ZM175.143 246.438L177.896 245.244L177.118 243.451L175.162 243.438L175.143 246.438ZM306.82 258.529L308.416 255.989L305.956 254.442L304.332 256.853L306.82 258.529ZM398.093 139.461L395.458 138.026L394.343 140.074L396.053 141.66L398.093 139.461ZM314.306 29.0475C300.055 9.62137 277.052 -3 251.101 -3V3C275.06 3 296.299 14.6448 309.468 32.5965L314.306 29.0475ZM251.101 -3C215.176 -3 184.907 21.1791 175.663 54.1457L181.441 55.7656C189.977 25.321 217.936 3 251.101 3V-3ZM178.638 51.9569C177.682 51.9296 176.724 51.9158 175.762 51.9158V57.9158C176.667 57.9158 177.568 57.9287 178.466 57.9544L178.638 51.9569ZM175.762 51.9158C121.217 51.9158 77 96.1331 77 150.678H83C83 99.4468 124.531 57.9158 175.762 57.9158V51.9158ZM77 150.678C77 205.01 120.873 249.095 175.124 249.438L175.162 243.438C124.208 243.116 83 201.709 83 150.678H77ZM172.391 247.632C184.433 275.395 212.091 294.825 244.293 294.825V288.825C214.566 288.825 189.021 270.893 177.896 245.244L172.391 247.632ZM244.293 294.825C271.373 294.825 295.242 281.083 309.308 260.205L304.332 256.853C291.333 276.146 269.294 288.825 244.293 288.825V294.825ZM305.223 261.069C317.288 268.654 331.568 273.04 346.863 273.04V267.04C332.73 267.04 319.553 262.99 308.416 255.989L305.223 261.069ZM346.863 273.04C390.129 273.04 425.202 237.967 425.202 194.701H419.202C419.202 234.653 386.815 267.04 346.863 267.04V273.04ZM425.202 194.701C425.202 172.008 415.549 151.564 400.133 137.262L396.053 141.66C410.296 154.875 419.202 173.746 419.202 194.701H425.202ZM404.225 103.478C404.225 115.996 401.048 127.763 395.458 138.026L400.728 140.896C406.785 129.774 410.225 117.023 410.225 103.478H404.225ZM331.886 31.1388C371.838 31.1388 404.225 63.5261 404.225 103.478H410.225C410.225 60.2124 375.152 25.1388 331.886 25.1388V31.1388ZM312.682 33.7149C318.794 32.0362 325.233 31.1388 331.886 31.1388V25.1388C324.691 25.1388 317.718 26.1096 311.093 27.9291L312.682 33.7149Z" fill="#1C1C1D" mask="url(#path-3-inside-2_2_79)"/>
<mask id="path-5-inside-3_2_79" fill="white">
<path fill-rule="evenodd" clip-rule="evenodd" d="M694.455 310.536C686.21 299.297 672.907 292 657.899 292C637.124 292 619.615 305.982 614.268 325.05C613.711 325.034 613.152 325.026 612.591 325.026C580.784 325.026 555 350.81 555 382.617C555 414.299 580.583 440.006 612.219 440.206C619.185 456.267 635.183 467.501 653.805 467.501C669.465 467.501 683.27 459.556 691.408 447.477C698.384 451.863 706.641 454.4 715.49 454.4C740.513 454.4 760.798 434.115 760.798 409.092C760.798 395.967 755.217 384.145 746.299 375.871C749.801 369.441 751.791 362.068 751.791 354.231C751.791 329.208 731.506 308.922 706.482 308.922C702.318 308.922 698.285 309.484 694.455 310.536Z"/>
</mask>
<path fill-rule="evenodd" clip-rule="evenodd" d="M694.455 310.536C686.21 299.297 672.907 292 657.899 292C637.124 292 619.615 305.982 614.268 325.05C613.711 325.034 613.152 325.026 612.591 325.026C580.784 325.026 555 350.81 555 382.617C555 414.299 580.583 440.006 612.219 440.206C619.185 456.267 635.183 467.501 653.805 467.501C669.465 467.501 683.27 459.556 691.408 447.477C698.384 451.863 706.641 454.4 715.49 454.4C740.513 454.4 760.798 434.115 760.798 409.092C760.798 395.967 755.217 384.145 746.299 375.871C749.801 369.441 751.791 362.068 751.791 354.231C751.791 329.208 731.506 308.922 706.482 308.922C702.318 308.922 698.285 309.484 694.455 310.536Z" fill="white"/>
<path d="M694.455 310.536L692.036 312.311L693.258 313.976L695.25 313.429L694.455 310.536ZM614.268 325.05L614.183 328.049L616.524 328.116L617.157 325.86L614.268 325.05ZM612.219 440.206L614.971 439.012L614.193 437.219L612.238 437.206L612.219 440.206ZM691.408 447.477L693.004 444.937L690.544 443.39L688.92 445.801L691.408 447.477ZM746.299 375.871L743.664 374.436L742.549 376.484L744.258 378.07L746.299 375.871ZM696.874 308.762C688.088 296.785 673.902 289 657.899 289V295C671.911 295 684.332 301.808 692.036 312.311L696.874 308.762ZM657.899 289C635.744 289 617.079 303.912 611.38 324.24L617.157 325.86C622.15 308.053 638.504 295 657.899 295V289ZM614.354 322.051C613.768 322.035 613.18 322.026 612.591 322.026V328.026C613.123 328.026 613.654 328.034 614.183 328.049L614.354 322.051ZM612.591 322.026C579.127 322.026 552 349.153 552 382.617H558C558 352.467 582.441 328.026 612.591 328.026V322.026ZM552 382.617C552 415.95 578.916 442.996 612.2 443.206L612.238 437.206C582.251 437.017 558 412.649 558 382.617H552ZM609.466 441.4C616.891 458.518 633.945 470.501 653.805 470.501V464.501C636.421 464.501 621.479 454.016 614.971 439.012L609.466 441.4ZM653.805 470.501C670.505 470.501 685.224 462.025 693.896 449.153L688.92 445.801C681.315 457.088 668.425 464.501 653.805 464.501V470.501ZM689.811 450.017C697.251 454.695 706.059 457.4 715.49 457.4V451.4C707.222 451.4 699.516 449.032 693.004 444.937L689.811 450.017ZM715.49 457.4C742.169 457.4 763.798 435.772 763.798 409.092H757.798C757.798 432.458 738.856 451.4 715.49 451.4V457.4ZM763.798 409.092C763.798 395.098 757.844 382.49 748.339 373.671L744.258 378.07C752.59 385.8 757.798 396.836 757.798 409.092H763.798ZM748.791 354.231C748.791 361.554 746.932 368.435 743.664 374.436L748.933 377.306C752.669 370.446 754.791 362.582 754.791 354.231H748.791ZM706.482 311.922C729.849 311.922 748.791 330.864 748.791 354.231H754.791C754.791 327.551 733.162 305.922 706.482 305.922V311.922ZM695.25 313.429C698.823 312.447 702.589 311.922 706.482 311.922V305.922C702.047 305.922 697.747 306.521 693.661 307.643L695.25 313.429Z" fill="#1C1C1D" mask="url(#path-5-inside-3_2_79)"/>
<g filter="url(#filter0_d_2_79)">
<path d="M636.7 471.6L636.697 471.652L636.695 471.704L621.954 868.795C620.668 903.44 591.266 930.323 556.644 928.509L263.884 913.166C229.851 911.382 203.613 882.504 205.09 848.456L221.123 478.984L221.124 478.956L243.779 109.906C245.917 75.0737 276.329 48.8414 311.098 51.8384L463.515 64.9761L463.625 64.9856L463.735 64.9874L599.355 67.1853C634.953 67.7623 662.78 98.0886 660.3 133.605L636.7 471.6Z" fill="#962EFF" stroke="#1C1C1D" stroke-width="6.34238"/>
<mask id="path-8-inside-4_2_79" fill="white">
<path fill-rule="evenodd" clip-rule="evenodd" d="M655.944 250.592C654.561 250.503 653.367 251.552 653.278 252.936L649.457 312.208C649.367 313.592 650.417 314.786 651.8 314.875L653.107 314.96C654.491 315.049 655.685 313.999 655.774 312.616L659.595 253.343C659.684 251.96 658.635 250.766 657.251 250.676L655.944 250.592Z"/>
</mask>
<path d="M645.893 252.46L642.072 311.732L656.841 312.685L660.662 253.412L645.893 252.46ZM651.324 322.259L652.631 322.344L653.583 307.575L652.276 307.491L651.324 322.259ZM663.158 313.092L666.979 253.819L652.211 252.867L648.39 312.14L663.158 313.092ZM657.727 243.292L656.42 243.208L655.468 257.976L656.775 258.06L657.727 243.292ZM666.979 253.819C667.331 248.358 663.189 243.644 657.727 243.292L656.775 258.06C654.08 257.887 652.037 255.562 652.211 252.867L666.979 253.819ZM652.631 322.344C658.093 322.696 662.806 318.554 663.158 313.092L648.39 312.14C648.563 309.445 650.888 307.402 653.583 307.575L652.631 322.344ZM642.072 311.732C641.72 317.194 645.863 321.907 651.324 322.259L652.276 307.491C654.971 307.665 657.014 309.99 656.841 312.685L642.072 311.732ZM660.662 253.412C660.488 256.107 658.163 258.15 655.468 257.976L656.42 243.208C650.959 242.856 646.246 246.998 645.893 252.46L660.662 253.412Z" fill="#1C1C1D" mask="url(#path-8-inside-4_2_79)"/>
<mask id="path-10-inside-5_2_79" fill="white">
<path fill-rule="evenodd" clip-rule="evenodd" d="M232.715 232.647C231.401 232.578 230.28 233.588 230.211 234.902L227.097 294.324C227.028 295.638 228.037 296.76 229.352 296.829C230.666 296.897 231.787 295.888 231.856 294.574L234.97 235.151C235.039 233.837 234.029 232.716 232.715 232.647Z"/>
</mask>
<path d="M222.822 234.515L219.707 293.937L234.486 294.712L237.6 235.289L222.822 234.515ZM239.245 294.961L242.359 235.539L227.581 234.764L224.466 294.186L239.245 294.961ZM242.359 235.539C242.642 230.143 238.498 225.541 233.102 225.258L232.328 240.036C229.561 239.891 227.436 237.531 227.581 234.764L242.359 235.539ZM228.964 304.218C234.359 304.501 238.962 300.356 239.245 294.961L224.466 294.186C224.611 291.42 226.972 289.294 229.739 289.439L228.964 304.218ZM219.707 293.937C219.425 299.332 223.569 303.935 228.964 304.218L229.739 289.439C232.506 289.584 234.631 291.945 234.486 294.712L219.707 293.937ZM237.6 235.289C237.455 238.056 235.095 240.181 232.328 240.036L233.102 225.258C227.707 224.975 223.104 229.12 222.822 234.515L237.6 235.289Z" fill="#1C1C1D" mask="url(#path-10-inside-5_2_79)"/>
<mask id="path-12-inside-6_2_79" fill="white">
<path fill-rule="evenodd" clip-rule="evenodd" d="M227.793 306.411C226.479 306.342 225.357 307.352 225.289 308.666L222.174 368.088C222.106 369.403 223.115 370.524 224.429 370.593C225.743 370.662 226.865 369.652 226.933 368.338L230.048 308.916C230.116 307.601 229.107 306.48 227.793 306.411Z"/>
</mask>
<path d="M217.899 308.279L214.785 367.701L229.564 368.476L232.678 309.053L217.899 308.279ZM234.323 368.725L237.437 309.303L222.658 308.528L219.544 367.951L234.323 368.725ZM237.437 309.303C237.72 303.908 233.575 299.305 228.18 299.022L227.406 313.801C224.639 313.656 222.513 311.295 222.658 308.528L237.437 309.303ZM224.042 377.982C229.437 378.265 234.04 374.12 234.323 368.725L219.544 367.951C219.689 365.184 222.05 363.058 224.816 363.203L224.042 377.982ZM214.785 367.701C214.502 373.096 218.647 377.699 224.042 377.982L224.816 363.203C227.583 363.348 229.709 365.709 229.564 368.476L214.785 367.701ZM232.678 309.053C232.533 311.82 230.172 313.946 227.406 313.801L228.18 299.022C222.785 298.739 218.182 302.884 217.899 308.279L232.678 309.053Z" fill="#1C1C1D" mask="url(#path-12-inside-6_2_79)"/>
<path d="M235.102 195.959C235.025 191.701 235.318 187.309 235.768 183.241L235.102 195.959ZM234.253 205.754C234.253 205.754 234.259 205.755 234.27 205.757C234.259 205.755 234.253 205.754 234.253 205.754Z" stroke="#1C1C1D" stroke-width="7.39944"/>
<path fill-rule="evenodd" clip-rule="evenodd" d="M276.369 147.521C270.46 147.019 265.379 151.476 264.999 157.395L244.408 478.062L231.385 799.294C231.183 804.267 230.722 809.753 235.627 810.599C245.055 812.226 267.871 814.506 320.658 817.272C414.888 822.21 552.641 825.977 591.41 826.986C597.249 827.138 602.019 822.586 602.163 816.747C602.943 785.068 605.375 688.624 607.644 622.936C613.095 465.186 631.417 230.369 635.671 177.069C636.154 171.018 631.486 165.914 625.417 165.766C601.789 165.189 545.417 163.865 503.896 163.32C457.863 162.716 316.433 150.928 276.369 147.521Z" fill="white" stroke="#1C1C1D" stroke-width="3.17119"/>
<path fill-rule="evenodd" clip-rule="evenodd" d="M506.017 116.903C508.926 117.055 511.408 114.818 511.561 111.906C511.713 108.994 509.479 106.51 506.569 106.357C503.66 106.205 501.177 108.442 501.025 111.354C500.872 114.266 503.107 116.75 506.017 116.903Z" fill="white" stroke="#1C1C1D" stroke-width="2.11413"/>
<path fill-rule="evenodd" clip-rule="evenodd" d="M422.812 101.968C420.191 101.83 417.955 103.844 417.818 106.465C417.681 109.085 419.694 111.321 422.315 111.459L484.469 114.716C487.09 114.853 489.326 112.84 489.463 110.219C489.6 107.598 487.587 105.362 484.966 105.225L422.812 101.968Z" fill="white" stroke="#1C1C1D" stroke-width="2.11413"/>
<path fill-rule="evenodd" clip-rule="evenodd" d="M385.796 112.717C389.869 112.931 393.344 109.799 393.558 105.722C393.771 101.645 390.643 98.1669 386.569 97.9534C382.496 97.7399 379.021 100.872 378.807 104.949C378.594 109.026 381.722 112.504 385.796 112.717Z" fill="white" stroke="#1C1C1D" stroke-width="2.11413"/>
<g clip-path="url(#clip0_2_79)">
<g filter="url(#filter1_d_2_79)">
<path d="M266.779 690.328C267.087 684.451 272.07 679.953 277.943 680.323C312.336 682.49 423.218 689.407 503.942 693.638C525.481 694.767 555.539 695.556 571.461 695.925C577.435 696.064 582.106 701.106 581.793 707.073L580.144 738.539C579.843 744.288 575.062 748.739 569.308 748.533C536.248 747.35 430.633 743.287 357.083 737.228C330.735 735.057 293.451 733.469 275.317 732.772C269.404 732.544 264.829 727.529 265.139 721.62L266.779 690.328Z" fill="white"/>
<path d="M267.307 690.355C267.599 684.768 272.335 680.499 277.91 680.85C312.302 683.018 423.187 689.935 503.914 694.166C525.462 695.295 555.527 696.085 571.449 696.454C577.125 696.585 581.562 701.376 581.265 707.046L579.616 738.511C579.33 743.977 574.787 748.2 569.327 748.005C536.265 746.822 430.662 742.759 357.126 736.701C330.765 734.53 293.471 732.941 275.337 732.244C269.719 732.028 265.372 727.263 265.667 721.648L267.307 690.355Z" stroke="#1C1C1D" stroke-width="1.05706"/>
</g>
<path d="M407.594 720.691C406.614 720.64 405.662 720.483 404.739 720.22C403.828 719.946 403.083 719.608 402.506 719.205L403.942 716.367C404.488 716.724 405.104 717.021 405.792 717.26C406.48 717.488 407.145 717.619 407.787 717.653C408.338 717.682 408.735 717.652 408.977 717.563C409.219 717.463 409.346 717.306 409.357 717.092C409.37 716.844 409.222 716.65 408.914 716.509C408.616 716.37 408.116 716.208 407.415 716.024C406.513 715.785 405.763 715.543 405.166 715.297C404.57 715.04 404.06 714.652 403.635 714.133C403.212 713.602 403.022 712.909 403.067 712.054C403.106 711.311 403.35 710.646 403.798 710.06C404.247 709.473 404.891 709.027 405.731 708.721C406.583 708.416 407.6 708.294 408.782 708.356C409.593 708.399 410.382 708.53 411.149 708.751C411.929 708.962 412.608 709.251 413.187 709.62L411.836 712.446C410.707 711.799 409.625 711.449 408.589 711.395C407.564 711.341 407.039 711.562 407.013 712.057C407.001 712.294 407.143 712.482 407.441 712.622C407.739 712.75 408.233 712.9 408.924 713.072C409.816 713.288 410.566 713.525 411.174 713.783C411.782 714.029 412.298 714.412 412.722 714.931C413.158 715.45 413.353 716.138 413.309 716.994C413.27 717.737 413.026 718.402 412.577 718.988C412.13 719.563 411.48 720.009 410.627 720.325C409.787 720.631 408.776 720.753 407.594 720.691ZM421.48 720.826C420.889 721.123 420.098 721.245 419.107 721.193C417.812 721.125 416.832 720.763 416.166 720.107C415.501 719.44 415.201 718.482 415.267 717.232L415.391 714.867L414.124 714.801L414.27 712.014L415.537 712.081L415.672 709.496L419.489 709.696L419.354 712.281L421.245 712.38L421.099 715.167L419.208 715.067L419.086 717.398C419.071 717.68 419.132 717.903 419.271 718.068C419.409 718.234 419.596 718.323 419.832 718.335C420.159 718.352 420.451 718.283 420.707 718.127L421.48 720.826ZM427.531 712.032C429.153 712.117 430.372 712.548 431.19 713.324C432.008 714.09 432.377 715.227 432.298 716.736L432.038 721.701L428.491 721.516L428.555 720.299C428.067 721.2 427.17 721.616 425.864 721.547C425.132 721.509 424.514 721.352 424.009 721.077C423.516 720.792 423.145 720.428 422.897 719.986C422.662 719.533 422.558 719.037 422.586 718.496C422.634 717.584 423.019 716.91 423.742 716.474C424.465 716.037 425.536 715.856 426.955 715.931L428.492 716.011C428.405 715.284 427.844 714.893 426.809 714.839C426.392 714.817 425.966 714.863 425.531 714.975C425.097 715.077 424.722 715.232 424.406 715.441L423.322 712.861C423.868 712.562 424.517 712.342 425.27 712.201C426.035 712.049 426.788 711.993 427.531 712.032ZM427.133 719.31C427.403 719.325 427.649 719.264 427.871 719.129C428.092 718.994 428.262 718.782 428.378 718.495L428.412 717.853L427.466 717.804C426.689 717.763 426.287 718.001 426.26 718.519C426.249 718.733 426.318 718.918 426.468 719.072C426.63 719.216 426.852 719.296 427.133 719.31ZM438.226 713.761C438.942 713.019 439.959 712.683 441.276 712.752L441.099 716.13C440.798 716.069 440.517 716.032 440.258 716.018C438.952 715.95 438.264 716.58 438.195 717.909L437.98 722.013L434.163 721.813L434.647 712.574L438.278 712.764L438.226 713.761ZM449.411 722.29C448.82 722.587 448.029 722.709 447.038 722.657C445.743 722.589 444.763 722.227 444.097 721.571C443.432 720.904 443.132 719.946 443.198 718.696L443.321 716.331L442.055 716.265L442.201 713.478L443.467 713.544L443.603 710.96L447.42 711.16L447.285 713.744L449.176 713.844L449.03 716.63L447.139 716.531L447.016 718.862C447.002 719.144 447.063 719.367 447.201 719.532C447.34 719.698 447.527 719.786 447.763 719.799C448.09 719.816 448.381 719.747 448.638 719.591L449.411 722.29Z" fill="#1C1C1D"/>
</g>
<g filter="url(#filter2_d_2_79)">
<rect x="291.905" y="372.161" width="144.541" height="132.001" rx="10.5706" transform="rotate(3 291.905 372.161)" fill="#1BDBC4"/>
<rect x="292.905" y="373.272" width="142.427" height="129.887" rx="9.51356" transform="rotate(3 292.905 373.272)" stroke="#1C1C1D" stroke-width="2.11413"/>
</g>
<path d="M342.707 459.782C341.939 459.741 341.206 459.58 340.51 459.296C339.823 459.013 339.298 458.66 338.935 458.235L339.408 457.416C339.763 457.81 340.244 458.141 340.852 458.41C341.461 458.669 342.096 458.816 342.756 458.851C343.682 458.899 344.385 458.768 344.866 458.457C345.347 458.137 345.602 457.706 345.63 457.164C345.652 456.75 345.541 456.413 345.298 456.153C345.064 455.894 344.769 455.691 344.411 455.544C344.054 455.387 343.554 455.212 342.912 455.021C342.144 454.783 341.533 454.563 341.079 454.362C340.626 454.15 340.242 453.848 339.927 453.456C339.621 453.065 339.485 452.549 339.519 451.909C339.546 451.386 339.709 450.921 340.007 450.512C340.305 450.093 340.747 449.77 341.332 449.544C341.917 449.317 342.633 449.227 343.48 449.271C344.071 449.302 344.643 449.416 345.196 449.613C345.759 449.8 346.24 450.048 346.639 450.355L346.224 451.208C345.805 450.899 345.353 450.663 344.868 450.5C344.383 450.326 343.904 450.227 343.431 450.202C342.525 450.155 341.831 450.296 341.349 450.626C340.878 450.947 340.628 451.384 340.599 451.936C340.577 452.349 340.683 452.691 340.916 452.96C341.159 453.22 341.464 453.428 341.831 453.586C342.209 453.734 342.714 453.904 343.346 454.095C344.095 454.322 344.696 454.541 345.149 454.753C345.613 454.955 345.997 455.252 346.303 455.643C346.609 456.025 346.745 456.531 346.712 457.161C346.685 457.683 346.517 458.154 346.208 458.572C345.91 458.981 345.464 459.299 344.869 459.525C344.275 459.74 343.554 459.826 342.707 459.782ZM353.271 459.772C353.064 459.939 352.811 460.064 352.51 460.147C352.22 460.221 351.917 460.25 351.602 460.233C350.873 460.195 350.321 459.968 349.948 459.554C349.574 459.139 349.407 458.572 349.444 457.853L349.691 453.153L348.301 453.08L348.348 452.194L349.737 452.266L349.826 450.567L350.875 450.622L350.786 452.321L353.151 452.445L353.104 453.332L350.74 453.208L350.497 457.849C350.472 458.312 350.567 458.672 350.781 458.93C351.005 459.179 351.334 459.315 351.767 459.338C351.984 459.349 352.193 459.325 352.393 459.267C352.604 459.209 352.786 459.119 352.941 458.999L353.271 459.772ZM362.259 457.146L355.757 456.805C355.774 457.616 356.05 458.288 356.585 458.82C357.121 459.342 357.817 459.625 358.674 459.67C359.157 459.695 359.605 459.635 360.017 459.489C360.431 459.332 360.794 459.095 361.107 458.775L361.663 459.486C361.296 459.882 360.846 460.174 360.312 460.364C359.789 460.553 359.217 460.632 358.596 460.6C357.798 460.558 357.097 460.353 356.494 459.986C355.901 459.609 355.448 459.111 355.135 458.492C354.822 457.873 354.685 457.184 354.725 456.425C354.764 455.667 354.963 454.995 355.319 454.411C355.686 453.828 356.163 453.384 356.752 453.079C357.351 452.774 358.01 452.641 358.729 452.678C359.449 452.716 360.085 452.917 360.639 453.282C361.193 453.647 361.617 454.139 361.91 454.757C362.205 455.365 362.331 456.053 362.291 456.822L362.259 457.146ZM358.682 453.58C357.933 453.541 357.29 453.749 356.753 454.205C356.225 454.651 355.907 455.257 355.798 456.022L361.31 456.311C361.282 455.539 361.023 454.903 360.536 454.403C360.059 453.894 359.441 453.62 358.682 453.58ZM369.061 453.22C369.79 453.258 370.441 453.46 371.015 453.826C371.589 454.182 372.028 454.669 372.331 455.288C372.635 455.907 372.766 456.6 372.726 457.369C372.685 458.147 372.482 458.828 372.115 459.411C371.749 459.995 371.261 460.438 370.652 460.742C370.054 461.037 369.386 461.165 368.647 461.126C368.016 461.093 367.451 460.935 366.952 460.652C366.464 460.36 366.07 459.954 365.771 459.434L365.545 463.765L364.495 463.71L365.053 453.069L366.058 453.122L365.977 454.659C366.319 454.163 366.754 453.79 367.281 453.541C367.817 453.293 368.411 453.186 369.061 453.22ZM368.622 460.191C369.163 460.22 369.662 460.122 370.119 459.899C370.576 459.666 370.939 459.325 371.21 458.875C371.49 458.425 371.646 457.905 371.677 457.314C371.708 456.722 371.607 456.194 371.375 455.727C371.153 455.251 370.827 454.873 370.397 454.594C369.967 454.314 369.481 454.161 368.939 454.132C368.387 454.103 367.883 454.205 367.426 454.438C366.979 454.672 366.616 455.013 366.335 455.463C366.065 455.903 365.915 456.419 365.884 457.01C365.853 457.601 365.948 458.135 366.17 458.611C366.402 459.087 366.728 459.465 367.148 459.744C367.579 460.013 368.07 460.162 368.622 460.191ZM377.164 461.573C376.533 461.54 375.932 461.419 375.36 461.211C374.798 460.994 374.362 460.739 374.051 460.446L374.568 459.644C374.879 459.917 375.277 460.15 375.761 460.343C376.245 460.527 376.753 460.632 377.286 460.66C377.995 460.697 378.523 460.616 378.869 460.417C379.226 460.209 379.415 459.902 379.436 459.499C379.451 459.213 379.369 458.986 379.19 458.819C379.012 458.641 378.782 458.506 378.5 458.412C378.219 458.309 377.844 458.205 377.375 458.101C376.751 457.95 376.25 457.805 375.872 457.667C375.494 457.519 375.175 457.289 374.915 456.979C374.664 456.67 374.553 456.254 374.58 455.732C374.614 455.082 374.913 454.564 375.476 454.178C376.04 453.793 376.805 453.626 377.77 453.676C378.273 453.703 378.771 453.798 379.267 453.962C379.762 454.117 380.167 454.311 380.481 454.544L379.979 455.363C379.361 454.886 378.61 454.624 377.723 454.578C377.053 454.543 376.539 454.634 376.182 454.853C375.835 455.072 375.651 455.373 375.631 455.757C375.615 456.053 375.697 456.294 375.874 456.481C376.062 456.669 376.297 456.815 376.578 456.918C376.859 457.012 377.249 457.117 377.747 457.232C378.361 457.382 378.853 457.527 379.221 457.665C379.589 457.802 379.899 458.021 380.15 458.321C380.401 458.62 380.513 459.022 380.487 459.524C380.451 460.204 380.137 460.731 379.544 461.105C378.962 461.469 378.169 461.625 377.164 461.573Z" fill="#1C1C1D"/>
<path d="M332.302 428.1C334.906 428.237 336.796 428.856 337.973 429.959C339.168 431.062 339.72 432.485 339.628 434.227C339.569 435.353 339.234 436.367 338.622 437.27C338.011 438.155 337.11 438.849 335.92 439.351C334.747 439.837 333.317 440.035 331.628 439.947C330.326 439.879 329.05 439.644 327.801 439.243C326.571 438.826 325.532 438.278 324.685 437.598L326.546 434.414C327.222 434.979 328.01 435.435 328.909 435.782C329.809 436.111 330.743 436.301 331.71 436.352C332.784 436.408 333.639 436.242 334.277 435.852C334.915 435.462 335.254 434.888 335.293 434.132C335.335 433.34 335.041 432.725 334.411 432.286C333.799 431.848 332.701 431.588 331.118 431.505L326.394 431.257L327.889 420.909L339.157 421.5L338.978 424.931L331.272 424.527L330.797 428.021L332.302 428.1ZM349.434 440.88C347.904 440.8 346.56 440.35 345.403 439.531C344.246 438.712 343.362 437.571 342.751 436.11C342.158 434.633 341.914 432.9 342.018 430.912C342.122 428.924 342.546 427.235 343.289 425.845C344.051 424.438 345.05 423.388 346.286 422.694C347.522 422 348.905 421.693 350.436 421.773C351.966 421.854 353.31 422.303 354.467 423.123C355.623 423.942 356.498 425.09 357.091 426.568C357.703 428.029 357.956 429.754 357.852 431.742C357.748 433.73 357.315 435.427 356.553 436.834C355.81 438.224 354.82 439.266 353.584 439.96C352.348 440.653 350.965 440.96 349.434 440.88ZM349.624 437.264C350.75 437.324 351.655 436.886 352.339 435.951C353.04 435.018 353.444 433.539 353.55 431.516C353.656 429.493 353.409 427.98 352.809 426.979C352.226 425.978 351.372 425.448 350.246 425.389C349.138 425.331 348.233 425.768 347.531 426.702C346.847 427.636 346.452 429.115 346.346 431.139C346.24 433.162 346.478 434.674 347.061 435.675C347.661 436.676 348.515 437.206 349.624 437.264ZM367.821 441.844C366.29 441.763 364.946 441.314 363.79 440.494C362.633 439.675 361.749 438.535 361.137 437.074C360.544 435.596 360.3 433.863 360.404 431.875C360.508 429.887 360.932 428.198 361.675 426.808C362.437 425.401 363.436 424.351 364.672 423.657C365.908 422.964 367.291 422.657 368.822 422.737C370.353 422.817 371.696 423.267 372.853 424.086C374.01 424.905 374.885 426.054 375.477 427.532C376.089 428.993 376.343 430.717 376.238 432.705C376.134 434.693 375.701 436.391 374.939 437.797C374.196 439.187 373.207 440.229 371.971 440.923C370.735 441.617 369.351 441.924 367.821 441.844ZM368.01 438.228C369.136 438.287 370.041 437.849 370.725 436.915C371.427 435.981 371.831 434.503 371.937 432.48C372.043 430.456 371.796 428.944 371.195 427.942C370.613 426.941 369.758 426.411 368.632 426.352C367.524 426.294 366.619 426.732 365.917 427.666C365.233 428.6 364.838 430.079 364.732 432.102C364.626 434.125 364.864 435.637 365.447 436.638C366.047 437.64 366.902 438.17 368.01 438.228ZM386.207 442.807C384.676 442.727 383.333 442.277 382.176 441.458C381.019 440.639 380.135 439.499 379.524 438.038C378.931 436.56 378.686 434.827 378.791 432.839C378.895 430.851 379.319 429.162 380.062 427.772C380.824 426.365 381.822 425.315 383.058 424.621C384.294 423.927 385.678 423.62 387.208 423.701C388.739 423.781 390.083 424.23 391.239 425.05C392.396 425.869 393.271 427.017 393.864 428.495C394.475 429.956 394.729 431.681 394.625 433.669C394.521 435.657 394.088 437.354 393.326 438.761C392.583 440.151 391.593 441.193 390.357 441.887C389.121 442.581 387.738 442.887 386.207 442.807ZM386.397 439.192C387.523 439.251 388.428 438.813 389.112 437.879C389.813 436.945 390.217 435.467 390.323 433.443C390.429 431.42 390.182 429.908 389.582 428.906C388.999 427.905 388.145 427.375 387.019 427.316C385.911 427.258 385.006 427.696 384.304 428.629C383.62 429.564 383.225 431.042 383.119 433.066C383.013 435.089 383.251 436.601 383.834 437.602C384.434 438.604 385.288 439.134 386.397 439.192Z" fill="#1C1C1D"/>
<g filter="url(#filter3_d_2_79)">
<rect x="284.499" y="513.473" width="144.541" height="132.001" rx="10.5706" transform="rotate(3 284.499 513.473)" fill="#7711DD"/>
<rect x="285.5" y="514.584" width="142.427" height="129.887" rx="9.51356" transform="rotate(3 285.5 514.584)" stroke="#1C1C1D" stroke-width="2.11413"/>
</g>
<path d="M324.384 599.483L324.335 600.429L317.019 600.046L317.561 589.701L324.655 590.073L324.606 591.018L318.605 590.704L318.413 594.384L323.762 594.664L323.714 595.595L318.364 595.315L318.162 599.157L324.384 599.483ZM331.84 600.823L329.543 597.442L326.889 600.563L325.707 600.501L328.99 596.672L326.262 592.735L327.445 592.797L329.62 595.964L332.115 593.042L333.267 593.103L330.143 596.733L333.037 600.885L331.84 600.823ZM341.887 597.778L335.385 597.437C335.401 598.248 335.677 598.919 336.213 599.451C336.748 599.973 337.445 600.257 338.302 600.302C338.785 600.327 339.232 600.267 339.645 600.12C340.058 599.964 340.422 599.726 340.735 599.407L341.29 600.118C340.924 600.513 340.474 600.806 339.94 600.995C339.417 601.185 338.844 601.264 338.224 601.231C337.426 601.189 336.725 600.985 336.122 600.617C335.529 600.24 335.076 599.742 334.763 599.123C334.449 598.504 334.313 597.815 334.352 597.057C334.392 596.298 334.59 595.627 334.947 595.043C335.313 594.46 335.791 594.015 336.38 593.71C336.979 593.406 337.638 593.272 338.357 593.31C339.076 593.348 339.713 593.549 340.267 593.914C340.821 594.279 341.245 594.77 341.538 595.388C341.832 595.997 341.959 596.685 341.919 597.453L341.887 597.778ZM338.31 594.212C337.561 594.172 336.918 594.381 336.38 594.837C335.853 595.283 335.535 595.889 335.426 596.654L340.938 596.943C340.909 596.17 340.651 595.535 340.164 595.035C339.686 594.526 339.069 594.251 338.31 594.212ZM345.606 595.276C345.879 594.766 346.265 594.391 346.761 594.151C347.268 593.91 347.881 593.809 348.6 593.847L348.547 594.867L348.296 594.839C347.478 594.796 346.825 595.013 346.335 595.492C345.846 595.97 345.578 596.662 345.53 597.569L345.323 601.529L344.273 601.474L344.681 593.701L345.686 593.753L345.606 595.276ZM353.657 602.04C352.889 602 352.208 601.796 351.615 601.429C351.031 601.063 350.583 600.57 350.27 599.951C349.957 599.322 349.82 598.628 349.86 597.87C349.9 597.111 350.108 596.44 350.484 595.857C350.86 595.274 351.358 594.831 351.976 594.528C352.605 594.225 353.303 594.093 354.072 594.134C354.742 594.169 355.331 594.333 355.839 594.626C356.358 594.91 356.756 595.312 357.036 595.83L356.224 596.321C355.988 595.923 355.678 595.621 355.294 595.413C354.91 595.195 354.487 595.074 354.024 595.05C353.462 595.02 352.948 595.122 352.481 595.354C352.025 595.577 351.657 595.914 351.376 596.363C351.106 596.814 350.955 597.334 350.924 597.925C350.893 598.526 350.988 599.065 351.21 599.541C351.442 600.007 351.773 600.38 352.203 600.66C352.644 600.93 353.145 601.08 353.706 601.109C354.169 601.133 354.603 601.062 355.007 600.896C355.411 600.729 355.751 600.46 356.027 600.09L356.782 600.663C356.451 601.149 356.012 601.511 355.466 601.75C354.92 601.978 354.317 602.075 353.657 602.04ZM359.597 594.482L360.646 594.537L360.238 602.311L359.189 602.256L359.597 594.482ZM360.218 592.811C360.001 592.799 359.822 592.716 359.682 592.56C359.542 592.405 359.478 592.224 359.489 592.017C359.499 591.82 359.582 591.651 359.737 591.511C359.893 591.371 360.079 591.307 360.296 591.318C360.513 591.329 360.691 591.413 360.831 591.568C360.972 591.714 361.037 591.885 361.026 592.083C361.015 592.299 360.932 592.478 360.776 592.618C360.621 592.758 360.434 592.822 360.218 592.811ZM365.66 602.669C365.03 602.636 364.428 602.516 363.856 602.308C363.295 602.091 362.859 601.836 362.548 601.543L363.064 600.74C363.376 601.013 363.774 601.246 364.257 601.44C364.742 601.623 365.25 601.729 365.782 601.757C366.491 601.794 367.019 601.713 367.366 601.514C367.722 601.305 367.911 600.999 367.932 600.595C367.947 600.309 367.865 600.083 367.687 599.915C367.508 599.738 367.278 599.602 366.997 599.509C366.715 599.405 366.341 599.301 365.872 599.198C365.247 599.046 364.746 598.902 364.368 598.763C363.991 598.615 363.672 598.386 363.411 598.076C363.161 597.766 363.049 597.351 363.077 596.828C363.111 596.178 363.409 595.66 363.973 595.275C364.537 594.889 365.301 594.722 366.267 594.773C366.769 594.799 367.268 594.894 367.763 595.059C368.259 595.213 368.664 595.407 368.978 595.641L368.475 596.459C367.858 595.982 367.106 595.721 366.219 595.674C365.549 595.639 365.036 595.731 364.679 595.949C364.331 596.168 364.147 596.47 364.127 596.854C364.112 597.149 364.193 597.391 364.371 597.578C364.559 597.766 364.793 597.911 365.074 598.015C365.356 598.109 365.746 598.213 366.243 598.328C366.858 598.479 367.349 598.623 367.717 598.761C368.086 598.899 368.395 599.118 368.646 599.417C368.897 599.717 369.01 600.118 368.983 600.62C368.948 601.3 368.634 601.827 368.041 602.201C367.459 602.566 366.665 602.722 365.66 602.669ZM378.188 599.68L371.686 599.339C371.702 600.15 371.979 600.822 372.514 601.354C373.05 601.876 373.746 602.159 374.603 602.204C375.086 602.23 375.534 602.169 375.946 602.023C376.36 601.867 376.723 601.629 377.036 601.309L377.591 602.02C377.225 602.416 376.775 602.708 376.241 602.898C375.718 603.088 375.145 603.166 374.525 603.134C373.727 603.092 373.026 602.887 372.423 602.52C371.83 602.143 371.377 601.645 371.064 601.026C370.751 600.407 370.614 599.718 370.653 598.959C370.693 598.201 370.891 597.529 371.248 596.945C371.615 596.362 372.092 595.918 372.681 595.613C373.28 595.308 373.939 595.175 374.658 595.212C375.378 595.25 376.014 595.451 376.568 595.816C377.122 596.181 377.546 596.673 377.839 597.291C378.133 597.899 378.26 598.587 378.22 599.356L378.188 599.68ZM374.611 596.114C373.862 596.075 373.219 596.283 372.682 596.739C372.154 597.186 371.836 597.791 371.727 598.556L377.239 598.845C377.21 598.073 376.952 597.437 376.465 596.937C375.988 596.428 375.37 596.154 374.611 596.114ZM382.654 603.56C382.024 603.527 381.422 603.406 380.85 603.199C380.289 602.981 379.853 602.726 379.542 602.433L380.058 601.631C380.37 601.904 380.768 602.137 381.252 602.33C381.736 602.514 382.244 602.62 382.776 602.647C383.486 602.685 384.013 602.604 384.36 602.404C384.717 602.196 384.905 601.89 384.927 601.486C384.942 601.2 384.86 600.973 384.681 600.806C384.502 600.629 384.272 600.493 383.991 600.399C383.71 600.296 383.335 600.192 382.866 600.088C382.242 599.937 381.74 599.792 381.362 599.654C380.985 599.506 380.666 599.277 380.405 598.967C380.155 598.657 380.043 598.241 380.071 597.719C380.105 597.069 380.404 596.551 380.967 596.166C381.531 595.78 382.295 595.613 383.261 595.663C383.763 595.69 384.262 595.785 384.757 595.949C385.253 596.104 385.658 596.298 385.972 596.532L385.469 597.35C384.852 596.873 384.1 596.611 383.214 596.565C382.544 596.53 382.03 596.621 381.673 596.84C381.325 597.059 381.142 597.36 381.121 597.744C381.106 598.04 381.187 598.281 381.365 598.469C381.553 598.656 381.787 598.802 382.068 598.905C382.35 598.999 382.74 599.104 383.237 599.219C383.852 599.369 384.343 599.514 384.712 599.652C385.08 599.789 385.389 600.008 385.64 600.308C385.891 600.608 386.004 601.009 385.977 601.511C385.942 602.191 385.628 602.718 385.035 603.092C384.453 603.456 383.659 603.612 382.654 603.56Z" fill="white"/>
<path d="M349.5 563.741L348.532 582.214L344.257 581.99L345.045 566.948L341.35 566.754L341.53 563.324L349.5 563.741ZM366.201 579.647L366.018 583.131L352.058 582.399L352.203 579.628L359.681 573.272C360.475 572.59 361.018 572.001 361.308 571.505C361.6 570.991 361.759 570.479 361.786 569.969C361.825 569.23 361.599 568.653 361.109 568.24C360.638 567.809 359.918 567.569 358.95 567.518C358.141 567.475 357.403 567.596 356.735 567.878C356.069 568.143 355.499 568.572 355.027 569.165L352.018 566.996C352.796 565.96 353.834 565.177 355.132 564.645C356.431 564.096 357.898 563.864 359.534 563.95C360.907 564.021 362.091 564.313 363.088 564.824C364.103 565.318 364.87 565.993 365.389 566.85C365.928 567.69 366.168 568.664 366.11 569.772C366.057 570.775 365.797 571.705 365.328 572.563C364.86 573.42 363.989 574.38 362.716 575.442L358.257 579.231L366.201 579.647Z" fill="white"/>
<g filter="url(#filter4_d_2_79)">
<rect x="445.731" y="380.223" width="144.541" height="132.001" rx="10.5706" transform="rotate(3 445.731 380.223)" fill="#7711DD"/>
<rect x="446.731" y="381.334" width="142.427" height="129.887" rx="9.51356" transform="rotate(3 446.731 381.334)" stroke="#1C1C1D" stroke-width="2.11413"/>
</g>
<path d="M499.585 457.541L499.043 467.886L497.994 467.831L498.428 459.555L493.999 466.303L493.482 466.276L489.78 459.146L489.349 467.378L488.299 467.323L488.841 456.978L489.743 457.025L493.834 464.931L498.684 457.494L499.585 457.541ZM509.57 464.866L503.067 464.525C503.084 465.336 503.36 466.008 503.895 466.54C504.431 467.062 505.127 467.345 505.985 467.39C506.467 467.416 506.915 467.355 507.328 467.209C507.741 467.053 508.104 466.815 508.417 466.495L508.973 467.206C508.606 467.602 508.156 467.894 507.623 468.084C507.099 468.274 506.527 468.352 505.906 468.32C505.108 468.278 504.408 468.073 503.804 467.706C503.212 467.329 502.759 466.831 502.445 466.212C502.132 465.593 501.995 464.904 502.035 464.145C502.075 463.387 502.273 462.715 502.63 462.131C502.996 461.548 503.474 461.104 504.063 460.799C504.662 460.494 505.321 460.361 506.04 460.398C506.759 460.436 507.396 460.638 507.95 461.002C508.503 461.367 508.927 461.859 509.221 462.477C509.515 463.085 509.642 463.773 509.602 464.542L509.57 464.866ZM505.993 461.3C505.244 461.261 504.601 461.469 504.063 461.925C503.536 462.372 503.217 462.977 503.108 463.742L508.621 464.031C508.592 463.259 508.334 462.623 507.846 462.123C507.369 461.614 506.751 461.34 505.993 461.3ZM516.074 468.304C515.868 468.471 515.614 468.596 515.314 468.679C515.023 468.753 514.721 468.782 514.405 468.765C513.676 468.727 513.125 468.5 512.751 468.086C512.378 467.671 512.21 467.104 512.248 466.385L512.494 461.685L511.105 461.612L511.151 460.726L512.541 460.798L512.63 459.099L513.679 459.154L513.59 460.853L515.954 460.977L515.908 461.864L513.543 461.74L513.3 466.381C513.276 466.844 513.371 467.204 513.584 467.463C513.808 467.711 514.137 467.847 514.571 467.87C514.787 467.881 514.996 467.858 515.197 467.799C515.407 467.741 515.59 467.652 515.744 467.531L516.074 468.304ZM525.063 465.678L518.56 465.337C518.577 466.148 518.853 466.82 519.388 467.352C519.924 467.874 520.621 468.157 521.478 468.202C521.961 468.228 522.408 468.167 522.821 468.021C523.234 467.865 523.597 467.627 523.911 467.307L524.466 468.018C524.1 468.414 523.65 468.706 523.116 468.896C522.592 469.086 522.02 469.164 521.399 469.132C520.601 469.09 519.901 468.885 519.298 468.518C518.705 468.141 518.252 467.643 517.939 467.024C517.625 466.405 517.488 465.716 517.528 464.957C517.568 464.199 517.766 463.527 518.123 462.943C518.489 462.36 518.967 461.916 519.556 461.611C520.155 461.306 520.814 461.173 521.533 461.21C522.252 461.248 522.889 461.449 523.443 461.814C523.997 462.179 524.42 462.671 524.714 463.289C525.008 463.897 525.135 464.585 525.095 465.354L525.063 465.678ZM521.486 462.112C520.737 462.073 520.094 462.281 519.556 462.737C519.029 463.184 518.711 463.789 518.601 464.554L524.114 464.843C524.085 464.071 523.827 463.435 523.34 462.935C522.862 462.426 522.244 462.152 521.486 462.112ZM528.782 463.176C529.055 462.667 529.441 462.292 529.937 462.051C530.444 461.811 531.057 461.71 531.776 461.747L531.722 462.767L531.472 462.739C530.654 462.696 530.001 462.914 529.511 463.392C529.022 463.87 528.753 464.563 528.706 465.469L528.498 469.43L527.449 469.375L527.856 461.601L528.861 461.654L528.782 463.176ZM535.825 469.888C535.195 469.855 534.593 469.734 534.021 469.526C533.46 469.309 533.024 469.054 532.713 468.761L533.229 467.959C533.541 468.232 533.939 468.465 534.422 468.658C534.907 468.842 535.415 468.947 535.947 468.975C536.656 469.013 537.184 468.932 537.531 468.732C537.887 468.524 538.076 468.218 538.097 467.814C538.112 467.528 538.03 467.301 537.852 467.134C537.673 466.957 537.443 466.821 537.162 466.727C536.88 466.624 536.505 466.52 536.037 466.416C535.412 466.265 534.911 466.12 534.533 465.982C534.156 465.834 533.837 465.605 533.576 465.294C533.326 464.985 533.214 464.569 533.242 464.047C533.276 463.397 533.574 462.879 534.138 462.493C534.702 462.108 535.466 461.941 536.432 461.991C536.934 462.018 537.433 462.113 537.928 462.277C538.424 462.432 538.829 462.626 539.143 462.859L538.64 463.678C538.023 463.201 537.271 462.939 536.384 462.893C535.714 462.858 535.201 462.949 534.844 463.168C534.496 463.387 534.312 463.688 534.292 464.072C534.277 464.368 534.358 464.609 534.536 464.796C534.724 464.984 534.958 465.13 535.239 465.233C535.521 465.327 535.91 465.432 536.408 465.547C537.023 465.697 537.514 465.842 537.882 465.98C538.251 466.117 538.56 466.336 538.811 466.636C539.062 466.935 539.175 467.337 539.148 467.839C539.113 468.519 538.799 469.046 538.206 469.42C537.624 469.784 536.83 469.94 535.825 469.888Z" fill="white"/>
<path d="M492.617 444.176L489.609 444.019L489.405 447.898L485.236 447.679L485.439 443.8L475.49 443.279L475.641 440.402L484.963 429.141L489.45 429.376L480.792 440.063L485.753 440.323L485.935 436.866L489.972 437.078L489.791 440.535L492.8 440.693L492.617 444.176ZM516.101 445.804L515.919 449.287L501.958 448.556L502.103 445.785L509.581 439.429C510.376 438.747 510.918 438.158 511.209 437.662C511.5 437.148 511.66 436.636 511.686 436.125C511.725 435.386 511.499 434.81 511.009 434.396C510.538 433.966 509.819 433.725 508.851 433.674C508.042 433.632 507.303 433.752 506.636 434.035C505.969 434.3 505.4 434.729 504.927 435.321L501.918 433.152C502.696 432.117 503.734 431.333 505.032 430.802C506.331 430.252 507.799 430.02 509.435 430.106C510.807 430.178 511.991 430.469 512.988 430.98C514.003 431.475 514.77 432.15 515.29 433.006C515.828 433.846 516.068 434.82 516.01 435.929C515.957 436.931 515.697 437.862 515.229 438.719C514.76 439.577 513.89 440.537 512.617 441.599L508.158 445.388L516.101 445.804ZM526.007 450.134C524.476 450.053 523.132 449.604 521.976 448.785C520.819 447.965 519.935 446.825 519.323 445.364C518.73 443.886 518.486 442.154 518.59 440.165C518.694 438.177 519.118 436.488 519.861 435.098C520.623 433.692 521.622 432.641 522.858 431.947C524.094 431.254 525.477 430.947 527.008 431.027C528.539 431.107 529.882 431.557 531.039 432.376C532.196 433.195 533.07 434.344 533.663 435.822C534.275 437.283 534.529 439.007 534.424 440.995C534.32 442.983 533.887 444.681 533.125 446.087C532.382 447.478 531.393 448.519 530.157 449.213C528.921 449.907 527.537 450.214 526.007 450.134ZM526.196 446.518C527.322 446.577 528.227 446.14 528.911 445.205C529.613 444.272 530.017 442.793 530.123 440.77C530.229 438.747 529.982 437.234 529.381 436.232C528.799 435.231 527.944 434.702 526.818 434.643C525.71 434.584 524.805 435.022 524.103 435.956C523.419 436.89 523.024 438.369 522.918 440.392C522.812 442.416 523.05 443.928 523.633 444.928C524.233 445.93 525.088 446.46 526.196 446.518ZM544.393 451.097C542.862 451.017 541.519 450.567 540.362 449.748C539.205 448.929 538.321 447.789 537.71 446.328C537.117 444.85 536.872 443.117 536.977 441.129C537.081 439.141 537.504 437.452 538.248 436.062C539.009 434.655 540.008 433.605 541.244 432.911C542.48 432.217 543.864 431.91 545.394 431.991C546.925 432.071 548.269 432.521 549.425 433.34C550.582 434.159 551.457 435.308 552.05 436.785C552.661 438.246 552.915 439.971 552.811 441.959C552.707 443.947 552.274 445.644 551.512 447.051C550.769 448.441 549.779 449.483 548.543 450.177C547.307 450.871 545.924 451.178 544.393 451.097ZM544.582 447.482C545.708 447.541 546.614 447.103 547.298 446.169C547.999 445.235 548.403 443.757 548.509 441.733C548.615 439.71 548.368 438.198 547.768 437.196C547.185 436.195 546.331 435.665 545.205 435.606C544.096 435.548 543.191 435.986 542.49 436.919C541.806 437.854 541.411 439.333 541.305 441.356C541.199 443.379 541.437 444.891 542.02 445.892C542.62 446.894 543.474 447.424 544.582 447.482Z" fill="white"/>
<g filter="url(#filter5_d_2_79)">
<rect x="438.325" y="521.534" width="144.541" height="132.001" rx="10.5706" transform="rotate(3 438.325 521.534)" fill="#1BDBC4"/>
<rect x="439.325" y="522.645" width="142.427" height="129.887" rx="9.51356" transform="rotate(3 439.325 522.645)" stroke="#1C1C1D" stroke-width="2.11413"/>
</g>
<path d="M459.142 604.723L453.378 604.421L451.992 607.12L450.854 607.06L456.125 596.963L457.204 597.019L461.391 607.612L460.239 607.552L459.142 604.723ZM458.789 603.815L456.598 598.129L453.824 603.555L458.789 603.815ZM466.449 607.951C465.68 607.911 464.999 607.707 464.406 607.34C463.823 606.974 463.374 606.481 463.061 605.862C462.748 605.233 462.612 604.539 462.651 603.781C462.691 603.022 462.899 602.351 463.276 601.768C463.652 601.185 464.149 600.742 464.768 600.439C465.396 600.136 466.095 600.004 466.863 600.045C467.533 600.08 468.122 600.244 468.63 600.537C469.149 600.822 469.548 601.223 469.827 601.741L469.016 602.232C468.78 601.835 468.47 601.532 468.085 601.324C467.702 601.106 467.278 600.985 466.815 600.961C466.254 600.932 465.739 601.033 465.273 601.265C464.817 601.489 464.448 601.825 464.168 602.275C463.897 602.725 463.746 603.245 463.715 603.837C463.684 604.437 463.779 604.976 464.001 605.452C464.234 605.919 464.565 606.292 464.995 606.571C465.435 606.841 465.936 606.991 466.498 607.02C466.961 607.045 467.394 606.973 467.798 606.807C468.202 606.64 468.542 606.372 468.818 606.001L469.574 606.574C469.242 607.06 468.803 607.423 468.257 607.661C467.712 607.889 467.109 607.986 466.449 607.951ZM476.236 600.536C477.212 600.587 477.97 600.913 478.512 601.515C479.063 602.107 479.311 602.945 479.254 604.028L479.018 608.536L477.969 608.481L478.2 604.077C478.242 603.269 478.072 602.643 477.69 602.198C477.309 601.753 476.743 601.511 475.995 601.472C475.157 601.428 474.479 601.644 473.96 602.121C473.451 602.588 473.174 603.26 473.128 604.137L472.914 608.216L471.865 608.161L472.44 597.195L473.489 597.25L473.251 601.802C473.56 601.364 473.972 601.035 474.488 600.815C475.003 600.595 475.586 600.502 476.236 600.536ZM482.696 600.934L483.746 600.989L483.338 608.762L482.289 608.707L482.696 600.934ZM483.317 599.262C483.101 599.251 482.922 599.167 482.782 599.012C482.642 598.856 482.578 598.675 482.588 598.468C482.599 598.271 482.682 598.103 482.837 597.963C482.993 597.822 483.179 597.758 483.396 597.77C483.612 597.781 483.791 597.864 483.931 598.02C484.071 598.166 484.136 598.337 484.126 598.534C484.115 598.751 484.031 598.929 483.876 599.069C483.72 599.209 483.534 599.274 483.317 599.262ZM493.635 605.731L487.133 605.39C487.149 606.201 487.425 606.872 487.961 607.404C488.497 607.926 489.193 608.21 490.05 608.255C490.533 608.28 490.981 608.219 491.393 608.073C491.807 607.917 492.17 607.679 492.483 607.36L493.038 608.07C492.672 608.466 492.222 608.759 491.688 608.948C491.165 609.138 490.592 609.217 489.972 609.184C489.174 609.142 488.473 608.938 487.87 608.57C487.277 608.193 486.824 607.695 486.511 607.076C486.197 606.457 486.061 605.768 486.1 605.01C486.14 604.251 486.338 603.58 486.695 602.996C487.062 602.412 487.539 601.968 488.128 601.663C488.727 601.359 489.386 601.225 490.105 601.263C490.825 601.301 491.461 601.502 492.015 601.867C492.569 602.232 492.993 602.723 493.286 603.341C493.58 603.949 493.707 604.638 493.667 605.406L493.635 605.731ZM490.058 602.164C489.309 602.125 488.666 602.333 488.128 602.789C487.601 603.236 487.283 603.842 487.174 604.607L492.686 604.895C492.657 604.123 492.399 603.487 491.912 602.988C491.435 602.478 490.817 602.204 490.058 602.164ZM502.817 601.988L498.951 609.581L497.872 609.524L494.836 601.57L495.93 601.627L498.494 608.401L501.782 601.934L502.817 601.988ZM511.048 606.643L504.545 606.302C504.562 607.113 504.838 607.785 505.373 608.317C505.909 608.839 506.606 609.122 507.463 609.167C507.946 609.192 508.393 609.132 508.806 608.986C509.219 608.829 509.582 608.592 509.896 608.272L510.451 608.983C510.085 609.379 509.635 609.671 509.101 609.861C508.577 610.05 508.005 610.129 507.384 610.097C506.586 610.055 505.886 609.85 505.283 609.483C504.69 609.106 504.237 608.608 503.924 607.989C503.61 607.37 503.473 606.681 503.513 605.922C503.553 605.164 503.751 604.492 504.108 603.908C504.474 603.325 504.952 602.881 505.541 602.576C506.14 602.271 506.799 602.138 507.518 602.175C508.237 602.213 508.874 602.414 509.428 602.779C509.982 603.144 510.405 603.636 510.699 604.254C510.993 604.862 511.12 605.55 511.08 606.319L511.048 606.643ZM507.471 603.077C506.722 603.038 506.079 603.246 505.541 603.702C505.014 604.148 504.696 604.754 504.586 605.519L510.099 605.808C510.07 605.036 509.812 604.4 509.324 603.9C508.847 603.391 508.229 603.117 507.471 603.077ZM523.539 603.015C524.515 603.066 525.264 603.387 525.786 603.977C526.318 604.568 526.555 605.411 526.498 606.504L526.262 611.012L525.213 610.957L525.443 606.553C525.486 605.745 525.321 605.119 524.949 604.675C524.587 604.231 524.051 603.99 523.342 603.953C522.534 603.911 521.885 604.129 521.396 604.607C520.907 605.075 520.64 605.748 520.594 606.625L520.38 610.704L519.331 610.649L519.562 606.245C519.604 605.437 519.439 604.811 519.067 604.366C518.705 603.923 518.165 603.682 517.445 603.644C516.647 603.602 515.999 603.82 515.499 604.298C515.01 604.766 514.743 605.439 514.697 606.316L514.483 610.395L513.434 610.34L513.841 602.566L514.846 602.619L514.772 604.037C515.073 603.579 515.476 603.235 515.982 603.004C516.488 602.774 517.061 602.676 517.702 602.709C518.352 602.743 518.906 602.911 519.365 603.211C519.833 603.512 520.171 603.94 520.379 604.494C520.692 603.997 521.122 603.619 521.669 603.362C522.226 603.094 522.85 602.979 523.539 603.015ZM536.514 607.978L530.011 607.637C530.028 608.448 530.304 609.119 530.839 609.651C531.375 610.173 532.072 610.457 532.929 610.502C533.411 610.527 533.859 610.467 534.272 610.32C534.685 610.164 535.048 609.926 535.361 609.607L535.917 610.318C535.55 610.713 535.1 611.006 534.567 611.195C534.043 611.385 533.471 611.464 532.85 611.431C532.052 611.389 531.352 611.185 530.749 610.817C530.156 610.44 529.703 609.942 529.389 609.323C529.076 608.704 528.939 608.015 528.979 607.257C529.019 606.498 529.217 605.827 529.574 605.243C529.94 604.659 530.418 604.215 531.007 603.91C531.606 603.606 532.265 603.472 532.984 603.51C533.703 603.548 534.34 603.749 534.894 604.114C535.447 604.479 535.871 604.97 536.165 605.588C536.459 606.197 536.586 606.885 536.546 607.653L536.514 607.978ZM532.937 604.411C532.188 604.372 531.545 604.581 531.007 605.036C530.48 605.483 530.162 606.089 530.052 606.854L535.565 607.143C535.536 606.37 535.278 605.735 534.79 605.235C534.313 604.726 533.695 604.451 532.937 604.411ZM543.271 604.049C544.246 604.1 545.005 604.426 545.546 605.028C546.098 605.62 546.346 606.458 546.289 607.542L546.053 612.049L545.003 611.994L545.234 607.59C545.277 606.782 545.107 606.156 544.725 605.711C544.343 605.266 543.778 605.024 543.029 604.985C542.192 604.941 541.514 605.157 540.995 605.634C540.486 606.101 540.209 606.773 540.163 607.65L539.949 611.729L538.9 611.674L539.307 603.901L540.312 603.953L540.237 605.387C540.548 604.929 540.961 604.585 541.477 604.355C542.003 604.116 542.601 604.014 543.271 604.049ZM553.442 611.962C553.236 612.129 552.982 612.254 552.682 612.337C552.391 612.411 552.088 612.439 551.773 612.423C551.044 612.385 550.493 612.158 550.119 611.744C549.746 611.329 549.578 610.762 549.616 610.043L549.862 605.343L548.473 605.27L548.519 604.383L549.908 604.456L549.998 602.757L551.047 602.812L550.958 604.511L553.322 604.635L553.276 605.522L550.911 605.398L550.668 610.038C550.644 610.501 550.739 610.862 550.952 611.12C551.176 611.369 551.505 611.505 551.939 611.528C552.155 611.539 552.364 611.515 552.565 611.457C552.775 611.399 552.958 611.309 553.112 611.189L553.442 611.962ZM557.83 612.74C557.199 612.707 556.598 612.587 556.026 612.379C555.464 612.162 555.028 611.907 554.717 611.614L555.234 610.811C555.545 611.084 555.943 611.318 556.427 611.511C556.911 611.694 557.42 611.8 557.952 611.828C558.661 611.865 559.189 611.784 559.535 611.585C559.892 611.376 560.081 611.07 560.102 610.666C560.117 610.38 560.035 610.154 559.856 609.986C559.678 609.809 559.448 609.674 559.166 609.58C558.885 609.476 558.51 609.373 558.041 609.269C557.417 609.118 556.916 608.973 556.538 608.834C556.16 608.686 555.841 608.457 555.581 608.147C555.33 607.838 555.219 607.422 555.246 606.9C555.28 606.249 555.579 605.731 556.143 605.346C556.706 604.961 557.471 604.793 558.436 604.844C558.939 604.87 559.437 604.966 559.933 605.13C560.428 605.284 560.833 605.478 561.147 605.712L560.645 606.53C560.028 606.054 559.276 605.792 558.389 605.745C557.719 605.71 557.205 605.802 556.848 606.02C556.501 606.239 556.317 606.541 556.297 606.925C556.281 607.221 556.363 607.462 556.54 607.649C556.728 607.837 556.963 607.982 557.244 608.086C557.525 608.18 557.915 608.284 558.413 608.399C559.027 608.55 559.519 608.694 559.887 608.832C560.255 608.97 560.565 609.189 560.816 609.488C561.067 609.788 561.179 610.189 561.153 610.692C561.117 611.371 560.803 611.898 560.21 612.272C559.628 612.637 558.835 612.793 557.83 612.74Z" fill="#1C1C1D"/>
<path d="M506.287 578.918C508.891 579.054 510.782 579.674 511.959 580.776C513.154 581.88 513.705 583.302 513.614 585.044C513.555 586.17 513.22 587.185 512.608 588.088C511.997 588.973 511.096 589.667 509.905 590.169C508.733 590.654 507.303 590.853 505.614 590.764C504.312 590.696 503.036 590.462 501.787 590.061C500.556 589.644 499.518 589.095 498.671 588.416L500.532 585.232C501.208 585.797 501.995 586.252 502.895 586.599C503.795 586.929 504.729 587.119 505.696 587.17C506.769 587.226 507.625 587.059 508.263 586.669C508.901 586.279 509.24 585.706 509.279 584.949C509.321 584.158 509.027 583.542 508.397 583.104C507.785 582.666 506.687 582.405 505.103 582.322L500.38 582.075L501.875 571.727L513.143 572.317L512.963 575.748L505.257 575.344L504.783 578.839L506.287 578.918Z" fill="#1C1C1D"/>
<g filter="url(#filter6_d_2_79)">
<rect x="292.761" y="194.553" width="315.459" height="155.233" rx="21.1413" transform="rotate(3 292.761 194.553)" fill="white"/>
<rect x="292.761" y="194.553" width="315.459" height="155.233" rx="21.1413" transform="rotate(3 292.761 194.553)" stroke="#1C1C1D" stroke-width="3.17119"/>
</g>
<rect x="327.601" y="216.495" width="10.5706" height="106.763" rx="4.22825" transform="rotate(3 327.601 216.495)" stroke="#1C1C1D" stroke-width="2.11413"/>
<rect x="443.718" y="222.58" width="10.5706" height="106.763" rx="4.22825" transform="rotate(3 443.718 222.58)" stroke="#1C1C1D" stroke-width="2.11413"/>
<rect x="348.39" y="264.159" width="10.5706" height="60.2526" rx="4.22825" transform="rotate(3 348.39 264.159)" stroke="#1C1C1D" stroke-width="2.11413"/>
<rect x="464.508" y="270.244" width="10.5706" height="60.2526" rx="4.22825" transform="rotate(3 464.508 270.244)" stroke="#1C1C1D" stroke-width="2.11413"/>
<rect x="535.119" y="255.95" width="10.5706" height="78.2226" rx="4.22825" transform="rotate(3 535.119 255.95)" stroke="#1C1C1D" stroke-width="2.11413"/>
<rect x="417.563" y="277.311" width="10.5706" height="50.739" rx="4.22825" transform="rotate(3 417.563 277.311)" stroke="#1C1C1D" stroke-width="2.11413"/>
<rect x="556.904" y="284.613" width="10.5706" height="50.739" rx="4.22825" transform="rotate(3 556.904 284.613)" stroke="#1C1C1D" stroke-width="2.11413"/>
<rect x="373.163" y="235.819" width="10.5706" height="89.8503" rx="4.22825" transform="rotate(3 373.163 235.819)" stroke="#1C1C1D" stroke-width="2.11413"/>
<rect x="489.28" y="241.904" width="10.5706" height="89.8503" rx="4.22825" transform="rotate(3 489.28 241.904)" stroke="#1C1C1D" stroke-width="2.11413"/>
<rect x="397.05" y="224.369" width="10.5706" height="102.535" rx="4.22825" transform="rotate(3 397.05 224.369)" stroke="#1C1C1D" stroke-width="2.11413"/>
<rect x="513.168" y="230.454" width="10.5706" height="102.535" rx="4.22825" transform="rotate(3 513.168 230.454)" stroke="#1C1C1D" stroke-width="2.11413"/>
<path d="M328.404 332.402L328.016 339.791L326.306 339.702L326.622 333.685L325.144 333.607L325.216 332.235L328.404 332.402Z" fill="#1C1C1D"/>
<path d="M352.88 339.697L352.807 341.091L347.223 340.798L347.281 339.69L350.272 337.147C350.59 336.874 350.807 336.639 350.923 336.44C351.04 336.235 351.104 336.03 351.114 335.826C351.13 335.53 351.04 335.3 350.844 335.134C350.655 334.962 350.367 334.866 349.98 334.845C349.656 334.828 349.361 334.877 349.094 334.99C348.827 335.096 348.6 335.267 348.411 335.504L347.207 334.637C347.518 334.222 347.933 333.909 348.453 333.696C348.972 333.477 349.559 333.384 350.214 333.418C350.763 333.447 351.236 333.563 351.635 333.768C352.041 333.966 352.348 334.236 352.556 334.578C352.771 334.914 352.867 335.304 352.844 335.747C352.823 336.148 352.719 336.52 352.531 336.863C352.344 337.206 351.996 337.59 351.486 338.015L349.703 339.531L352.88 339.697Z" fill="#1C1C1D"/>
<path d="M374.181 337.818C374.823 337.958 375.306 338.226 375.631 338.625C375.957 339.016 376.105 339.489 376.075 340.045C376.053 340.474 375.92 340.866 375.675 341.22C375.431 341.567 375.071 341.838 374.595 342.032C374.126 342.226 373.558 342.305 372.889 342.27C372.368 342.243 371.858 342.149 371.358 341.989C370.866 341.822 370.451 341.603 370.112 341.331L370.846 340.057C371.116 340.283 371.431 340.465 371.791 340.604C372.158 340.736 372.535 340.812 372.922 340.832C373.351 340.855 373.693 340.792 373.948 340.643C374.203 340.487 374.339 340.258 374.355 339.955C374.387 339.35 373.941 339.023 373.02 338.975L372.238 338.934L372.298 337.804L373.908 336.163L370.762 335.998L370.834 334.626L376.007 334.897L375.948 336.005L374.181 337.818Z" fill="#1C1C1D"/>
<path d="M399.556 341.985L398.353 341.922L398.271 343.473L396.604 343.386L396.685 341.834L392.705 341.626L392.765 340.475L396.495 335.971L398.289 336.065L394.826 340.34L396.811 340.444L396.883 339.061L398.498 339.145L398.426 340.528L399.629 340.591L399.556 341.985Z" fill="#1C1C1D"/>
<path d="M419.706 339.971C420.748 340.026 421.504 340.273 421.975 340.714C422.453 341.156 422.674 341.725 422.637 342.422C422.613 342.872 422.479 343.278 422.234 343.639C421.99 343.993 421.63 344.271 421.154 344.472C420.685 344.666 420.112 344.745 419.437 344.71C418.916 344.682 418.406 344.589 417.906 344.428C417.414 344.261 416.998 344.042 416.66 343.77L417.404 342.497C417.674 342.723 417.99 342.905 418.349 343.044C418.709 343.176 419.083 343.252 419.47 343.272C419.899 343.294 420.241 343.228 420.497 343.072C420.752 342.916 420.887 342.686 420.903 342.384C420.92 342.067 420.802 341.821 420.55 341.645C420.305 341.47 419.866 341.366 419.233 341.333L417.343 341.234L417.941 337.095L422.449 337.331L422.377 338.703L419.294 338.542L419.105 339.94L419.706 339.971Z" fill="#1C1C1D"/>
<path d="M443.733 341.209C444.205 341.234 444.629 341.351 445.006 341.562C445.383 341.772 445.675 342.059 445.882 342.423C446.089 342.779 446.181 343.186 446.157 343.644C446.131 344.136 445.985 344.563 445.719 344.923C445.453 345.283 445.1 345.554 444.66 345.735C444.228 345.91 443.751 345.984 443.23 345.957C442.196 345.902 441.403 345.543 440.852 344.879C440.301 344.215 440.057 343.296 440.118 342.12C440.162 341.283 440.358 340.573 440.706 339.992C441.054 339.41 441.518 338.979 442.097 338.699C442.683 338.42 443.349 338.299 444.095 338.338C444.49 338.359 444.864 338.424 445.218 338.535C445.579 338.638 445.882 338.778 446.127 338.953L445.428 340.176C445.075 339.91 444.621 339.763 444.065 339.734C443.438 339.701 442.933 339.858 442.547 340.205C442.162 340.552 441.937 341.073 441.873 341.768C442.332 341.354 442.952 341.168 443.733 341.209ZM443.202 344.674C443.568 344.694 443.869 344.61 444.105 344.425C444.347 344.24 444.477 343.979 444.495 343.641C444.513 343.303 444.411 343.03 444.189 342.821C443.974 342.605 443.677 342.487 443.297 342.467C442.924 342.447 442.612 342.537 442.362 342.736C442.112 342.927 441.978 343.185 441.961 343.508C441.945 343.832 442.047 344.102 442.268 344.318C442.49 344.535 442.801 344.653 443.202 344.674Z" fill="#1C1C1D"/>
<path d="M468.361 339.737L468.302 340.845L465.229 346.983L463.371 346.885L466.335 341.028L463.886 340.9L463.823 342.103L462.302 342.024L462.439 339.427L468.361 339.737Z" fill="#1C1C1D"/>
<path d="M491.516 344.465C491.873 344.667 492.138 344.921 492.313 345.226C492.494 345.532 492.575 345.879 492.555 346.266C492.531 346.723 492.379 347.118 492.101 347.449C491.823 347.773 491.443 348.018 490.962 348.183C490.48 348.341 489.93 348.404 489.311 348.372C488.692 348.339 488.151 348.219 487.689 348.012C487.235 347.797 486.886 347.514 486.643 347.163C486.408 346.805 486.302 346.397 486.326 345.94C486.347 345.552 486.46 345.216 486.665 344.93C486.878 344.645 487.168 344.421 487.537 344.256C487.271 344.073 487.071 343.851 486.936 343.59C486.802 343.322 486.744 343.022 486.761 342.691C486.784 342.262 486.923 341.895 487.179 341.591C487.435 341.287 487.782 341.062 488.22 340.916C488.658 340.762 489.156 340.7 489.711 340.729C490.274 340.759 490.766 340.873 491.186 341.071C491.614 341.263 491.939 341.523 492.161 341.852C492.384 342.182 492.484 342.561 492.462 342.99C492.444 343.321 492.355 343.613 492.193 343.865C492.032 344.111 491.807 344.311 491.516 344.465ZM489.646 341.985C489.301 341.967 489.018 342.037 488.798 342.195C488.586 342.346 488.472 342.566 488.457 342.854C488.442 343.136 488.533 343.363 488.728 343.536C488.924 343.708 489.198 343.804 489.549 343.822C489.901 343.84 490.187 343.774 490.407 343.623C490.626 343.473 490.743 343.257 490.758 342.975C490.773 342.687 490.679 342.456 490.477 342.283C490.275 342.103 489.998 342.004 489.646 341.985ZM489.377 347.116C489.806 347.138 490.149 347.061 490.405 346.884C490.669 346.7 490.809 346.446 490.826 346.122C490.843 345.799 490.73 345.535 490.486 345.332C490.25 345.129 489.917 345.016 489.488 344.994C489.066 344.972 488.726 345.049 488.47 345.226C488.214 345.403 488.077 345.654 488.06 345.977C488.043 346.308 488.153 346.575 488.389 346.778C488.625 346.981 488.955 347.093 489.377 347.116Z" fill="#1C1C1D"/>
<path d="M512.594 341.928C513.629 341.982 514.421 342.342 514.972 343.006C515.524 343.662 515.768 344.582 515.706 345.764C515.662 346.602 515.466 347.311 515.118 347.893C514.777 348.475 514.314 348.906 513.728 349.186C513.141 349.465 512.475 349.586 511.729 349.547C511.335 349.526 510.961 349.464 510.606 349.361C510.252 349.25 509.953 349.108 509.708 348.933L510.407 347.71C510.753 347.975 511.208 348.122 511.771 348.151C512.397 348.184 512.903 348.027 513.288 347.681C513.673 347.327 513.898 346.802 513.963 346.107C513.496 346.527 512.873 346.717 512.091 346.676C511.62 346.651 511.196 346.534 510.818 346.323C510.441 346.113 510.149 345.83 509.942 345.473C509.735 345.109 509.644 344.699 509.668 344.241C509.694 343.749 509.84 343.322 510.105 342.962C510.371 342.602 510.721 342.335 511.153 342.16C511.593 341.978 512.073 341.901 512.594 341.928ZM512.538 345.418C512.911 345.438 513.219 345.352 513.462 345.16C513.713 344.961 513.846 344.7 513.863 344.376C513.88 344.053 513.778 343.783 513.556 343.566C513.342 343.351 513.034 343.232 512.633 343.211C512.267 343.192 511.963 343.275 511.72 343.46C511.485 343.645 511.358 343.906 511.34 344.244C511.323 344.582 511.421 344.859 511.635 345.075C511.857 345.284 512.158 345.399 512.538 345.418Z" fill="#1C1C1D"/>
<path d="M532.895 343.119L532.507 350.508L530.797 350.419L531.112 344.402L529.635 344.324L529.707 342.952L532.895 343.119ZM537.373 350.891C536.761 350.858 536.224 350.679 535.761 350.351C535.298 350.023 534.945 349.567 534.7 348.983C534.463 348.392 534.365 347.698 534.407 346.903C534.448 346.108 534.618 345.432 534.915 344.876C535.22 344.314 535.619 343.894 536.114 343.616C536.608 343.339 537.162 343.216 537.774 343.248C538.386 343.28 538.924 343.46 539.386 343.788C539.849 344.115 540.199 344.575 540.436 345.166C540.681 345.75 540.782 346.44 540.74 347.235C540.699 348.03 540.526 348.709 540.221 349.272C539.924 349.828 539.528 350.245 539.033 350.522C538.539 350.8 537.986 350.923 537.373 350.891ZM537.449 349.444C537.9 349.468 538.262 349.293 538.535 348.919C538.816 348.546 538.977 347.954 539.02 347.145C539.062 346.336 538.963 345.731 538.723 345.33C538.49 344.93 538.148 344.718 537.698 344.694C537.255 344.671 536.893 344.846 536.612 345.219C536.338 345.593 536.18 346.185 536.138 346.994C536.096 347.803 536.191 348.408 536.424 348.808C536.664 349.209 537.006 349.421 537.449 349.444Z" fill="#1C1C1D"/>
<path d="M558.247 344.448L557.859 351.837L556.149 351.747L556.465 345.73L554.987 345.653L555.059 344.281L558.247 344.448ZM562.803 344.687L562.415 352.076L560.705 351.986L561.021 345.969L559.543 345.892L559.615 344.519L562.803 344.687Z" fill="#1C1C1D"/>
</g>
<mask id="path-62-inside-7_2_79" fill="white">
<path fill-rule="evenodd" clip-rule="evenodd" d="M951.946 708.309C975.645 719.729 992 743.978 992 772.046C992 798.251 977.745 821.127 956.566 833.342C954.81 870.832 923.859 900.688 885.935 900.688C882.109 900.688 878.353 900.384 874.692 899.799C861.761 913.956 843.151 922.838 822.467 922.838C808.656 922.838 795.771 918.879 784.883 912.034C772.183 930.885 750.639 943.284 726.199 943.284C697.136 943.284 672.169 925.751 661.297 900.686C611.926 900.373 572 860.254 572 810.809C572 761.171 612.24 720.931 661.878 720.931C662.754 720.931 663.627 720.943 664.497 720.968C672.84 691.211 700.166 669.389 732.588 669.389C756.01 669.389 776.772 680.777 789.639 698.317C795.617 696.676 801.911 695.799 808.41 695.799C814.134 695.799 819.7 696.479 825.031 697.764C837.339 676.955 860.007 663 885.935 663C916.034 663 941.741 681.806 951.946 708.309Z"/>
</mask>
<path fill-rule="evenodd" clip-rule="evenodd" d="M951.946 708.309C975.645 719.729 992 743.978 992 772.046C992 798.251 977.745 821.127 956.566 833.342C954.81 870.832 923.859 900.688 885.935 900.688C882.109 900.688 878.353 900.384 874.692 899.799C861.761 913.956 843.151 922.838 822.467 922.838C808.656 922.838 795.771 918.879 784.883 912.034C772.183 930.885 750.639 943.284 726.199 943.284C697.136 943.284 672.169 925.751 661.297 900.686C611.926 900.373 572 860.254 572 810.809C572 761.171 612.24 720.931 661.878 720.931C662.754 720.931 663.627 720.943 664.497 720.968C672.84 691.211 700.166 669.389 732.588 669.389C756.01 669.389 776.772 680.777 789.639 698.317C795.617 696.676 801.911 695.799 808.41 695.799C814.134 695.799 819.7 696.479 825.031 697.764C837.339 676.955 860.007 663 885.935 663C916.034 663 941.741 681.806 951.946 708.309Z" fill="#7711DD"/>
<path d="M951.946 708.309L949.146 709.387L949.573 710.496L950.643 711.012L951.946 708.309ZM956.566 833.342L955.068 830.743L953.646 831.563L953.57 833.202L956.566 833.342ZM874.692 899.799L875.165 896.836L873.567 896.581L872.476 897.776L874.692 899.799ZM784.883 912.034L786.48 909.494L784.019 907.947L782.395 910.358L784.883 912.034ZM661.297 900.686L664.05 899.492L663.272 897.698L661.316 897.686L661.297 900.686ZM664.497 720.968L664.411 723.967L666.753 724.034L667.385 721.778L664.497 720.968ZM789.639 698.317L787.221 700.092L788.442 701.757L790.434 701.21L789.639 698.317ZM825.031 697.764L824.328 700.68L826.484 701.199L827.613 699.291L825.031 697.764ZM995 772.046C995 742.782 977.946 717.507 953.248 705.607L950.643 711.012C973.345 721.95 989 745.173 989 772.046H995ZM958.065 835.941C980.135 823.212 995 799.367 995 772.046H989C989 797.136 975.355 819.042 955.068 830.743L958.065 835.941ZM885.935 903.688C925.469 903.688 957.733 872.565 959.563 833.482L953.57 833.202C951.888 869.099 922.25 897.688 885.935 897.688V903.688ZM874.218 902.761C878.036 903.371 881.95 903.688 885.935 903.688V897.688C882.268 897.688 878.671 897.396 875.165 896.836L874.218 902.761ZM822.467 925.838C844.029 925.838 863.432 916.576 876.907 901.822L872.476 897.776C860.091 911.337 842.273 919.838 822.467 919.838V925.838ZM783.287 914.574C794.639 921.711 808.075 925.838 822.467 925.838V919.838C809.238 919.838 796.903 916.047 786.48 909.494L783.287 914.574ZM726.199 946.284C751.679 946.284 774.137 933.354 787.371 913.71L782.395 910.358C770.229 928.417 749.599 940.284 726.199 940.284V946.284ZM658.545 901.879C669.875 928.002 695.899 946.284 726.199 946.284V940.284C698.374 940.284 674.463 923.5 664.05 899.492L658.545 901.879ZM569 810.809C569 861.904 610.259 903.363 661.278 903.686L661.316 897.686C613.594 897.384 575 858.603 575 810.809H569ZM661.878 717.931C610.583 717.931 569 759.514 569 810.809H575C575 762.828 613.897 723.931 661.878 723.931V717.931ZM664.583 717.97C663.684 717.944 662.783 717.931 661.878 717.931V723.931C662.725 723.931 663.57 723.943 664.411 723.967L664.583 717.97ZM732.588 666.389C698.786 666.389 670.305 689.14 661.608 720.158L667.385 721.778C675.375 693.282 701.546 672.389 732.588 672.389V666.389ZM792.058 696.543C778.65 678.265 757.006 666.389 732.588 666.389V672.389C755.014 672.389 774.894 683.289 787.221 700.092L792.058 696.543ZM808.41 692.799C801.64 692.799 795.079 693.712 788.845 695.424L790.434 701.21C796.155 699.639 802.182 698.799 808.41 698.799V692.799ZM825.733 694.847C820.175 693.508 814.373 692.799 808.41 692.799V698.799C813.896 698.799 819.226 699.451 824.328 700.68L825.733 694.847ZM827.613 699.291C839.403 679.357 861.111 666 885.935 666V660C858.904 660 835.274 674.553 822.449 696.236L827.613 699.291ZM885.935 666C914.752 666 939.372 684.004 949.146 709.387L954.745 707.231C944.109 679.609 917.316 660 885.935 660V666Z" fill="black" mask="url(#path-62-inside-7_2_79)"/>
<mask id="path-64-inside-8_2_79" fill="white">
<path fill-rule="evenodd" clip-rule="evenodd" d="M177.632 629.686C173.236 637.118 165.14 642.102 155.88 642.102C145.131 642.102 135.95 635.385 132.305 625.92C123.841 621.841 118 613.181 118 603.156C118 593.797 123.091 585.628 130.655 581.265C131.282 567.876 142.336 557.213 155.88 557.213C157.247 557.213 158.588 557.322 159.896 557.531C164.514 552.474 171.16 549.302 178.548 549.302C183.48 549.302 188.082 550.716 191.97 553.161C196.506 546.428 204.2 542 212.929 542C223.308 542 232.225 548.262 236.108 557.214C253.741 557.326 268 571.654 268 589.313C268 607.041 253.629 621.412 235.901 621.412C235.588 621.412 235.276 621.408 234.965 621.399C231.986 632.026 222.226 639.82 210.647 639.82C202.282 639.82 194.867 635.753 190.272 629.488C188.137 630.075 185.889 630.388 183.568 630.388C181.523 630.388 179.536 630.145 177.632 629.686Z"/>
</mask>
<path fill-rule="evenodd" clip-rule="evenodd" d="M177.632 629.686C173.236 637.118 165.14 642.102 155.88 642.102C145.131 642.102 135.95 635.385 132.305 625.92C123.841 621.841 118 613.181 118 603.156C118 593.797 123.091 585.628 130.655 581.265C131.282 567.876 142.336 557.213 155.88 557.213C157.247 557.213 158.588 557.322 159.896 557.531C164.514 552.474 171.16 549.302 178.548 549.302C183.48 549.302 188.082 550.716 191.97 553.161C196.506 546.428 204.2 542 212.929 542C223.308 542 232.225 548.262 236.108 557.214C253.741 557.326 268 571.654 268 589.313C268 607.041 253.629 621.412 235.901 621.412C235.588 621.412 235.276 621.408 234.965 621.399C231.986 632.026 222.226 639.82 210.647 639.82C202.282 639.82 194.867 635.753 190.272 629.488C188.137 630.075 185.889 630.388 183.568 630.388C181.523 630.388 179.536 630.145 177.632 629.686Z" fill="#1BDBC4"/>
<path d="M177.632 629.686L178.334 626.77L176.179 626.25L175.05 628.159L177.632 629.686ZM132.305 625.92L135.105 624.842L134.678 623.733L133.607 623.217L132.305 625.92ZM130.655 581.265L132.154 583.864L133.575 583.044L133.652 581.405L130.655 581.265ZM159.896 557.531L159.423 560.493L161.02 560.748L162.111 559.554L159.896 557.531ZM191.97 553.161L190.374 555.701L192.834 557.248L194.458 554.837L191.97 553.161ZM236.108 557.214L233.356 558.408L234.134 560.201L236.089 560.214L236.108 557.214ZM234.965 621.399L235.051 618.4L232.709 618.333L232.077 620.589L234.965 621.399ZM190.272 629.488L192.691 627.714L191.469 626.048L189.477 626.595L190.272 629.488ZM175.05 628.159C171.172 634.715 164.037 639.102 155.88 639.102L155.88 645.102C166.244 645.102 175.301 639.52 180.214 631.213L175.05 628.159ZM155.88 639.102C146.412 639.102 138.318 633.188 135.105 624.842L129.505 626.998C133.581 637.583 143.849 645.102 155.88 645.102L155.88 639.102ZM115 603.156C115 614.376 121.54 624.063 131.003 628.622L133.607 623.217C126.142 619.62 121 611.986 121 603.156L115 603.156ZM129.156 578.666C120.702 583.543 115 592.682 115 603.156L121 603.156C121 594.913 125.481 587.713 132.154 583.864L129.156 578.666ZM155.88 554.213C140.726 554.213 128.36 566.143 127.658 581.125L133.652 581.405C134.204 569.609 143.946 560.213 155.88 560.213L155.88 554.213ZM160.369 554.568C158.906 554.334 157.406 554.213 155.88 554.213L155.88 560.213C157.088 560.213 158.271 560.309 159.423 560.493L160.369 554.568ZM178.548 546.302C170.283 546.302 162.843 549.855 157.681 555.507L162.111 559.554C166.185 555.094 172.038 552.302 178.548 552.302L178.548 546.302ZM193.567 550.621C189.214 547.885 184.061 546.302 178.548 546.302L178.548 552.302C182.899 552.302 186.949 553.548 190.374 555.701L193.567 550.621ZM212.929 539C203.161 539 194.552 543.96 189.482 551.485L194.458 554.837C198.46 548.897 205.24 545 212.929 545L212.929 539ZM238.86 556.02C234.519 546.011 224.546 539 212.929 539L212.929 545C222.071 545 229.932 550.513 233.356 558.408L238.86 556.02ZM271 589.313C271 570.003 255.408 554.336 236.127 554.214L236.089 560.214C252.073 560.315 265 573.304 265 589.313L271 589.313ZM235.901 624.412C255.285 624.412 271 608.698 271 589.313L265 589.313C265 605.384 251.972 618.412 235.901 618.412L235.901 624.412ZM234.88 624.397C235.219 624.407 235.559 624.412 235.901 624.412L235.901 618.412C235.616 618.412 235.333 618.408 235.051 618.4L234.88 624.397ZM210.647 642.82C223.606 642.82 234.521 634.097 237.854 622.209L232.077 620.589C229.451 629.955 220.847 636.82 210.647 636.82L210.647 642.82ZM187.853 631.263C192.989 638.264 201.286 642.82 210.647 642.82L210.647 636.82C203.278 636.82 196.745 633.241 192.691 627.714L187.853 631.263ZM183.568 633.388C186.16 633.388 188.675 633.038 191.066 632.381L189.477 626.595C187.599 627.111 185.618 627.388 183.568 627.388L183.568 633.388ZM176.929 632.603C179.061 633.116 181.285 633.388 183.568 633.388L183.568 627.388C181.762 627.388 180.01 627.173 178.334 626.77L176.929 632.603Z" fill="black" mask="url(#path-64-inside-8_2_79)"/>
<defs>
<filter id="filter0_d_2_79" x="178" y="25" width="532.757" height="953.858" filterUnits="userSpaceOnUse" color-interpolation-filters="sRGB">
<feFlood flood-opacity="0" result="BackgroundImageFix"/>
<feColorMatrix in="SourceAlpha" type="matrix" values="0 0 0 0 0 0 0 0 0 0 0 0 0 0 0 0 0 0 127 0" result="hardAlpha"/>
<feOffset dx="26.0235" dy="26.0235"/>
<feColorMatrix type="matrix" values="0 0 0 0 0 0 0 0 0 0 0 0 0 0 0 0 0 0 0.13 0"/>
<feBlend mode="normal" in2="BackgroundImageFix" result="effect1_dropShadow_2_79"/>
<feBlend mode="normal" in="SourceGraphic" in2="effect1_dropShadow_2_79" result="shape"/>
</filter>
<filter id="filter1_d_2_79" x="265.124" y="680.302" width="316.684" height="72.4663" filterUnits="userSpaceOnUse" color-interpolation-filters="sRGB">
<feFlood flood-opacity="0" result="BackgroundImageFix"/>
<feColorMatrix in="SourceAlpha" type="matrix" values="0 0 0 0 0 0 0 0 0 0 0 0 0 0 0 0 0 0 127 0" result="hardAlpha"/>
<feOffset dy="4.22825"/>
<feColorMatrix type="matrix" values="0 0 0 0 0.125 0 0 0 0 0.125 0 0 0 0 0.125 0 0 0 1 0"/>
<feBlend mode="normal" in2="BackgroundImageFix" result="effect1_dropShadow_2_79"/>
<feBlend mode="normal" in="SourceGraphic" in2="effect1_dropShadow_2_79" result="shape"/>
</filter>
<filter id="filter2_d_2_79" x="285.535" y="372.7" width="150.175" height="140.422" filterUnits="userSpaceOnUse" color-interpolation-filters="sRGB">
<feFlood flood-opacity="0" result="BackgroundImageFix"/>
<feColorMatrix in="SourceAlpha" type="matrix" values="0 0 0 0 0 0 0 0 0 0 0 0 0 0 0 0 0 0 127 0" result="hardAlpha"/>
<feOffset dy="2.11413"/>
<feColorMatrix type="matrix" values="0 0 0 0 0.12549 0 0 0 0 0.12549 0 0 0 0 0.12549 0 0 0 1 0"/>
<feBlend mode="normal" in2="BackgroundImageFix" result="effect1_dropShadow_2_79"/>
<feBlend mode="normal" in="SourceGraphic" in2="effect1_dropShadow_2_79" result="shape"/>
</filter>
<filter id="filter3_d_2_79" x="278.129" y="514.011" width="150.175" height="140.422" filterUnits="userSpaceOnUse" color-interpolation-filters="sRGB">
<feFlood flood-opacity="0" result="BackgroundImageFix"/>
<feColorMatrix in="SourceAlpha" type="matrix" values="0 0 0 0 0 0 0 0 0 0 0 0 0 0 0 0 0 0 127 0" result="hardAlpha"/>
<feOffset dy="2.11413"/>
<feColorMatrix type="matrix" values="0 0 0 0 0.12549 0 0 0 0 0.12549 0 0 0 0 0.12549 0 0 0 1 0"/>
<feBlend mode="normal" in2="BackgroundImageFix" result="effect1_dropShadow_2_79"/>
<feBlend mode="normal" in="SourceGraphic" in2="effect1_dropShadow_2_79" result="shape"/>
</filter>
<filter id="filter4_d_2_79" x="439.361" y="380.761" width="150.175" height="140.422" filterUnits="userSpaceOnUse" color-interpolation-filters="sRGB">
<feFlood flood-opacity="0" result="BackgroundImageFix"/>
<feColorMatrix in="SourceAlpha" type="matrix" values="0 0 0 0 0 0 0 0 0 0 0 0 0 0 0 0 0 0 127 0" result="hardAlpha"/>
<feOffset dy="2.11413"/>
<feColorMatrix type="matrix" values="0 0 0 0 0.12549 0 0 0 0 0.12549 0 0 0 0 0.12549 0 0 0 1 0"/>
<feBlend mode="normal" in2="BackgroundImageFix" result="effect1_dropShadow_2_79"/>
<feBlend mode="normal" in="SourceGraphic" in2="effect1_dropShadow_2_79" result="shape"/>
</filter>
<filter id="filter5_d_2_79" x="431.955" y="522.073" width="150.175" height="140.422" filterUnits="userSpaceOnUse" color-interpolation-filters="sRGB">
<feFlood flood-opacity="0" result="BackgroundImageFix"/>
<feColorMatrix in="SourceAlpha" type="matrix" values="0 0 0 0 0 0 0 0 0 0 0 0 0 0 0 0 0 0 127 0" result="hardAlpha"/>
<feOffset dy="2.11413"/>
<feColorMatrix type="matrix" values="0 0 0 0 0.12549 0 0 0 0 0.12549 0 0 0 0 0.12549 0 0 0 1 0"/>
<feBlend mode="normal" in2="BackgroundImageFix" result="effect1_dropShadow_2_79"/>
<feBlend mode="normal" in="SourceGraphic" in2="effect1_dropShadow_2_79" result="shape"/>
</filter>
<filter id="filter6_d_2_79" x="284.128" y="194.045" width="324.168" height="176.776" filterUnits="userSpaceOnUse" color-interpolation-filters="sRGB">
<feFlood flood-opacity="0" result="BackgroundImageFix"/>
<feColorMatrix in="SourceAlpha" type="matrix" values="0 0 0 0 0 0 0 0 0 0 0 0 0 0 0 0 0 0 127 0" result="hardAlpha"/>
<feOffset dy="4.22825"/>
<feColorMatrix type="matrix" values="0 0 0 0 0.125 0 0 0 0 0.125 0 0 0 0 0.125 0 0 0 1 0"/>
<feBlend mode="normal" in2="BackgroundImageFix" result="effect1_dropShadow_2_79"/>
<feBlend mode="normal" in="SourceGraphic" in2="effect1_dropShadow_2_79" result="shape"/>
</filter>
<clipPath id="clip0_2_79">
<rect x="267.338" y="679.652" width="315.459" height="59.1365" rx="10.5706" transform="rotate(3 267.338 679.652)" fill="white"/>
</clipPath>
</defs>
</svg>
