<svg width="25" height="25" viewBox="0 0 25 25" fill="none" xmlns="http://www.w3.org/2000/svg">
<path fill-rule="evenodd" clip-rule="evenodd" d="M1.76418 0.833374C1.70627 1.04956 1.66666 1.28275 1.66666 1.54913V23.4599C1.66666 23.7222 1.70627 23.953 1.76189 24.1667L13.3333 12.5162L1.76418 0.833374Z" fill="#1C1C1D"/>
<path fill-rule="evenodd" clip-rule="evenodd" d="M18.3333 8.26903L4.09826 0.362865C3.53072 0.0182122 2.97201 -0.0691532 2.5 0.0510745L14.7435 11.6667L18.3333 8.26903Z" fill="#1C1C1D"/>
<path fill-rule="evenodd" clip-rule="evenodd" d="M23.1304 11.0569L19.5257 9.16663L15.8333 12.4633L19.5942 15.8333L23.1014 14.0177C24.8136 13.098 24.189 11.6176 23.1304 11.0569Z" fill="#1C1C1D"/>
<path fill-rule="evenodd" clip-rule="evenodd" d="M2.5 24.9389C2.97687 25.0729 3.5464 24.9926 4.12551 24.6389L18.3333 16.804L14.6965 13.3334L2.5 24.9389Z" fill="#1C1C1D"/>
</svg>
